<svg width="20" height="20" viewBox="0 0 20 20" fill="none" xmlns="http://www.w3.org/2000/svg">
<path d="M14.7765 9.41315H13.2204C13.2204 7.16706 11.4297 5.34021 9.22812 5.34021V3.75268C12.2868 3.75268 14.7765 6.29272 14.7765 9.41315ZM18.9013 19.9988L15.388 16.4145C13.7529 17.9127 11.594 18.8268 9.22812 18.8268C4.13915 18.8268 0 14.6036 0 9.41338C0 4.22154 4.13946 0 9.22812 0C14.3168 0 18.455 4.22313 18.455 9.41338C18.455 11.621 17.7049 13.6514 16.4528 15.2586L20 18.8776L18.8998 20L18.9013 19.9988ZM16.9003 9.41315C16.9003 5.097 13.4586 1.5873 9.22946 1.5873C4.99882 1.5873 1.55741 5.09858 1.55741 9.41315C1.55741 13.7277 4.99913 17.239 9.22946 17.239C13.4598 17.239 16.9003 13.7277 16.9003 9.41315Z" fill="black"/>
</svg>
