<svg width="323" height="198" viewBox="0 0 323 198" fill="none" xmlns="http://www.w3.org/2000/svg">
<path d="M167.921 17.5306C173.127 8.85504 185.62 3.64967 185.62 3.64967L201.583 3.09157M167.921 17.5306C176.944 17.5306 190.478 17.5306 199.501 17.5306C208.523 17.5306 217.546 30.7175 217.546 30.7175C217.546 30.7175 224.139 41.4752 226.221 48.7627C228.304 56.0503 230.263 61.9794 232.121 70.6253C233.881 78.8155 235.591 88.3235 235.591 91.7937C235.591 95.2639 234.897 119.903 234.897 119.903C234.897 119.903 234.55 133.09 232.121 141.765C229.692 150.441 225.527 158.422 225.527 158.422C225.527 158.422 220.038 167.935 214.423 172.303C210.827 175.1 204.359 178.203 204.359 178.203L167.921 179.591M167.921 17.5306C165.145 17.5306 108.233 19.6128 105.457 19.6128M315.754 51.886C315.171 49.8038 314.365 43.9045 309.16 30.7175C303.955 17.5306 291.115 1.56753 287.298 1.22051C283.48 0.873482 201.583 3.09157 201.583 3.09157M315.754 51.886C316.336 53.9682 315.131 52.9468 316.448 54.6622M315.754 51.886C316.025 52.9702 316.177 53.578 316.448 54.6622M204.359 196.595L293.197 194.166C293.197 194.166 298.403 190.972 301.179 188.266C306.188 183.382 307.904 178.148 310.548 172.997C314.541 165.219 314.365 160.852 316.448 154.605C318.53 148.359 321.306 128.578 321.306 128.578L322 96.6521C322 96.6521 320.612 71.3193 316.448 54.6622M204.359 196.595C204.359 196.595 217.893 188.266 223.445 180.285C228.998 172.303 231.868 165.056 235.591 154.605C239.11 144.728 240.476 138.923 242.184 128.578C244.089 117.051 243.623 110.417 243.573 98.7342C243.525 87.727 240.796 70.6253 240.796 70.6253C240.796 70.6253 237.673 53.9682 234.897 45.6396C232.121 37.311 223.792 22.7359 219.975 17.5306C216.158 12.3253 201.583 3.09157 201.583 3.09157M204.359 196.595C204.359 196.595 207.482 196.595 202.277 196.595C197.071 196.595 186.661 198.33 178.679 192.084C170.698 185.837 167.921 179.591 167.921 179.591M167.921 179.591C167.921 179.591 129.851 180.708 105.457 180.979M105.457 180.979C99.9047 182.02 94.6993 175.774 94.6993 175.774C94.6993 175.774 90.7732 170.274 89.1469 166.751M105.457 180.979C115.521 175.774 117.603 169.527 117.603 169.527C117.603 169.527 122.732 158.394 125.237 150.788C128.265 141.599 128.132 136.144 129.402 126.496C131.17 113.06 130.79 91.7937 130.79 91.7937C130.79 91.7937 129.474 68.8511 125.931 54.6622C123.544 45.0989 121.932 38.9828 116.562 30.7175C112.697 24.7691 110.661 24.4338 105.457 19.6128M89.1469 166.751C94.3523 166.751 104.416 166.751 109.621 166.751C114.827 166.751 117.256 154.605 117.256 154.605C117.256 154.605 120.367 137.408 118.991 126.496C118.045 118.995 116.819 115.05 114.827 107.757C113.784 103.94 109.621 101.163 109.621 101.163L69.3666 101.857M89.1469 166.751C80.6091 166.751 79.2729 166.867 70.7547 167.445M55.8326 107.757C55.8326 107.757 59.3522 103.698 62.4261 102.551C64.9784 101.6 69.3666 101.857 69.3666 101.857M55.8326 107.757L54.4445 111.227M55.8326 107.757V102.551M54.4445 111.227H69.3666C69.3666 111.227 75.2645 114.697 75.96 119.903M54.4445 111.227C54.4445 111.227 51.8164 111.302 48.1966 111.409M75.96 119.903L35.7038 114.196M75.96 119.903C76.2404 122.001 76.7456 125.509 77.2035 129.132M55.8326 159.116C55.8326 159.116 63.1201 159.116 68.6725 158.422C70.0281 158.253 71.2389 157.339 72.305 156.013M55.8326 159.116C55.8326 159.116 54.3304 158.292 55.1386 160.157C56.4159 163.105 61.0395 167.445 63.1201 167.445C65.2008 167.445 68.674 167.445 70.7547 167.445M55.8326 159.116C55.8326 159.116 52.5004 159.116 48.1966 159.116M70.7547 167.445C75.96 162.24 78.3726 157.984 80.8184 150.788C83.3614 143.306 82.9005 130.66 82.9005 130.66C82.9005 130.66 82.6079 121.341 80.1243 115.738C77.5902 110.022 69.3666 101.857 69.3666 101.857M105.457 19.6128C94.3523 20.3068 90.535 30.7175 90.535 30.7175C90.535 30.7175 90.535 31.8675 90.535 33.4937M90.535 33.4937C94.0701 33.6591 105.11 33.4937 108.927 33.4937C112.745 33.4937 115.021 42.3487 117.256 48.7627C119.491 55.1768 119.685 75.8306 117.256 83.8122C114.827 91.7937 111.009 97.3461 111.009 97.3461L70.0606 98.0402M90.535 33.4937C80.3709 33.4937 73.2712 33.6734 63.1201 34.1877M70.0606 98.0402C70.0606 98.0402 78.3438 88.962 80.8184 81.383C84.0571 71.4632 80.8184 54.6622 80.8184 54.6622C80.8184 54.6622 78.6085 43.337 73.8779 39.0461C70.3531 35.849 67.8492 34.7182 63.1201 34.1877M70.0606 98.0402C70.0606 98.0402 65.5508 99.4283 61.385 98.0402C59.4455 97.3939 57.4314 95.7321 55.8326 94.1405M63.1201 34.1877C55.8326 36.2699 52.7094 42.8633 52.7094 42.8633M52.7094 42.8633H68.6725C68.6725 42.8633 73.8779 47.7217 75.266 51.886M52.7094 42.8633C52.7094 42.8633 38.9351 43.5574 31.888 43.5574M75.266 51.886L35.7038 46.284M75.266 51.886C75.9934 54.0684 76.7593 57.1118 77.2035 60.5616M77.3481 70.6253C77.745 67.1626 77.6069 63.6946 77.2035 60.5616M77.3481 70.6253L42.9927 60.5616M77.3481 70.6253C77.0037 73.6302 76.2181 76.9674 75.266 79.9937M34.6642 91.0997C31.9537 90.151 30.6967 88.8985 28.4177 87.2824M34.6642 91.0997C38.8231 90.8197 44.3582 90.6889 48.1966 90.6287M34.6642 91.0997C36.9166 90.2333 38.65 87.8099 39.8211 85.6001M41.6046 81.383C41.6046 81.383 41.8377 79.9625 42.1128 77.9128M41.6046 81.383C41.6046 81.383 40.9956 83.3841 39.8211 85.6001M41.6046 81.383L38.1329 79.6563M42.9927 67.502C42.9927 62.4877 42.4657 59.4599 40.9106 54.6622C40.5904 53.6743 40.2293 52.7514 39.8211 51.886M42.9927 67.502V60.5616M42.9927 67.502C42.9927 68.0531 42.9784 68.6355 42.9526 69.2372M42.9927 67.502H38.1329M31.888 43.5574C29.1776 45.8612 28.4406 46.575 27.0296 48.7627C26.2002 50.0488 25.5049 51.6469 24.9349 53.2741M31.888 43.5574C33.3376 44.3866 34.6012 45.2852 35.7038 46.284M22.8654 72.7074C23.2131 73.952 23.9585 78.6068 23.9585 78.6068M22.8654 72.7074H26.6811M22.8654 72.7074C22.3785 70.965 22.2166 69.1488 22.217 67.502M28.4177 87.2824L16.5351 82.4241M28.4177 87.2824C27.2036 86.4214 26.3028 85.1661 25.6415 83.8764M52.7094 90.5791C52.7094 90.5791 68.6725 90.9169 70.7547 89.3645C71.2115 89.024 71.7435 88.2941 72.305 87.2824M52.7094 90.5791C52.7094 90.5791 50.8621 90.5869 48.1966 90.6287M52.7094 90.5791C52.7094 90.5791 53.9974 92.3136 55.8326 94.1405M35.7052 159.116C39.4688 159.116 44.2427 159.116 48.1966 159.116M35.7052 159.116C37.0233 157.265 38.0675 155.442 38.9125 153.564M35.7052 159.116C34.8546 159.602 34.0794 159.703 33.2746 159.628M42.2987 127.884L78.1463 138.642M42.2987 127.884C43.2768 131.063 43.4086 133.715 43.1658 136.213M42.2987 127.884L38.1329 129.132M42.2987 127.884C41.7022 125.946 41.3984 124.18 41.0129 122.529M31.888 111.921C36.361 111.764 43.2171 111.556 48.1966 111.409M31.888 111.921C31.1527 112.402 30.4524 112.939 29.8043 113.488M31.888 111.921C33.4133 112.684 34.6667 113.439 35.7038 114.196M31.888 111.921L29.8043 117.821L31.888 121.291M31.888 111.921L34.6642 117.821L36.7448 119.903M24.2534 147.318C24.8644 149.153 25.2196 150.989 25.6415 152.655M24.2534 147.318L28.4177 145.582L31.888 144.541M24.2534 147.318C23.7079 145.679 23.3543 143.735 23.129 141.765M24.2535 123.546C23.7114 126.054 22.8654 130.66 22.8654 130.66C22.8654 130.66 22.7461 132.538 22.7641 135.172M24.2535 123.546C18.6971 123.546 15.5818 124.24 10.0255 124.24M24.2535 123.546C24.41 122.822 24.5919 122.039 24.7715 121.291M10.0255 124.24C7.93819 122.876 6.29664 120.731 5.13518 118.82M10.0255 124.24C13.6638 122.635 16.2461 119.776 17.6912 117.821M10.0255 77.9128C15.4666 77.9128 23.9585 78.6068 23.9585 78.6068M10.0255 77.9128C7.31504 79.9456 6.55374 78.6068 3.77904 83.8122C3.26603 84.7746 2.85077 85.6867 2.51411 86.572M10.0255 77.9128C11.3641 78.4276 12.5094 79.0097 13.4942 79.6563M23.9585 78.6068C23.9585 78.6068 24.3255 81.3096 25.6415 83.8764M23.9585 78.6068L28.4177 76.8093M35.7038 46.284C37.4449 47.8612 38.7846 49.6881 39.8211 51.886M35.7038 46.284L32.2335 48.0687L30.8454 51.886M77.2035 60.5616L39.8211 51.886M39.8211 51.886L33.2753 53.2741M42.9927 60.5616L38.1329 61.6026M75.266 79.9937L42.9526 69.2372M75.266 79.9937C74.3517 82.8997 73.2837 85.5191 72.305 87.2824M42.9526 69.2372C42.9048 70.3531 42.8178 71.5356 42.71 72.7074M72.305 87.2824L42.1128 77.9128M42.1128 77.9128C42.3143 76.4116 42.5384 74.5729 42.71 72.7074M48.1966 90.6287L39.8211 85.6001M39.8211 85.6001L33.2746 83.8764L28.4177 81.383L25.6415 83.8764M16.5351 82.4241C17.7214 83.9413 18.4862 85.6749 19.0481 87.6066M16.5351 82.4241L13.4942 85.6001L15.2293 89.0176M16.5351 82.4241C15.7354 81.4013 14.7441 80.4768 13.4942 79.6563M20.156 92.8348C20.3596 94.0544 20.557 95.3278 20.7832 96.6521C20.9277 97.4984 21.0175 98.397 21.063 99.3253M20.156 92.8348L55.8326 102.551M20.156 92.8348C19.8432 90.9616 19.516 89.2154 19.0481 87.6066M20.156 92.8348L15.9234 94.917M55.8326 102.551V94.1405M48.1966 111.409L21.063 102.551M21.063 102.551C20.9283 105.726 20.4444 108.946 19.9846 111.409M21.063 102.551L15.5442 106.195M21.063 102.551C21.1093 101.46 21.1144 100.374 21.063 99.3253M19.9846 111.409C19.5031 113.988 19.0481 115.738 19.0481 115.738C19.0481 115.738 18.5893 116.605 17.6912 117.821M19.9846 111.409L29.8043 113.488M19.9846 111.409L16.5351 113.488M29.8043 113.488C27.3467 115.569 25.6415 117.821 25.6415 117.821C25.6415 117.821 25.2136 119.449 24.7715 121.291M35.7038 114.196C38.2383 116.046 39.4805 117.906 40.2417 119.903M77.2035 129.132L40.2417 119.903M77.2035 129.132C77.6379 132.568 78.0296 136.107 78.1463 138.642M40.2417 119.903C40.5647 120.75 40.8011 121.622 41.0129 122.529M40.2417 119.903H36.7448M78.1463 138.642C78.2117 140.064 78.1907 141.17 78.0422 141.765C77.7579 142.905 77.0637 145.799 75.96 148.863M75.96 148.863L42.9526 137.866M75.96 148.863C75.0315 151.44 73.8131 154.138 72.305 156.013M42.9526 137.866C42.8199 138.706 42.6555 139.538 42.4784 140.377M42.9526 137.866C43.0388 137.32 43.1117 136.77 43.1658 136.213M41.0129 147.318C41.2302 146.421 41.4255 145.498 41.6046 144.541C41.8757 143.094 42.1934 141.727 42.4784 140.377M41.0129 147.318C40.4764 149.53 39.8057 151.578 38.9125 153.564M41.0129 147.318L38.9125 148.863M41.0129 147.318L56.659 151.665L72.305 156.013M48.1966 159.116L38.9125 153.564M38.9125 153.564L33.2746 151.829M33.2746 159.628C32.5202 159.557 31.7398 159.33 30.8469 159.116C27.4589 158.307 26.4329 155.779 25.6415 152.655M33.2746 159.628V151.829M33.2746 151.829L29.8043 150.788L25.6415 152.655M31.888 144.541L35.7052 141.765L38.1329 144.194M31.888 144.541L34.6642 148.863H38.9125M38.1329 144.194V141.765L38.9125 140.377M38.1329 144.194L38.9125 148.863M38.9125 140.377L38.1329 135.172M38.9125 140.377H42.4784M38.1329 135.172L43.1658 136.213M38.1329 135.172V129.132M38.1329 135.172L33.2753 137.774M26.6811 140.377H28.4177L33.2753 137.774M26.6811 140.377L23.129 141.765M26.6811 140.377L25.6415 135.172M23.129 141.765C22.865 139.456 22.7774 137.109 22.7641 135.172M38.1329 129.132L33.2746 130.66L29.8043 127.884M38.1329 129.132L35.7038 124.24M38.1329 129.132L30.8454 132.882M25.6415 135.172L26.6811 134.131H28.4177L30.8454 132.882M25.6415 135.172H22.7641M25.6415 135.172V129.132L29.8043 127.884M29.8043 127.884L35.7038 124.24M35.7038 124.24L41.0129 122.529M35.7038 124.24L34.6642 122.529M24.7715 121.291L28.4177 123.546L31.888 121.291M31.888 121.291L36.7448 119.903M31.888 121.291L34.6642 122.529M36.7448 119.903L34.6642 122.529M33.2753 137.774L30.8454 132.882M8.98291 122.529L11.0651 119.903L8.98291 114.697M8.98291 114.697L6.20671 117.821L5.13518 118.82M8.98291 114.697L17.6912 117.821M8.98291 114.697L10.0255 109.839M8.98291 114.697L6.20671 111.227M5.13518 118.82C3.78633 116.601 3.08499 114.697 3.08499 114.697C3.08499 114.697 2.83803 113.609 2.51411 111.921M17.6912 117.821L16.5351 113.488M16.5351 113.488L10.0255 109.839M16.5351 113.488L15.5442 106.195M10.0255 109.839L6.57972 107.757M10.0255 109.839L15.5442 106.195M6.20671 111.227L2.51411 111.921M6.20671 111.227L6.90076 108.451L6.57972 107.757M2.51411 111.921C2.14905 110.019 1.68622 107.356 1.36895 104.634M5.13518 104.634L16.5351 101.163M5.13518 104.634H1.36895M5.13518 104.634L6.57972 107.757M16.5351 101.163L15.9234 94.917M16.5351 101.163L21.063 99.3253M15.9234 94.917L15.2293 89.0176M15.9234 94.917L11.0651 96.8606M3.77904 99.7753L5.13518 92.8348M3.77904 99.7753L1.06084 101.163M3.77904 99.7753L11.0651 96.8606M5.13518 92.8348L6.90076 85.6001M5.13518 92.8348H1.18142M5.13518 92.8348L9.7236 91.0997M15.2293 89.0176L19.0481 87.6066M15.2293 89.0176L11.0651 87.2824L10.0255 83.8122L13.4942 79.6563M15.2293 89.0176L9.7236 91.0997M13.4942 79.6563L8.98291 82.4241L6.90076 85.6001M6.90076 85.6001H10.0255M6.90076 85.6001L2.51411 86.572M2.51411 86.572C1.70283 88.7055 1.34795 90.6835 1.18142 92.8348M1.18142 92.8348C1.04329 94.6194 1.03476 96.5233 1.00284 98.7342C0.991722 99.5047 1.01366 100.322 1.06084 101.163M1.06084 101.163C1.12426 102.295 1.2333 103.47 1.36895 104.634M11.0651 96.8606L9.7236 91.0997M38.1329 79.6563L36.7448 72.7074M38.1329 79.6563L33.2753 78.6068L30.8454 75.8307M36.7448 72.7074L30.8454 75.8307M36.7448 72.7074H38.1329M42.71 72.7074H38.1329M30.8454 75.8307L28.4177 76.8093M28.4177 76.8093L26.6811 72.7074M26.6811 72.7074L38.1329 67.502M26.6811 72.7074L25.6415 66.114M38.1329 67.502V72.7074M38.1329 67.502V61.6026M38.1329 61.6026L34.8127 56.9178M38.1329 61.6026L31.8872 63.8583M25.6415 66.114V60.5616M25.6415 66.114L22.217 67.502M25.6415 66.114L31.8872 63.8583M25.6415 60.5616L29.1103 59.4049M25.6415 60.5616L23.3206 59.1735M39.8211 54.6622L34.8127 56.9178M34.8127 56.9178L33.2753 53.2741M34.8127 56.9178L30.8454 58.7046M33.2753 53.2741L30.8454 51.886M30.8454 51.886L29.1103 53.9682M29.1103 53.9682L24.9349 53.2741M29.1103 53.9682V59.4049M24.9349 53.2741C24.1895 55.4017 23.6582 57.5789 23.3206 59.1735M29.1103 59.4049L29.8043 59.1735L30.8454 58.7046M23.3206 59.1735C23.012 60.6317 22.8654 61.6026 22.8654 61.6026C22.8654 61.6026 22.2178 64.2145 22.217 67.502M31.8872 63.8583L30.8454 58.7046" stroke="#009140" stroke-width="2"/>
</svg>
