<svg width="176" height="230" viewBox="0 0 176 230" fill="none" xmlns="http://www.w3.org/2000/svg">
<path fill-rule="evenodd" clip-rule="evenodd" d="M114.924 79.3285L103.474 77.6573H103.485C100.416 77.2044 97.766 75.2745 96.3818 72.4819L91.2848 62.0774H91.2955C90.6838 60.8051 89.4069 59.9965 88.0013 60.0073C86.5849 59.9857 85.2972 60.7944 84.6857 62.0774L79.5887 72.4819C78.2259 75.2959 75.5649 77.2477 72.496 77.7111L61.0466 79.3823C59.6516 79.5764 58.4927 80.5575 58.0529 81.9053C57.6237 83.2423 57.9778 84.7193 58.9864 85.7113L67.2595 93.7871C69.5343 95.9327 70.6075 99.0811 70.1139 102.186L68.1717 113.691V113.68C67.9356 115.071 68.5043 116.483 69.6418 117.303C70.7792 118.133 72.2815 118.252 73.5263 117.594L83.6236 112.214C84.9542 111.437 86.4563 111.017 88.0018 110.985C89.5255 110.974 91.0279 111.34 92.3799 112.041L102.595 117.443V117.454C103.84 118.154 105.385 118.068 106.555 117.227C107.714 116.397 108.293 114.952 108.036 113.54L106.093 102.035H106.083C105.6 98.941 106.673 95.7927 108.948 93.6469L117.189 85.5712V85.5604C118.197 84.5793 118.562 83.1129 118.122 81.7652C117.693 80.4282 116.545 79.447 115.161 79.2422L114.924 79.3285ZM75.844 90.7142C82.3249 90.4986 88.3232 87.2317 92.036 81.8838L92.0361 81.7436C92.5512 81.1398 92.8087 80.3527 92.7336 79.5656C92.6585 78.7785 92.2615 78.0561 91.6284 77.5709C91.006 77.0858 90.212 76.8809 89.4287 77.0103C88.6561 77.1289 87.9586 77.571 87.5187 78.2287C84.2887 83.1992 78.355 85.6682 72.5819 84.4391C71.9274 84.2342 71.2299 84.2342 70.5754 84.4391C68.998 84.6547 67.8821 86.1211 68.0966 87.706C68.3112 89.291 69.7706 90.4123 71.348 90.1967C72.8179 90.5309 74.331 90.7034 75.844 90.7142Z" fill="#E25319"/>
<path fill-rule="evenodd" clip-rule="evenodd" d="M162.34 69.6341C158.445 68.2432 155.312 65.2675 153.734 61.4181C152.157 57.5798 152.286 53.2563 154.067 49.5041C157.769 41.7195 156.181 32.4362 150.118 26.3445C144.045 20.242 134.806 18.646 127.059 22.3659C123.335 24.1665 119.022 24.2851 115.202 22.7002C111.382 21.1152 108.409 17.967 107.025 14.0531C104.149 5.93425 96.4985 0.5 87.9142 0.5C79.3298 0.5 71.679 5.93425 68.8034 14.0531C67.4192 17.967 64.447 21.1153 60.6267 22.7002C56.8068 24.2851 52.4932 24.1665 48.7697 22.3659C41.0224 18.646 31.7834 20.2419 25.7101 26.3445C19.6475 32.4362 18.0592 41.7195 21.7613 49.5041C23.5426 53.2563 23.6713 57.5798 22.094 61.4181C20.5166 65.2672 17.3835 68.2433 13.4882 69.6341C5.39754 72.5238 0 80.2112 0 88.8367C0 97.4623 5.39727 105.161 13.4882 108.05C17.3835 109.43 20.5167 112.417 22.094 116.255C23.6713 120.094 23.5426 124.428 21.7613 128.169C18.0057 135.997 19.5938 145.356 25.7208 151.48C31.848 157.615 41.1726 159.157 48.9414 155.34C52.6649 153.55 56.9785 153.421 60.7984 155.006C64.6184 156.591 67.5909 159.739 68.9751 163.653C71.8509 171.782 79.5015 177.206 88.0859 177.206C96.6702 177.206 104.321 171.783 107.197 163.653C108.581 159.739 111.553 156.59 115.373 155.006C119.193 153.421 123.507 153.55 127.23 155.34C134.978 159.027 144.184 157.421 150.247 151.329C156.31 145.237 157.909 135.986 154.239 128.202C152.457 124.46 152.329 120.126 153.906 116.288C155.483 112.449 158.617 109.462 162.512 108.072C170.602 105.182 176 97.4946 176 88.869C176 80.2434 170.603 72.5558 162.512 69.6664L162.34 69.6341ZM48.3733 128.752C58.8778 139.308 73.1395 145.227 88.0013 145.227C102.841 145.206 117.081 139.263 127.576 128.719C138.07 118.175 143.983 103.867 144.004 88.9554C144.004 74.0217 138.113 59.6925 127.608 49.137C117.103 38.5704 102.842 32.6297 87.9799 32.6297C73.1176 32.6297 58.8676 38.5599 48.3519 49.1154C37.8466 59.6814 31.945 74.0007 31.945 88.9339C31.945 103.868 37.8576 118.197 48.3733 128.752Z" fill="#E25319"/>
<path d="M63.418 223.807C63.654 224.885 63.257 225.996 62.3879 226.675C61.4758 227.387 60.2203 227.462 59.2118 226.88L41.6462 216.993L25.0462 228.95C24.5633 229.295 23.9839 229.478 23.3937 229.5C23.0504 229.5 22.707 229.435 22.3851 229.295C21.4944 228.972 20.8184 228.217 20.5824 227.279C20.1853 225.608 11.8264 189.553 31.1948 161.413H31.2055C34.092 162.545 37.1717 163.116 40.2727 163.105C44.168 163.105 48.0094 162.232 51.5184 160.55H51.7222C43.8139 170.61 39.5218 183.063 39.5539 195.883C39.5539 196.649 39.8544 197.382 40.3909 197.921C40.9274 198.46 41.6571 198.762 42.4189 198.762C43.1808 198.762 43.9105 198.46 44.447 197.921C44.9835 197.382 45.284 196.649 45.284 195.883L45.2835 195.855C45.2671 194.976 44.8922 174.892 59.1584 160.95C61.165 161.975 62.721 163.721 63.5041 165.845C64.8669 169.727 67.1203 173.231 70.0925 176.077C65.2532 186.633 58.761 205.866 63.418 223.807Z" fill="#009140"/>
<path fill-rule="evenodd" clip-rule="evenodd" d="M88.0013 38.4109C74.6633 38.4001 61.8621 43.7265 52.4196 53.2038C42.9769 62.6704 37.676 75.5332 37.6653 88.9344C37.6653 102.347 42.9554 115.199 52.3875 124.687C61.8302 134.175 74.621 139.502 87.9582 139.502C101.307 139.502 114.108 134.175 123.54 124.698C132.972 115.221 138.273 102.357 138.273 88.9562C138.262 75.5649 132.961 62.713 123.54 53.245C114.108 43.7676 101.33 38.4324 88.0013 38.4109ZM120.965 89.7642L112.692 97.8399C111.834 98.6917 111.437 99.9208 111.64 101.118L113.583 112.622C114.226 116.169 112.778 119.77 109.859 121.873C108.249 123.07 106.307 123.706 104.312 123.717C102.788 123.728 101.275 123.35 99.9334 122.628L89.7179 117.161C88.6449 116.59 87.3572 116.59 86.2842 117.161L76.0687 122.541C72.8926 124.223 69.0403 123.954 66.1323 121.83C63.2351 119.717 61.7759 116.115 62.3874 112.557L64.3618 101.053V101.064C64.5549 99.8776 64.1579 98.6808 63.3102 97.8397L55.0371 89.7317C52.4725 87.2195 51.5498 83.4674 52.6549 80.0387C53.7602 76.6208 56.7004 74.1195 60.2413 73.602L71.6907 71.9308C72.9247 71.7906 74.0085 71.0143 74.5558 69.893L79.6743 59.51C81.2731 56.2215 84.621 54.1621 88.2586 54.2267C91.8961 54.162 95.2442 56.2214 96.8429 59.51L99.3002 64.5451L101.961 69.893C102.509 71.0143 103.592 71.7906 104.826 71.9308L116.276 73.602C119.817 74.1195 122.757 76.6211 123.862 80.0387C124.967 83.4674 124.045 87.2196 121.48 89.7317L120.965 89.7642Z" fill="#E25319"/>
<path d="M144.624 161.532C164.261 189.652 155.934 225.62 155.526 227.227C155.301 228.154 154.625 228.909 153.724 229.243C152.812 229.631 151.76 229.523 150.955 228.952L134.355 216.995L116.79 227.033V227.022C115.781 227.615 114.536 227.529 113.614 226.828C112.691 226.127 112.283 224.93 112.584 223.809C117.187 206.008 110.663 186.977 105.738 175.991C108.785 173.113 111.103 169.544 112.498 165.587C113.259 163.571 114.719 161.889 116.618 160.865C131.712 174.615 130.958 194.561 130.923 195.504C130.922 195.523 130.922 195.538 130.922 195.538C130.868 196.303 131.115 197.058 131.619 197.64C132.113 198.212 132.821 198.568 133.583 198.622H133.787C135.278 198.622 136.523 197.468 136.641 195.969C137.006 182.934 132.51 170.233 124.054 160.346L124.602 160.551C128.11 162.233 131.952 163.106 135.847 163.106C138.841 163.106 141.813 162.578 144.624 161.532Z" fill="#009140"/>
</svg>
