<svg width="196" height="190" viewBox="0 0 196 190" fill="none" xmlns="http://www.w3.org/2000/svg">
<path d="M144.387 0.315063H133.498C119.778 0.315063 107.364 8.97628 98 25.2161C88.6356 8.97628 76.2222 0.315063 62.72 0.315063H51.8311C22.2133 0.315063 0 41.0228 0 94.9389C0 148.855 22.2133 189.779 51.8311 189.779H62.72C76.44 189.779 88.8533 181.118 98.2178 164.878C107.582 180.901 119.996 189.779 133.716 189.779H144.604C173.787 189.779 196 148.855 196 94.9389C196 41.0228 173.787 0.315063 144.387 0.315063ZM86.6756 27.5979C84.9333 27.8144 83.1911 28.464 81.4489 29.1136C81.0133 28.031 80.1422 27.3814 78.8356 27.3814C77.5289 27.3814 76.44 27.5979 75.1333 27.8144L67.0756 11.7912C74.2622 13.3069 81.0133 18.9367 86.6756 27.5979ZM35.28 121.356L21.7778 94.2893C21.7778 84.9785 22.6489 75.8842 23.9556 67.4395L32.8844 85.4115C32.8844 88.443 32.6667 91.6909 32.6667 94.9389C32.6667 104.25 33.5378 113.344 35.28 121.356ZM34.1911 75.4511L25.9156 58.7783C27.44 51.8493 29.6178 45.3534 32.0133 39.7236L39.6356 54.6642C37.0222 60.9436 35.28 67.8726 34.1911 75.4511ZM34.8444 33.6608C37.4578 28.464 40.5067 24.1334 43.9911 20.4524L51.3956 35.1765C47.9111 38.641 44.8622 42.9716 42.2489 48.3848L34.8444 33.6608ZM64.2444 33.2277C51.8311 43.8377 43.5556 67.223 43.5556 94.9389C43.5556 122.655 51.8311 146.04 64.2444 156.65C49.8711 152.536 38.1111 125.903 38.1111 94.9389C38.1111 63.975 49.6533 37.3418 64.2444 33.2277ZM49 94.9389C49 63.975 60.5422 37.3418 75.1333 33.2277C62.72 43.8377 54.4444 67.223 54.4444 94.9389C54.4444 122.655 62.72 146.04 75.1333 156.65C60.5422 152.536 49 125.903 49 94.9389ZM59.8889 94.9389C59.8889 63.975 71.4311 37.3418 86.0222 33.2277C73.6089 43.8377 65.3333 67.223 65.3333 94.9389C65.3333 122.655 73.6089 146.04 86.0222 156.65C71.4311 152.536 59.8889 125.903 59.8889 94.9389ZM60.9778 11.1416L69.2533 27.5979C68.8178 27.3814 68.6 27.3814 68.1644 27.3814C63.8089 27.3814 59.4533 28.8971 55.5333 31.4955L48.1289 16.5548C52.0489 13.3069 56.4044 11.5746 60.9778 11.1416ZM10.8889 94.9389C10.8889 53.5816 25.48 19.1532 44.8622 12.2242C27.8756 25.4326 16.3333 57.0461 16.3333 94.9389C16.3333 132.832 27.8756 164.445 44.8622 177.654C25.48 170.725 10.8889 136.296 10.8889 94.9389ZM22.2133 107.281L57.9289 178.303C39.6356 173.973 24.8267 144.524 22.2133 107.281ZM64.2444 178.736L52.92 156.434C57.4933 160.331 62.5022 162.713 67.9467 162.713C69.0356 162.713 70.1245 161.847 70.56 160.981C70.7778 160.981 70.7778 160.981 70.9956 161.197L77.0933 173.539C72.9556 176.571 68.6 178.303 64.2444 178.736ZM81.2311 169.425L77.7467 162.713C78.1822 162.713 78.4 162.713 78.8356 162.713C79.9244 162.713 81.0133 161.847 81.4489 160.981C83.1911 161.847 84.9333 162.28 86.6756 162.496C84.9333 164.878 83.1911 167.26 81.2311 169.425ZM91.4667 154.052C79.7067 145.824 70.7778 122.005 70.7778 94.9389C70.7778 67.8726 79.4889 44.2708 91.4667 35.8261C91.6844 36.4757 92.12 37.1252 92.3378 37.7748C82.5378 49.684 76.2222 70.6875 76.2222 94.9389C76.2222 119.19 82.5378 140.194 92.3378 152.103C92.12 152.753 91.6844 153.402 91.4667 154.052ZM81.6667 94.9389C81.6667 73.2858 87.3289 53.7981 95.6044 42.5385C90.3778 57.2626 87.1111 75.2346 87.1111 94.9389C87.1111 114.643 90.3778 132.615 95.6044 147.339C87.3289 136.08 81.6667 116.592 81.6667 94.9389ZM103.009 150.587C103.009 150.371 102.791 150.154 102.573 149.938C96.2578 135.214 92.5556 115.942 92.5556 94.7224C92.5556 73.5024 96.4756 54.4477 102.573 39.5071C102.791 39.2906 102.791 39.074 103.009 38.8575C109.107 24.5665 117.382 15.2557 126.311 12.0077C109.542 25.6491 98 57.2626 98 94.9389C98 132.615 109.542 164.229 126.311 177.437C117.382 174.189 109.107 164.878 103.009 150.587ZM144.387 54.4477C154.622 54.4477 163.333 72.8528 163.333 94.9389C163.333 117.025 154.622 135.647 144.169 135.647C133.716 135.647 125.004 117.025 125.004 94.9389C125.004 72.8528 133.933 54.4477 144.387 54.4477ZM120.431 84.762L107.364 58.9948C108.889 52.0659 111.067 45.5699 113.462 39.9401L125.876 64.4081C123.262 70.0379 121.302 76.9669 120.431 84.762ZM129.142 58.5618L116.511 33.4442C119.124 28.2475 122.173 23.9169 125.658 20.2359L140.249 49.4675C136.111 50.7667 132.191 54.0146 129.142 58.5618ZM103.88 107.281L139.596 178.303C121.302 173.973 106.493 144.524 103.88 107.281ZM145.911 178.736L103.444 94.2893C103.444 84.9785 104.316 75.8842 105.622 67.4395L119.778 95.5885C119.996 119.84 129.796 139.111 142.427 140.843L158.76 173.323C154.84 176.571 150.484 178.303 145.911 178.736ZM163.116 169.425L148.524 140.194C152.662 138.895 156.582 135.863 159.631 131.099L172.044 156.217C169.431 161.414 166.382 165.961 163.116 169.425ZM175.093 149.938L162.68 125.47C165.293 119.84 167.253 112.911 168.124 105.116L181.191 130.883C179.449 138.028 177.489 144.308 175.093 149.938ZM182.933 122.222L168.778 94.0728C168.56 69.8214 158.76 50.5501 146.129 48.8179L129.796 16.3383C133.933 13.0904 138.289 11.1416 142.644 10.9251L185.111 95.3719C185.111 104.899 184.24 113.994 182.933 122.222ZM148.96 11.5746C167.253 15.9053 182.062 45.3534 184.676 82.5966L148.96 11.5746Z" fill="#E25319"/>
</svg>
