<svg width="262" height="268" viewBox="0 0 262 268" fill="none" xmlns="http://www.w3.org/2000/svg">
<path d="M86.2024 159.769L79.2686 200.966L123.5 178.614L86.2024 159.769Z" fill="#E25319"/>
<path d="M124.184 127.603L94.4705 110.62L88.1465 148.197L124.184 127.603Z" fill="#E25319"/>
<path d="M175.802 159.769L138.499 178.614L182.731 200.966L175.802 159.769Z" fill="#E25319"/>
<path d="M157.33 108.659H104.664L130.999 123.708L157.33 108.659Z" fill="#E25319"/>
<path d="M130.999 131.498L90.7559 154.495L130.999 174.832L171.238 154.495L130.999 131.498Z" fill="#E25319"/>
<path d="M137.815 127.603L173.853 148.197L167.534 110.62L137.815 127.603Z" fill="#E25319"/>
<path d="M172.387 29.5384C172.4 29.5519 172.405 29.5654 172.418 29.579C172.445 29.6015 172.468 29.6285 172.49 29.6511C172.504 29.6646 172.527 29.6691 172.54 29.6826C172.662 29.8134 172.716 29.9802 172.816 30.129C172.852 30.1786 172.888 30.2236 172.915 30.2732C172.996 30.4085 173.114 30.5212 173.177 30.6609C173.191 30.6925 173.195 30.7286 173.209 30.7601C173.29 30.9585 173.304 31.1659 173.34 31.3778C173.376 31.5716 173.444 31.7565 173.448 31.9503C173.448 31.9684 173.457 31.9819 173.457 31.9999V36.2242L257.874 55.0734C258.127 55.1275 258.371 55.1545 258.619 55.1545C260.168 55.1545 261.564 54.086 261.916 52.5126C262.328 50.6913 261.18 48.8835 259.355 48.4732L171.709 28.9027L172.387 29.5384Z" fill="#009140"/>
<path d="M100.482 101.896H161.514L131 73.2778L100.482 101.896Z" fill="#E25319"/>
<path d="M161.514 28.6186L131 0L100.482 28.6186H161.514Z" fill="#E25319"/>
<path d="M161.514 35.3811H100.482L131 63.9997L161.514 35.3811Z" fill="#E25319"/>
<path d="M126.054 68.6388L95.3193 39.8173V97.4603L126.054 68.6388Z" fill="#E25319"/>
<path d="M77.4219 211.971L69.5439 258.794L123.081 233.521L77.4219 211.971Z" fill="#E25319"/>
<path d="M195.427 267.671L130.999 237.262L66.5757 267.671C66.5351 267.689 66.4899 267.68 66.4538 267.698C66.0382 267.878 65.6 267.995 65.1348 267.995H196.873C196.403 267.995 195.965 267.878 195.549 267.698C195.509 267.68 195.464 267.689 195.427 267.671Z" fill="#E25319"/>
<path d="M217.824 261.238H199.737L200.211 264.06C200.23 264.168 200.193 264.276 200.202 264.384C200.216 264.619 200.211 264.844 200.18 265.074C200.144 265.309 200.089 265.525 200.013 265.737C199.977 265.841 199.981 265.953 199.931 266.057C199.873 266.174 199.787 266.269 199.719 266.377C199.651 266.481 199.597 266.58 199.516 266.675C199.29 266.963 199.032 267.22 198.734 267.418C198.712 267.432 198.694 267.454 198.671 267.468C198.328 267.684 197.948 267.811 197.555 267.896C197.506 267.905 197.474 267.937 197.429 267.946C197.239 267.982 197.049 267.995 196.864 267.995H217.819C219.689 267.995 221.207 266.481 221.207 264.614C221.207 262.748 219.694 261.238 217.824 261.238Z" fill="#009140"/>
<path d="M64.5648 267.95C64.5196 267.941 64.4835 267.91 64.4383 267.901C64.0453 267.815 63.6614 267.689 63.318 267.473C63.2955 267.459 63.2774 267.436 63.2548 267.423C62.9567 267.225 62.6947 266.968 62.4688 266.679C62.3965 266.584 62.3378 266.485 62.2746 266.386C62.2023 266.278 62.112 266.183 62.0578 266.061C62.0081 265.958 62.0126 265.841 61.9764 265.732C61.8997 265.516 61.8455 265.304 61.8138 265.074C61.7822 264.844 61.7777 264.619 61.7913 264.393C61.7958 264.281 61.7596 264.172 61.7822 264.06L62.2565 261.238H44.1789C42.3088 261.238 40.791 262.752 40.791 264.619C40.791 266.485 42.3088 268 44.1789 268H65.1294C64.9442 268 64.7545 267.986 64.5648 267.95Z" fill="#009140"/>
<path d="M259.349 121.751L173.451 102.573V105.012L174.237 109.682L257.868 128.356C258.121 128.41 258.365 128.437 258.613 128.437C260.162 128.437 261.558 127.368 261.911 125.795C262.322 123.965 261.174 122.157 259.349 121.751Z" fill="#009140"/>
<path d="M135.947 68.6388L166.677 97.4603V39.8173L135.947 68.6388Z" fill="#E25319"/>
<path d="M184.581 211.966L138.922 233.521L192.459 258.799L184.581 211.966Z" fill="#E25319"/>
<path d="M131 182.406L82.5264 206.904L131 229.783L179.473 206.904L131 182.406Z" fill="#E25319"/>
<path d="M88.5426 104.994V102.568L2.64897 121.751C0.824043 122.157 -0.327831 123.969 0.0832301 125.79C0.435568 127.364 1.83589 128.432 3.38527 128.432C3.62919 128.432 3.87764 128.405 4.12608 128.351L87.7521 109.673L88.5426 104.994Z" fill="#009140"/>
<path d="M3.38979 55.1545C3.63371 55.1545 3.88215 55.1274 4.1306 55.0733L88.5471 36.2242V31.9999C88.5471 31.9819 88.5561 31.9683 88.5561 31.9458C88.5561 31.7474 88.6284 31.5626 88.6691 31.3642C88.7052 31.1614 88.7188 30.954 88.7956 30.7601C88.8091 30.7286 88.8136 30.6925 88.8272 30.6609C88.8904 30.5212 89.0079 30.4085 89.0892 30.2732C89.1253 30.2146 89.1705 30.156 89.2066 30.0929C89.3015 29.9621 89.3466 29.8089 89.4641 29.6826C89.4776 29.6691 89.4957 29.6646 89.5047 29.6511C89.5318 29.6285 89.5544 29.6015 89.5815 29.5744C89.5951 29.5609 89.5996 29.5474 89.6132 29.5339L90.2907 28.8982L2.64897 48.4732C0.824043 48.8789 -0.327831 50.6913 0.0832301 52.5126C0.435568 54.0815 1.83589 55.1545 3.38979 55.1545Z" fill="#009140"/>
</svg>
