<svg width="200" height="200" viewBox="0 0 200 200" fill="none" xmlns="http://www.w3.org/2000/svg">
<path fill-rule="evenodd" clip-rule="evenodd" d="M100 6.25001C107.414 6.25001 110.328 8.84382 114.156 12.8594C114.668 13.3958 115.188 13.9599 115.726 14.5431C119.217 18.3256 123.446 22.9088 130.695 25.9141C137.925 28.911 144.139 28.6655 149.273 28.4627C150.082 28.4307 150.863 28.3999 151.617 28.3829C157.164 28.25 161.055 28.4766 166.297 33.7189C171.539 38.9611 171.75 42.8439 171.617 48.3907C171.6 49.1305 171.569 49.8962 171.537 50.6877C171.33 55.8309 171.08 62.0613 174.086 69.3128C177.089 76.5565 181.667 80.7788 185.448 84.2658C185.484 84.2996 185.521 84.3336 185.558 84.3672C186.105 84.8722 186.635 85.3621 187.141 85.844C191.156 89.6722 193.75 92.5862 193.75 100C193.75 107.414 191.156 110.328 187.141 114.156C186.601 114.671 186.034 115.194 185.447 115.735C181.666 119.222 177.089 123.444 174.086 130.688C171.089 137.917 171.335 144.132 171.538 149.266C171.569 150.074 171.6 150.855 171.617 151.61C171.75 157.157 171.539 161.055 166.297 166.297C161.055 171.54 157.164 171.758 151.617 171.633C150.866 171.615 150.088 171.584 149.283 171.551C144.147 171.341 137.929 171.088 130.695 174.087C123.445 177.092 119.216 181.676 115.726 185.458C115.188 186.041 114.667 186.605 114.156 187.141C110.328 191.157 107.414 193.751 100 193.751C92.586 193.751 89.6796 191.157 85.8516 187.141C85.3402 186.605 84.8197 186.041 84.2816 185.458C80.7912 181.675 76.5621 177.092 69.3125 174.087C62.0784 171.088 55.8604 171.341 50.7241 171.551C49.9196 171.584 49.1417 171.615 48.3905 171.633C42.8437 171.766 38.9451 171.54 33.7029 166.297C28.4606 161.055 28.2574 157.157 28.3904 151.61C28.4082 150.87 28.4389 150.104 28.4707 149.313C28.6774 144.17 28.9278 137.939 25.9216 130.688C22.921 123.45 18.3422 119.228 14.5616 115.743C13.9717 115.199 13.4012 114.673 12.8592 114.156C8.8436 110.328 6.25759 107.414 6.25759 100C6.25759 92.5862 8.8514 89.672 12.8592 85.844C13.4015 85.327 13.9722 84.8008 14.5625 84.2567C18.3429 80.7712 22.9214 76.5501 25.9216 69.3128C28.9186 62.0836 28.6731 55.8692 28.4703 50.7349C28.4383 49.9267 28.4074 49.1452 28.3904 48.3907C28.2576 42.8439 28.4608 38.9611 33.7029 33.7189C38.9451 28.4767 42.8435 28.2579 48.3905 28.3829C49.1302 28.4006 49.896 28.4313 50.6874 28.4632C55.8307 28.6699 62.061 28.9202 69.3125 25.9141C76.5627 22.9084 80.7919 18.3251 84.2822 14.5424C84.8201 13.9595 85.3404 13.3956 85.8516 12.8594C89.6798 8.84382 92.586 6.25001 100 6.25001ZM41.6017 99.9922C41.6017 67.7822 67.7977 41.6101 100.008 41.6101C132.218 41.6101 158.39 67.7822 158.39 99.9922C158.39 132.202 132.218 158.398 100.008 158.398C67.7977 158.398 41.6017 132.202 41.6017 99.9922Z" fill="#F8F8F8"/>
<path fill-rule="evenodd" clip-rule="evenodd" d="M100.008 47.8601C128.844 47.8601 152.14 71.1642 152.14 99.9922C152.14 128.828 128.836 152.148 100.008 152.148C71.1717 152.148 47.8517 128.82 47.8517 99.9922C47.8517 71.1562 71.1717 47.8601 100.008 47.8601ZM121.961 83.1801C122.547 82.5941 123.336 82.2582 124.164 82.2582C124.992 82.2582 125.78 82.5787 126.366 83.1568C126.96 83.7428 127.296 84.5319 127.304 85.3678C127.304 86.196 126.976 87.0007 126.39 87.5866L95.1396 119.165C94.5536 119.766 93.7489 120.102 92.9129 120.102C92.0692 120.102 91.2723 119.766 90.6786 119.165V119.173L73.5925 101.915C73.0066 101.321 72.6785 100.524 72.6863 99.6881C72.6863 98.8599 73.0222 98.063 73.616 97.4771C74.2098 96.8989 75.0066 96.5708 75.8347 96.5708C76.6629 96.5786 77.4598 96.9146 78.0458 97.5005H78.0379L92.9208 112.516L121.961 83.1801Z" fill="#F8F8F8"/>
<path d="M124.164 82.2582C123.336 82.2582 122.547 82.5941 121.961 83.1801L92.9208 112.516L78.0379 97.5005H78.0458C77.4598 96.9146 76.6629 96.5786 75.8347 96.5708C75.0066 96.5708 74.2098 96.8989 73.616 97.4771C73.0222 98.063 72.6863 98.8599 72.6863 99.6881C72.6785 100.524 73.0066 101.321 73.5925 101.915L90.6786 119.173V119.165C91.2723 119.766 92.0692 120.102 92.9129 120.102C93.7489 120.102 94.5536 119.766 95.1396 119.165L126.39 87.5866C126.976 87.0007 127.304 86.196 127.304 85.3678C127.296 84.5319 126.96 83.7428 126.366 83.1568C125.78 82.5787 124.992 82.2582 124.164 82.2582Z" fill="#004820"/>
</svg>
