<svg width="389" height="238" viewBox="0 0 389 238" fill="none" xmlns="http://www.w3.org/2000/svg">
<path d="M92.8715 155.349L48.31 144.216C48.6995 145.238 48.9845 146.29 49.2398 147.384C49.7046 149.376 50.0708 151.505 50.79 153.844L94.0081 166.822C93.8674 163.763 93.3952 159.494 92.8715 155.349Z" fill="#009140"/>
<path d="M93.0458 84.7704L51.6268 72.6301L51.6268 81.0027C51.6268 81.6674 51.6095 82.37 51.5784 83.0959L90.5356 96.0719C91.6835 92.4211 92.6306 88.3953 93.0458 84.7704Z" fill="#009140"/>
<path d="M223.579 3.9749C223.579 3.9749 208.517 10.2543 202.242 20.7201L240.314 20.7201C251.191 20.7201 262.069 36.628 262.069 36.628C262.069 36.628 270.018 49.6055 272.529 58.3967C275.039 67.1879 277.401 74.3405 279.641 84.7704C281.763 94.6506 283.825 106.12 283.825 110.307C283.825 114.493 282.988 144.216 282.988 144.216C282.988 144.216 282.57 160.124 279.641 170.589C276.712 181.055 271.692 190.684 271.692 190.684C271.692 190.684 265.074 202.159 258.304 207.429C253.969 210.803 246.171 214.546 246.171 214.546L202.242 216.22C202.242 216.22 205.589 223.756 215.211 231.291C224.834 238.826 237.385 236.733 243.661 236.733L246.171 236.733C246.171 236.733 262.488 226.686 269.182 217.057C275.876 207.429 279.337 198.686 283.825 186.079C288.067 174.164 289.714 167.161 291.774 154.682C294.07 140.776 293.508 132.773 293.447 118.679C293.39 105.401 290.1 84.7704 290.1 84.7704C290.1 84.7704 286.335 64.6763 282.988 54.6291C279.641 44.5819 269.6 26.9995 264.998 20.7201C260.396 14.4407 242.824 3.30165 242.824 3.30165L223.579 3.9749Z" fill="#009140"/>
<path d="M113.965 211.615C113.965 211.615 120.24 219.151 126.934 217.895C139.067 211.615 141.577 204.08 141.577 204.08C141.577 204.08 147.76 190.65 150.782 181.474C154.431 170.389 154.271 163.808 155.802 152.17C157.934 135.961 157.476 110.307 157.476 110.307C157.476 110.307 155.889 82.6301 151.618 65.5134C148.74 53.9768 146.797 46.5987 140.322 36.628C135.662 29.4521 133.208 29.0476 126.934 23.2318C113.546 24.0691 108.944 36.628 108.944 36.628L108.944 39.977C113.206 40.1765 126.516 39.977 131.118 39.977C135.72 39.977 138.464 50.6592 141.159 58.3967C143.854 66.1342 144.088 91.0498 141.159 100.678C138.23 110.307 133.628 117.005 133.628 117.005L84.26 117.842C84.26 117.842 78.8229 119.517 73.8006 117.842C71.4623 117.062 69.0341 115.058 67.1066 113.138L67.1066 123.284L67.1066 129.564C67.1066 129.564 71.3498 124.667 75.0557 123.284C78.1328 122.136 83.4232 122.447 83.4232 122.447L131.955 121.61C131.955 121.61 136.973 124.959 138.23 129.564C140.632 138.362 142.11 143.121 143.251 152.17C144.91 165.333 141.159 186.079 141.159 186.079C141.159 186.079 138.23 200.731 131.955 200.731L107.271 200.731C109.231 204.981 113.965 211.615 113.965 211.615Z" fill="#009140"/>
<path d="M202.242 20.7201C208.517 10.2543 223.579 3.9749 223.579 3.9749L242.824 3.30165M202.242 20.7201C213.119 20.7201 229.436 20.7201 240.314 20.7201M202.242 20.7201C198.895 20.7201 130.281 23.2318 126.934 23.2318M202.242 20.7201L240.314 20.7201M380.469 62.1644C379.767 59.6526 378.796 52.536 372.52 36.628C366.245 20.7201 350.765 1.46315 346.163 1.04452C341.56 0.625885 242.824 3.30165 242.824 3.30165M380.469 62.1644C381.172 64.6763 379.719 63.4442 381.306 65.5134M380.469 62.1644C380.796 63.4723 380.979 64.2056 381.306 65.5134M246.171 236.733L353.275 233.803C353.275 233.803 359.552 229.95 362.898 226.686C368.937 220.794 371.006 214.48 374.194 208.266C379.007 198.883 378.796 193.614 381.306 186.079C383.816 178.543 387.163 154.682 387.163 154.682L388 116.168C388 116.168 386.326 85.6077 381.306 65.5134M246.171 236.733C246.171 236.733 262.488 226.686 269.182 217.057C275.876 207.429 279.337 198.686 283.825 186.079C288.067 174.164 289.713 167.161 291.774 154.682C294.07 140.776 293.508 132.773 293.447 118.679C293.39 105.401 290.1 84.7704 290.1 84.7704C290.1 84.7704 286.335 64.6763 282.988 54.6291C279.641 44.5819 269.6 26.9995 264.998 20.7201C260.396 14.4407 242.824 3.30165 242.824 3.30165M246.171 236.733C246.171 236.733 249.936 236.733 243.661 236.733M246.171 236.733L243.661 236.733M240.314 20.7201C251.192 20.7201 262.069 36.628 262.069 36.628C262.069 36.628 270.018 49.6055 272.529 58.3967C275.039 67.1879 277.401 74.3405 279.641 84.7704C281.763 94.6506 283.825 106.12 283.825 110.307C283.825 114.493 282.988 144.216 282.988 144.216C282.988 144.216 282.57 160.124 279.641 170.589C276.712 181.055 271.692 190.684 271.692 190.684C271.692 190.684 265.074 202.159 258.304 207.429C253.969 210.803 246.171 214.546 246.171 214.546L202.242 216.22M202.242 216.22C202.242 216.22 205.589 223.756 215.211 231.291C224.834 238.826 237.385 236.733 243.661 236.733M202.242 216.22C202.242 216.22 156.344 217.568 126.934 217.895M126.934 217.895C120.24 219.151 113.965 211.615 113.965 211.615C113.965 211.615 109.231 204.981 107.271 200.731M126.934 217.895C139.067 211.615 141.577 204.08 141.577 204.08C141.577 204.08 147.76 190.649 150.782 181.474C154.431 170.389 154.271 163.808 155.802 152.17C157.934 135.961 157.476 110.307 157.476 110.307C157.476 110.307 155.889 82.6301 151.618 65.5134C148.74 53.9768 146.797 46.5987 140.322 36.628C135.662 29.4521 133.208 29.0476 126.934 23.2318M107.271 200.731C113.546 200.731 125.679 200.731 131.955 200.731M107.271 200.731C96.9773 200.731 95.3664 200.871 85.0967 201.568M107.271 200.731L131.955 200.731M131.955 200.731C138.23 200.731 141.159 186.079 141.159 186.079C141.159 186.079 144.91 165.333 143.251 152.17C142.11 143.121 140.632 138.362 138.23 129.564C136.973 124.959 131.955 121.61 131.955 121.61L83.4232 122.447M67.1066 129.564C67.1066 129.564 71.3498 124.667 75.0557 123.284C78.1328 122.136 83.4232 122.447 83.4232 122.447M67.1066 129.564L65.4331 133.75M67.1066 129.564L67.1066 123.284M65.4331 133.75L83.4232 133.75C83.4232 133.75 90.5338 137.936 91.3723 144.216M65.4331 133.75C65.4331 133.75 62.2646 133.84 57.9006 133.97M91.3723 144.216L42.8391 137.332M91.3723 144.216C91.7104 146.747 92.3195 150.979 92.8715 155.349M67.1066 191.521C67.1066 191.521 75.8925 191.521 82.5865 190.684C84.2207 190.479 85.6806 189.377 86.9659 187.778M67.1066 191.521C67.1066 191.521 65.2955 190.527 66.2698 192.777C67.8098 196.333 73.384 201.568 75.8925 201.568C78.4009 201.568 82.5883 201.568 85.0967 201.568M67.1066 191.521C67.1066 191.521 63.0893 191.521 57.9006 191.521M85.0967 201.568C91.3723 195.289 94.2809 190.154 97.2296 181.474C100.295 172.448 99.7398 157.193 99.7398 157.193C99.7398 157.193 99.387 145.951 96.3928 139.192C93.3377 132.296 83.4232 122.447 83.4232 122.447M126.934 23.2318C113.546 24.0691 108.944 36.628 108.944 36.628M108.944 36.628C108.944 36.628 108.944 38.0152 108.944 39.977M108.944 36.628L108.944 39.977M108.944 39.977C113.206 40.1765 126.516 39.977 131.118 39.977C135.72 39.977 138.464 50.6592 141.159 58.3967C143.854 66.1342 144.088 91.0498 141.159 100.678C138.23 110.307 133.628 117.005 133.628 117.005L84.26 117.842M108.944 39.977C96.6902 39.977 88.1307 40.1938 75.8925 40.8142M84.26 117.842C84.26 117.842 94.2463 106.891 97.2296 97.7479C101.134 85.7812 97.2296 65.5134 97.2296 65.5134C97.2296 65.5134 94.5654 51.8513 88.8621 46.675C84.6126 42.8183 81.5939 41.4541 75.8925 40.8142M84.26 117.842C84.26 117.842 78.8229 119.517 73.8006 117.842C71.4623 117.062 69.0341 115.058 67.1066 113.138M75.8925 40.8142C67.1066 43.3261 63.3412 51.28 63.3412 51.28M63.3412 51.28L82.5865 51.28C82.5865 51.28 88.8621 57.1408 90.5356 62.1644M63.3412 51.28C63.3412 51.28 46.7348 52.1172 38.2388 52.1172M90.5356 62.1644L42.8391 55.4064M90.5356 62.1644C91.4126 64.7971 92.336 68.4685 92.8715 72.6301M93.0458 84.7704C93.5244 80.5932 93.3579 76.4095 92.8715 72.6301M93.0458 84.7704L51.6268 72.6301M93.0458 84.7704C92.6306 88.3953 91.6835 92.4211 90.5356 96.0719M41.5858 109.469C38.3181 108.325 36.8026 106.814 34.055 104.865M41.5858 109.469C46.5998 109.132 53.273 108.974 57.9006 108.901M41.5858 109.469C44.3013 108.424 46.3911 105.501 47.803 102.835M49.9533 97.7478C49.9533 97.7478 50.2342 96.0343 50.5659 93.5616M49.9533 97.7478C49.9533 97.7478 49.219 100.162 47.803 102.835M49.9533 97.7478L45.7677 95.6648M51.6268 81.0027C51.6268 74.9537 50.9913 71.3011 49.1165 65.5134C48.7305 64.3217 48.2951 63.2084 47.803 62.1644M51.6268 81.0027L51.6268 72.6301M51.6268 81.0027C51.6268 81.6674 51.6095 82.37 51.5784 83.0959M51.6268 81.0027L45.7677 81.0027M38.2388 52.1172C34.9711 54.8965 34.0826 55.7575 32.3815 58.3967C31.3815 59.9481 30.5433 61.876 29.856 63.8389M38.2388 52.1172C39.9864 53.1176 41.5098 54.2016 42.8391 55.4064M27.361 87.2821C27.7803 88.7835 28.6789 94.3988 28.6789 94.3988M27.361 87.2821L31.9613 87.2821M27.361 87.2821C26.774 85.1802 26.5789 82.9892 26.5793 81.0027M34.055 104.865L19.7292 99.0038M34.055 104.865C32.5912 103.826 31.5052 102.312 30.708 100.756M63.3412 108.842C63.3412 108.842 82.5865 109.249 85.0967 107.376C85.6474 106.965 86.2889 106.085 86.9659 104.865M63.3412 108.842C63.3412 108.842 61.1141 108.851 57.9006 108.901M63.3412 108.842C63.3412 108.842 64.8941 110.934 67.1066 113.138M42.8409 191.521C47.3783 191.521 53.1337 191.521 57.9006 191.521M42.8409 191.521C44.43 189.287 45.6888 187.089 46.7076 184.823M42.8409 191.521C41.8153 192.106 40.8807 192.229 39.9104 192.138M50.79 153.844L94.0081 166.822M50.79 153.844C51.9692 157.679 52.1281 160.878 51.8354 163.891M50.79 153.844L45.7677 155.349M50.79 153.844C50.0708 151.505 49.7046 149.376 49.2398 147.384M38.2388 134.587C43.6315 134.398 51.8973 134.147 57.9006 133.97M38.2388 134.587C37.3524 135.167 36.508 135.815 35.7267 136.477M38.2388 134.587C40.0777 135.507 41.5888 136.419 42.8391 137.332M38.2388 134.587L35.7267 141.704L38.2388 145.89M38.2388 134.587L41.5858 141.704L44.0942 144.216M29.0345 177.287C29.7711 179.502 30.1993 181.716 30.708 183.726M29.0345 177.287L34.055 175.194L38.2387 173.938M29.0345 177.287C28.3768 175.31 27.9504 172.966 27.6789 170.589M29.0345 148.611C28.381 151.636 27.361 157.193 27.361 157.193C27.361 157.193 27.2172 159.458 27.2389 162.636M29.0345 148.611C22.3357 148.611 18.58 149.449 11.8811 149.449M29.0345 148.611C29.2233 147.738 29.4426 146.793 29.659 145.89M11.8811 149.449C9.36471 147.802 7.38564 145.215 5.98537 142.91M11.8811 149.449C16.2675 147.512 19.3808 144.063 21.123 141.704M11.8812 93.5615C18.4411 93.5615 28.6789 94.3988 28.6789 94.3988M11.8812 93.5615C8.61345 96.0138 7.69561 94.3988 4.35041 100.678C3.73192 101.839 3.23129 102.94 2.8254 104.008M11.8812 93.5615C13.495 94.1826 14.8758 94.8848 16.0631 95.6648M28.6789 94.3988C28.6789 94.3988 29.1214 97.6593 30.708 100.756M28.6789 94.3988L34.055 92.2304M42.8391 55.4064C44.9383 57.309 46.5533 59.513 47.803 62.1644M42.8391 55.4064L38.6553 57.5595L36.9818 62.1644M92.8715 72.6301L47.803 62.1644M47.803 62.1644L39.9114 63.8389M51.6268 72.6301L45.7677 73.886M90.5356 96.0719L51.5784 83.0959M90.5356 96.0719C89.4333 99.5775 88.1458 102.737 86.9659 104.865M51.5784 83.0959C51.5208 84.4421 51.4158 85.8685 51.2858 87.2821M86.9659 104.865L50.5659 93.5616M50.5659 93.5616C50.8088 91.7506 51.079 89.5325 51.2858 87.2821M57.9006 108.901L47.803 102.835M47.803 102.835L39.9105 100.756L34.055 97.7478L30.708 100.756M19.7292 99.0038C21.1594 100.834 22.0815 102.925 22.7589 105.256M19.7292 99.0038L16.0631 102.835L18.155 106.958M19.7292 99.0038C18.765 97.77 17.5699 96.6547 16.0631 95.6648M24.0945 111.563C24.34 113.034 24.5781 114.57 24.8508 116.168C25.025 117.188 25.1332 118.273 25.1881 119.392M24.0945 111.563L67.1066 123.284M24.0945 111.563C23.7175 109.303 23.3231 107.196 22.7589 105.256M24.0945 111.563L18.9917 114.074M67.1066 123.284L67.1066 113.138M57.9006 133.97L25.1881 123.284M25.1881 123.284C25.0256 127.114 24.4423 130.998 23.888 133.969M25.1881 123.284L18.5346 127.68M25.1881 123.284C25.2439 121.967 25.25 120.657 25.1881 119.392M23.888 133.969C23.3075 137.081 22.7589 139.192 22.7589 139.192C22.7589 139.192 22.2057 140.238 21.123 141.704M23.888 133.969L35.7267 136.477M23.888 133.969L19.7292 136.477M35.7267 136.477C32.7637 138.988 30.708 141.704 30.708 141.704C30.708 141.704 30.1921 143.668 29.659 145.89M42.8391 137.332C45.8947 139.564 47.3924 141.807 48.31 144.216M92.8715 155.349L48.31 144.216M92.8715 155.349C93.3952 159.494 93.8674 163.763 94.0081 166.822M48.31 144.216C48.6995 145.238 48.9845 146.29 49.2398 147.384M48.31 144.216L44.0942 144.216M94.0081 166.822C94.087 168.537 94.0616 169.871 93.8826 170.589C93.5398 171.964 92.703 175.455 91.3723 179.152M91.3723 179.152L51.5784 165.885M91.3723 179.152C90.2529 182.261 88.784 185.516 86.9659 187.778M51.5784 165.885C51.4184 166.899 51.2201 167.903 51.0066 168.915M51.5784 165.885C51.6823 165.227 51.7701 164.564 51.8354 163.891M49.2398 177.287C49.5018 176.206 49.7373 175.093 49.9532 173.938C50.28 172.192 50.6631 170.543 51.0066 168.915M49.2398 177.287C48.5931 179.956 47.7845 182.427 46.7076 184.823M49.2398 177.287L46.7076 179.152M49.2398 177.287L68.1028 182.533L86.9659 187.778M57.9006 191.521L46.7076 184.823M46.7076 184.823L39.9104 182.73M39.9104 192.138C39.0009 192.052 38.0601 191.778 36.9836 191.521C32.899 190.544 31.6621 187.495 30.708 183.726M39.9104 192.138L39.9104 182.73M39.9104 182.73L35.7267 181.474L30.708 183.726M38.2387 173.938L42.8409 170.589L45.7677 173.52M38.2387 173.938L41.5857 179.152L46.7076 179.152M45.7677 173.52L45.7677 170.589L46.7076 168.915M45.7677 173.52L46.7076 179.152M46.7076 168.915L45.7677 162.636M46.7076 168.915L51.0066 168.915M45.7677 162.636L51.8354 163.891M45.7677 162.636L45.7677 155.349M45.7677 162.636L39.9114 165.775M31.9613 168.915L34.055 168.915L39.9114 165.775M31.9613 168.915L27.6789 170.589M31.9613 168.915L30.708 162.636M27.6789 170.589C27.3605 167.803 27.2549 164.973 27.2389 162.636M45.7677 155.349L39.9105 157.193L35.7267 153.844M45.7677 155.349L42.8391 149.449M45.7677 155.349L36.9818 159.873M30.708 162.636L31.9613 161.38L34.055 161.38L36.9818 159.873M30.708 162.636L27.2389 162.636M30.708 162.636L30.708 155.349L35.7267 153.844M35.7267 153.844L42.8391 149.449M42.8391 149.449L49.2398 147.384M42.8391 149.449L41.5858 147.384M29.659 145.89L34.055 148.611L38.2388 145.89M38.2388 145.89L44.0942 144.216M38.2388 145.89L41.5858 147.384M44.0942 144.216L41.5858 147.384M39.9114 165.775L36.9818 159.873M10.6242 147.384L13.1345 144.216L10.6242 137.936M10.6242 137.936L7.27723 141.704L5.98537 142.91M10.6242 137.936L21.123 141.704M10.6242 137.936L11.8811 132.076M10.6242 137.936L7.27723 133.75M5.98537 142.91C4.3592 140.233 3.51365 137.936 3.51365 137.936C3.51365 137.936 3.21593 136.623 2.8254 134.587M21.123 141.704L19.7292 136.477M19.7292 136.477L11.8811 132.076M19.7292 136.477L18.5346 127.68M11.8811 132.076L7.72693 129.564M11.8811 132.076L18.5346 127.68M7.27723 133.75L2.8254 134.587M7.27723 133.75L8.11398 130.401L7.72693 129.564M2.8254 134.587C2.38528 132.293 1.82729 129.081 1.44478 125.796M5.98538 125.796L19.7292 121.61M5.98538 125.796L1.44478 125.796M5.98538 125.796L7.72693 129.564M19.7292 121.61L18.9917 114.074M19.7292 121.61L25.1881 119.392M18.9917 114.074L18.155 106.958M18.9917 114.074L13.1345 116.419M4.35041 119.935L5.98538 111.563M4.35041 119.935L1.07333 121.61M4.35041 119.935L13.1345 116.419M5.98538 111.563L8.11399 102.835M5.98538 111.563L1.21871 111.563M5.98538 111.563L11.5172 109.469M18.155 106.958L22.7589 105.256M18.155 106.958L13.1345 104.865L11.8812 100.678L16.0631 95.6648M18.155 106.958L11.5172 109.469M16.0631 95.6648L10.6242 99.0038L8.11399 102.835M8.11399 102.835L11.8812 102.835M8.11399 102.835L2.8254 104.008M2.8254 104.008C1.84732 106.581 1.41947 108.967 1.21871 111.563M1.21871 111.563C1.05217 113.715 1.04189 116.012 1.00341 118.679C0.99 119.609 1.01645 120.595 1.07333 121.61M1.07333 121.61C1.14979 122.974 1.28125 124.392 1.44478 125.796M13.1345 116.419L11.5172 109.469M45.7677 95.6648L44.0942 87.2821M45.7677 95.6648L39.9114 94.3988L36.9818 91.0498M44.0942 87.2821L36.9818 91.0498M44.0942 87.2821L45.7677 87.2821M51.2858 87.2821L45.7677 87.2821M36.9818 91.0498L34.055 92.2304M34.055 92.2304L31.9613 87.2821M31.9613 87.2821L45.7677 81.0027M31.9613 87.2821L30.708 79.3282M45.7677 81.0027L45.7677 87.2821M45.7677 81.0027L45.7677 73.886M45.7677 73.886L41.7649 68.2345M45.7677 73.886L38.2379 76.6071M30.708 79.3282L30.708 72.6301M30.708 79.3282L26.5793 81.0027M30.708 79.3282L38.2379 76.6071M30.708 72.6301L34.89 71.2348M30.708 72.6301L27.9099 70.9556M47.803 65.5134L41.7649 68.2345M41.7649 68.2345L39.9114 63.8389M41.7649 68.2345L36.9818 70.39M39.9114 63.8389L36.9818 62.1644M36.9818 62.1644L34.89 64.6762M34.89 64.6762L29.856 63.8389M34.89 64.6762L34.89 71.2348M29.856 63.8389C28.9574 66.4055 28.3168 69.032 27.9099 70.9556M34.89 71.2348L35.7267 70.9556L36.9818 70.39M27.9099 70.9556C27.5378 72.7147 27.361 73.886 27.361 73.886C27.361 73.886 26.5803 77.0368 26.5793 81.0027M38.2379 76.6071L36.9818 70.39" stroke="#009140" stroke-width="2"/>
</svg>
