<svg width="20" height="20" viewBox="0 0 20 20" fill="none" xmlns="http://www.w3.org/2000/svg">
<path d="M10 0L10.5402 1.45982L12 2L10.5402 2.54018L10 4L9.45982 2.54018L8 2L9.45982 1.45982L10 0Z" fill="#E25319"/>
<path d="M6 4L6.54018 5.45982L8 6L6.54018 6.54018L6 8L5.45982 6.54018L4 6L5.45982 5.45982L6 4Z" fill="#E25319"/>
<path d="M10 4L10.5402 5.45982L12 6L10.5402 6.54018L10 8L9.45982 6.54018L8 6L9.45982 5.45982L10 4Z" fill="#E25319"/>
<path d="M14 4L14.5402 5.45982L16 6L14.5402 6.54018L14 8L13.4598 6.54018L12 6L13.4598 5.45982L14 4Z" fill="#E25319"/>
<path d="M2 8L2.54018 9.45982L4 10L2.54018 10.5402L2 12L1.45982 10.5402L0 10L1.45982 9.45982L2 8Z" fill="#E25319"/>
<path d="M6 8L6.54018 9.45982L8 10L6.54018 10.5402L6 12L5.45982 10.5402L4 10L5.45982 9.45982L6 8Z" fill="#E25319"/>
<path d="M10 8L10.5402 9.45982L12 10L10.5402 10.5402L10 12L9.45982 10.5402L8 10L9.45982 9.45982L10 8Z" fill="#E25319"/>
<path d="M14 8L14.5402 9.45982L16 10L14.5402 10.5402L14 12L13.4598 10.5402L12 10L13.4598 9.45982L14 8Z" fill="#E25319"/>
<path d="M18 8L18.5402 9.45982L20 10L18.5402 10.5402L18 12L17.4598 10.5402L16 10L17.4598 9.45982L18 8Z" fill="#E25319"/>
<path d="M6 12L6.54018 13.4598L8 14L6.54018 14.5402L6 16L5.45982 14.5402L4 14L5.45982 13.4598L6 12Z" fill="#E25319"/>
<path d="M10 12L10.5402 13.4598L12 14L10.5402 14.5402L10 16L9.45982 14.5402L8 14L9.45982 13.4598L10 12Z" fill="#E25319"/>
<path d="M14 12L14.5402 13.4598L16 14L14.5402 14.5402L14 16L13.4598 14.5402L12 14L13.4598 13.4598L14 12Z" fill="#E25319"/>
<path d="M10 16L10.5402 17.4598L12 18L10.5402 18.5402L10 20L9.45982 18.5402L8 18L9.45982 17.4598L10 16Z" fill="#E25319"/>
</svg>
