<svg width="36" height="36" viewBox="0 0 36 36" fill="none" xmlns="http://www.w3.org/2000/svg">
<path d="M24.285 3H11.715C6.255 3 3 6.255 3 11.715V24.27C3 29.745 6.255 33 11.715 33H24.27C29.73 33 32.985 29.745 32.985 24.285V11.715C33 6.255 29.745 3 24.285 3ZM22.185 18.795L16.89 24.09C16.665 24.315 16.38 24.42 16.095 24.42C15.81 24.42 15.525 24.315 15.3 24.09C14.865 23.655 14.865 22.935 15.3 22.5L19.8 18L15.3 13.5C14.865 13.065 14.865 12.345 15.3 11.91C15.735 11.475 16.455 11.475 16.89 11.91L22.185 17.205C22.635 17.64 22.635 18.36 22.185 18.795Z" fill="#F8F8F8"/>
</svg>
