<svg width="70" height="70" viewBox="0 0 70 70" fill="none" xmlns="http://www.w3.org/2000/svg">
<path d="M12.425 32.1416V46.6375C12.425 51.9458 12.425 51.9458 17.4417 55.3291L31.2375 63.2916C33.3084 64.4875 36.6917 64.4875 38.7625 63.2916L52.5584 55.3291C57.575 51.9458 57.575 51.9458 57.575 46.6375V32.1416C57.575 26.8333 57.575 26.8333 52.5584 23.45L38.7625 15.4875C36.6917 14.2916 33.3084 14.2916 31.2375 15.4875L17.4417 23.45C12.425 26.8333 12.425 26.8333 12.425 32.1416Z" stroke="#001D0D" stroke-width="2" stroke-linecap="round" stroke-linejoin="round"/>
<path d="M51.0417 22.2541V14.5833C51.0417 8.74992 48.125 5.83325 42.2917 5.83325H27.7084C21.875 5.83325 18.9584 8.74992 18.9584 14.5833V22.0499" stroke="#001D0D" stroke-width="2" stroke-linecap="round" stroke-linejoin="round"/>
<path d="M36.8376 32.0541L38.5001 34.6499C38.7626 35.0582 39.3459 35.4666 39.7834 35.5832L42.7584 36.3416C44.5959 36.8082 45.0917 38.3832 43.8959 39.8416L41.9417 42.2041C41.6501 42.5832 41.4167 43.2541 41.4459 43.7207L41.6209 46.7832C41.7376 48.6791 40.3959 49.6416 38.6459 48.9416L35.7876 47.8041C35.3501 47.6291 34.6209 47.6291 34.1834 47.8041L31.3251 48.9416C29.5751 49.6416 28.2334 48.6499 28.3501 46.7832L28.5251 43.7207C28.5542 43.2541 28.3209 42.5541 28.0292 42.2041L26.075 39.8416C24.8792 38.3832 25.3751 36.8082 27.2126 36.3416L30.1876 35.5832C30.6542 35.4666 31.2376 35.0291 31.4709 34.6499L33.1334 32.0541C34.1834 30.4791 35.8167 30.4791 36.8376 32.0541Z" stroke="#001D0D" stroke-width="2" stroke-linecap="round" stroke-linejoin="round"/>
</svg>
