<svg width="50" height="60" viewBox="0 0 50 60" fill="none" xmlns="http://www.w3.org/2000/svg">
<path d="M41.8225 11.6191H7.6779C7.31369 11.6191 6.96439 11.7616 6.70685 12.0153C6.44931 12.2689 6.30463 12.6129 6.30463 12.9716C6.30463 13.3303 6.44931 13.6743 6.70685 13.9279C6.96439 14.1816 7.31369 14.324 7.6779 14.324H41.8225C42.1867 14.324 42.536 14.1816 42.7935 13.9279C43.0511 13.6743 43.1957 13.3303 43.1957 12.9716C43.1957 12.6129 43.0511 12.2689 42.7935 12.0153C42.536 11.7616 42.1867 11.6191 41.8225 11.6191Z" fill="#001D0D"/>
<path d="M39.0759 22.3157C39.4292 22.2999 39.7627 22.1505 40.0069 21.8985C40.2511 21.6466 40.3871 21.3116 40.3868 20.9633C40.4004 20.6216 40.2772 20.2884 40.0436 20.0354C39.8101 19.7824 39.485 19.6299 39.1383 19.6108H7.55306C7.21143 19.643 6.89423 19.7993 6.66338 20.0494C6.43254 20.2995 6.30463 20.6253 6.30463 20.9633C6.30463 21.3013 6.43254 21.6271 6.66338 21.8772C6.89423 22.1273 7.21143 22.2836 7.55306 22.3157H39.0759Z" fill="#001D0D"/>
<path d="M26.7789 27.6641H7.6779C7.31369 27.6641 6.96439 27.8066 6.70685 28.0602C6.44931 28.3138 6.30463 28.6578 6.30463 29.0165C6.30463 29.3752 6.44931 29.7192 6.70685 29.9728C6.96439 30.2265 7.31369 30.369 7.6779 30.369H26.7789C27.1431 30.369 27.4924 30.2265 27.7499 29.9728C28.0075 29.7192 28.1522 29.3752 28.1522 29.0165C28.1522 28.6578 28.0075 28.3138 27.7499 28.0602C27.4924 27.8066 27.1431 27.6641 26.7789 27.6641Z" fill="#001D0D"/>
<path d="M49.9996 6.70722C50.0088 5.82446 49.8391 4.94877 49.5005 4.13137C49.1619 3.31397 48.6612 2.57129 48.0276 1.94676C47.3941 1.32224 46.6404 0.828422 45.8108 0.494201C44.9811 0.15998 44.0921 -0.00793243 43.1957 0.000287862H6.99122C6.07266 -0.0013319 5.16281 0.175654 4.31386 0.521094C3.4649 0.866535 2.69354 1.37363 2.04402 2.01331C1.3945 2.65298 0.879594 3.41264 0.528836 4.24873C0.178077 5.08481 -0.00163351 5.98087 1.11877e-05 6.8855V53.1148C0.0253896 54.9225 0.761611 56.6501 2.05383 57.9342C3.34605 59.2183 5.09355 59.9588 6.9288 60H43.0084C43.927 60.0016 44.8368 59.8246 45.6858 59.4792C46.5348 59.1337 47.3061 58.6266 47.9556 57.987C48.6052 57.3473 49.1201 56.5876 49.4708 55.7515C49.8216 54.9155 50.0013 54.0194 49.9996 53.1148V6.70722ZM47.2531 7.56173V53.1148C47.2581 53.6651 47.1517 54.2109 46.9402 54.7203C46.7286 55.2297 46.4162 55.6925 46.021 56.0817C45.6259 56.4708 45.1559 56.7786 44.6387 56.9869C44.1215 57.1952 43.5672 57.3 43.0084 57.2951H6.55427C6.36485 57.3051 6.17505 57.2843 5.99248 57.2336C5.06488 57.0192 4.23864 56.5011 3.64897 55.764C3.05931 55.027 2.74115 54.1146 2.74656 53.1763V6.8855C2.74156 6.33516 2.84794 5.78936 3.05949 5.27996C3.27103 4.77056 3.5835 4.30777 3.97865 3.91861C4.37381 3.52945 4.84372 3.22171 5.36097 3.01338C5.87821 2.80504 6.43241 2.70027 6.99122 2.70519H43.0084C43.5672 2.70027 44.1215 2.80504 44.6387 3.01338C45.1559 3.22171 45.6259 3.52945 46.021 3.91861C46.4162 4.30777 46.7286 4.77056 46.9402 5.27996C47.1517 5.78936 47.2581 6.33516 47.2531 6.8855V7.56173Z" fill="#001D0D"/>
<path d="M42.0909 42.2952L42.5091 41.0104C42.5818 40.7895 42.5818 40.5516 42.5089 40.3308C42.436 40.1099 42.2941 39.9175 42.1034 39.7809L40.9922 38.9817L40.5678 37.6969C40.4961 37.4753 40.3546 37.2819 40.1638 37.1448C39.973 37.0077 39.7428 36.9341 39.5066 36.9346H38.1396L37.016 36.1477C36.8248 36.0103 36.5942 35.9363 36.3575 35.9363C36.1207 35.9363 35.8901 36.0103 35.6989 36.1477L34.5878 36.9407H33.2145C32.9786 36.9412 32.7488 37.0152 32.5582 37.1521C32.3676 37.2891 32.2259 37.4819 32.1534 37.703L31.7289 38.994L30.6116 39.7748C30.4208 39.9113 30.2789 40.1038 30.206 40.3246C30.1331 40.5455 30.1331 40.7834 30.2058 41.0043L30.649 42.2952L30.2245 43.5862C30.1518 43.8071 30.1519 44.045 30.2247 44.2658C30.2976 44.4867 30.4396 44.6791 30.6303 44.8157L31.7414 45.6149L32.1658 46.8997C32.2383 47.1208 32.3801 47.3137 32.5707 47.4506C32.7613 47.5876 32.9911 47.6616 33.227 47.662H34.6003L35.7051 48.4427C35.8964 48.5801 36.127 48.6542 36.3637 48.6542C36.6004 48.6542 36.831 48.5801 37.0222 48.4427L38.1396 47.662H39.5129C39.7488 47.6616 39.9786 47.5876 40.1692 47.4506C40.3598 47.3137 40.5015 47.1208 40.574 46.8997L40.9985 45.6087L42.1096 44.8157C42.3003 44.6791 42.4423 44.4867 42.5151 44.2658C42.588 44.045 42.5881 43.8071 42.5153 43.5862L42.0909 42.2952ZM40.8924 42.6333L41.3044 43.8628L40.2369 44.6313C40.045 44.7681 39.9027 44.9621 39.8312 45.1846L39.4192 46.4141H38.0896C37.8542 46.4136 37.6247 46.4868 37.4342 46.6231L36.3668 47.3915L35.2994 46.6231C35.1089 46.4868 34.8794 46.4136 34.644 46.4141H33.3082L32.8962 45.1846C32.8235 44.9643 32.6814 44.7726 32.4904 44.6374L31.423 43.869L31.835 42.6395C31.9076 42.4176 31.9076 42.179 31.835 41.9571L31.423 40.7276L32.5217 39.9469C32.7133 39.8098 32.8555 39.6159 32.9274 39.3936L33.3394 38.1641H34.6627C34.8981 38.1642 35.1275 38.091 35.3181 37.9551L36.3855 37.1866L37.4592 37.9551C37.641 38.0854 37.8587 38.1582 38.0834 38.1641H39.388L39.8 39.3936C39.8719 39.6159 40.0141 39.8098 40.2057 39.9469L41.2731 40.7153L40.8674 41.9448C40.7991 42.1704 40.8057 42.4116 40.8861 42.6333H40.8924Z" fill="#001D0D"/>
<path d="M34.6814 49.0574C34.5873 49.0488 34.4935 49.0767 34.42 49.1353C34.3465 49.1939 34.2992 49.2785 34.2882 49.371L33.9574 52.5369L33.7014 52.3218C33.656 52.2849 33.6022 52.2594 33.5445 52.2476C33.4869 52.2358 33.4272 52.2381 33.3706 52.2541L32.5217 52.4939L34.0635 49.1681C34.0751 49.0926 34.0618 49.0155 34.0256 48.948C33.9893 48.8805 33.9321 48.8262 33.8622 48.7932C33.7923 48.7601 33.7135 48.7501 33.6374 48.7644C33.5612 48.7788 33.4918 48.8169 33.4393 48.873L31.5666 52.8935C31.5398 52.9548 31.5311 53.0224 31.5414 53.0884C31.5517 53.1544 31.5806 53.2162 31.6249 53.2669C31.6691 53.3175 31.7269 53.3548 31.7916 53.3747C31.8564 53.3945 31.9255 53.3961 31.9911 53.3791L33.3893 52.9919L34.0135 53.5205C34.0637 53.5621 34.1244 53.5895 34.1891 53.5998C34.2539 53.61 34.3203 53.6028 34.3811 53.5788C34.442 53.5548 34.4952 53.515 34.5349 53.4636C34.5746 53.4122 34.5993 53.3511 34.6065 53.2869L35.0185 49.457C35.0246 49.4087 35.0205 49.3597 35.0066 49.313C34.9927 49.2663 34.9693 49.2229 34.9377 49.1855C34.9061 49.148 34.8671 49.1174 34.823 49.0954C34.7789 49.0733 34.7308 49.0604 34.6814 49.0574Z" fill="#001D0D"/>
<path d="M38.8699 48.4426C38.8408 48.3966 38.8028 48.3567 38.758 48.3251C38.7133 48.2936 38.6626 48.271 38.609 48.2588C38.5554 48.2465 38.4999 48.2447 38.4456 48.2536C38.3912 48.2625 38.3392 48.2818 38.2925 48.3105C38.2458 48.3391 38.2053 48.3766 38.1732 48.4206C38.1412 48.4647 38.1183 48.5146 38.1058 48.5674C38.0934 48.6202 38.0916 48.6749 38.1006 48.7284C38.1096 48.7819 38.1292 48.8331 38.1583 48.8791L39.8749 51.584L39.2507 51.4979C39.1823 51.4878 39.1124 51.4942 39.0472 51.5167C38.9819 51.5392 38.9232 51.5771 38.8762 51.627L38.7763 51.7315L38.1396 49.0574C38.1139 48.9506 38.0462 48.8582 37.9514 48.8006C37.8566 48.7429 37.7424 48.7247 37.634 48.75C37.5255 48.7753 37.4317 48.8419 37.3732 48.9353C37.3147 49.0287 37.2962 49.1412 37.3219 49.2479L38.1396 52.7028C38.1568 52.7769 38.1945 52.8448 38.2485 52.899C38.3025 52.9532 38.3707 52.9917 38.4455 53.0102H38.5516C38.6103 53.0105 38.6685 52.9986 38.7223 52.9753C38.776 52.952 38.8242 52.9178 38.8637 52.875L39.3443 52.3524L40.624 52.5369C40.7033 52.5475 40.7841 52.5359 40.857 52.5032C40.9299 52.4706 40.9919 52.4183 41.0359 52.3524C41.08 52.2856 41.1035 52.2077 41.1035 52.1281C41.1035 52.0484 41.08 51.9705 41.0359 51.9037L38.8699 48.4426Z" fill="#001D0D"/>
</svg>
