<svg width="50" height="60" viewBox="0 0 50 60" fill="none" xmlns="http://www.w3.org/2000/svg">
<path d="M43.3809 1.1018e-05H6.99995C6.08234 -0.00160504 5.1734 0.174569 4.32501 0.518475C3.47663 0.862381 2.70542 1.36728 2.05541 2.00435C1.40541 2.64142 0.889337 3.39819 0.536668 4.23143C0.184 5.06468 0.00164004 5.9581 0 6.86066L0 53.1147C0.0248269 54.9121 0.753307 56.6309 2.03385 57.9133C3.31439 59.1958 5.04837 59.9432 6.87495 60H42.9997C43.9173 60.0016 44.8262 59.8254 45.6746 59.4815C46.523 59.1376 47.2942 58.6327 47.9442 57.9956C48.5942 57.3586 49.1103 56.6018 49.463 55.7686C49.8156 54.9353 49.998 54.0419 49.9996 53.1393V6.70698C50.0181 4.95658 49.333 3.26984 48.0935 2.01377C46.854 0.7577 45.1603 0.0339542 43.3809 1.1018e-05ZM26.8123 30.3689H7.68744C7.32277 30.3689 6.97304 30.2264 6.71518 29.9727C6.45732 29.7191 6.31245 29.3751 6.31245 29.0164C6.31245 28.6577 6.45732 28.3137 6.71518 28.0601C6.97304 27.8064 7.32277 27.6639 7.68744 27.6639H26.8123C27.177 27.6639 27.5267 27.8064 27.7846 28.0601C28.0424 28.3137 28.1873 28.6577 28.1873 29.0164C28.1873 29.3751 28.0424 29.7191 27.7846 29.9727C27.5267 30.2264 27.177 30.3689 26.8123 30.3689ZM6.28745 21.0922C6.27025 20.9141 6.28897 20.7345 6.34253 20.5635C6.3961 20.3926 6.48346 20.2337 6.5996 20.0961C6.71574 19.9584 6.85837 19.8447 7.01931 19.7614C7.18025 19.6781 7.35633 19.6269 7.53745 19.6107H39.1622C39.5093 19.6297 39.8348 19.7822 40.0687 20.0352C40.3025 20.2882 40.4259 20.6215 40.4122 20.9631C40.4126 21.3114 40.2763 21.6464 40.0318 21.8984C39.7873 22.1503 39.4534 22.2997 39.0997 22.3156H7.49995C7.18603 22.2789 6.8944 22.1375 6.67373 21.9148C6.45307 21.6922 6.31672 21.4018 6.28745 21.0922ZM34.6872 53.2869C34.6848 53.3571 34.6614 53.425 34.6198 53.4822C34.5783 53.5393 34.5205 53.5831 34.4537 53.6081C34.387 53.6331 34.3142 53.638 34.2445 53.6225C34.1749 53.6069 34.1115 53.5714 34.0623 53.5205L33.4373 52.9918L32.0373 53.3791C31.9716 53.396 31.9024 53.3945 31.8376 53.3746C31.7727 53.3548 31.7149 53.3174 31.6706 53.2668C31.6263 53.2162 31.5973 53.1543 31.587 53.0883C31.5767 53.0223 31.5855 52.9548 31.6123 52.8934L33.4873 48.8729C33.5273 48.8304 33.5772 48.7981 33.6327 48.7788C33.6883 48.7596 33.7477 48.7539 33.806 48.7623C34.1258 48.8439 34.4408 48.9424 34.7497 49.0574C34.8379 49.0791 34.915 49.1317 34.9667 49.2052C35.0185 49.2787 35.0413 49.3681 35.031 49.457L34.6872 53.2869ZM41.056 52.3524C41.0119 52.4183 40.9498 52.4706 40.8768 52.5032C40.8038 52.5359 40.7229 52.5475 40.6435 52.5369L39.3935 52.3524L38.9122 52.875C38.8727 52.9179 38.8245 52.9521 38.7706 52.9754C38.7168 52.9987 38.6585 53.0105 38.5997 53.0102H38.4935C38.4186 52.9918 38.3503 52.9533 38.2963 52.899C38.2422 52.8448 38.2045 52.7769 38.1872 52.7029L37.3997 49.2479C37.3754 49.142 37.3945 49.0309 37.4531 48.9388C37.5116 48.8467 37.6047 48.781 37.7122 48.7561C37.9372 48.7008 38.1747 48.4365 38.3685 48.3135C38.4157 48.2856 38.468 48.2671 38.5224 48.2592C38.5769 48.2512 38.6324 48.2538 38.6858 48.2669C38.7392 48.2801 38.7894 48.3034 38.8336 48.3357C38.8779 48.3679 38.9152 48.4085 38.9435 48.4549L41.081 51.916C41.1189 51.9837 41.1366 52.0606 41.1322 52.1377C41.1278 52.2149 41.1013 52.2893 41.056 52.3524ZM42.1934 44.8156L41.081 45.6086L40.6247 46.8996C40.5491 47.131 40.3978 47.3313 40.1942 47.4692C39.9907 47.6071 39.7465 47.6749 39.4997 47.6619H38.1247L37.0685 48.4426C36.877 48.58 36.6461 48.6541 36.4091 48.6541C36.1721 48.6541 35.9412 48.58 35.7497 48.4426L34.6122 47.6619H33.2373C33.001 47.6614 32.771 47.5874 32.5801 47.4505C32.3892 47.3136 32.2474 47.1207 32.1748 46.8996L31.7498 45.6147L30.6248 44.8156C30.4338 44.679 30.2917 44.4865 30.2187 44.2657C30.1458 44.0448 30.1457 43.8069 30.2185 43.5861L30.6248 42.2951L30.2185 41.0041C30.1457 40.7832 30.1458 40.5453 30.2187 40.3245C30.2917 40.1036 30.4338 39.9111 30.6248 39.7746L31.7373 38.9938L32.1623 37.7029C32.2349 37.4817 32.3767 37.2889 32.5676 37.1519C32.7585 37.015 32.9885 36.941 33.2248 36.9406H34.5997L35.7122 36.1475C35.9037 36.0101 36.1346 35.9361 36.3716 35.9361C36.6086 35.9361 36.8395 36.0101 37.031 36.1475L38.1247 36.9344H39.4935C39.7299 36.9339 39.9604 37.0075 40.1515 37.1446C40.3425 37.2817 40.4842 37.4751 40.556 37.6967L40.981 38.9816L42.0934 39.7807C42.2844 39.9173 42.4265 40.1098 42.4995 40.3306C42.5725 40.5515 42.5725 40.7894 42.4997 41.0102L42.1122 42.2951L42.5684 43.5861C42.6446 43.8038 42.6494 44.0396 42.5821 44.2602C42.5148 44.4807 42.3789 44.675 42.1934 44.8156ZM41.8747 14.3238H7.68744C7.32277 14.3238 6.97304 14.1813 6.71518 13.9276C6.45732 13.674 6.31245 13.33 6.31245 12.9713C6.31245 12.6126 6.45732 12.2686 6.71518 12.015C6.97304 11.7613 7.32277 11.6189 7.68744 11.6189H41.8747C42.2394 11.6189 42.5891 11.7613 42.847 12.015C43.1048 12.2686 43.2497 12.6126 43.2497 12.9713C43.2497 13.33 43.1048 13.674 42.847 13.9276C42.5891 14.1813 42.2394 14.3238 41.8747 14.3238Z" fill="#F8F8F8"/>
</svg>
