<svg width="363" height="379" viewBox="0 0 363 379" fill="none" xmlns="http://www.w3.org/2000/svg">
<path fill-rule="evenodd" clip-rule="evenodd" d="M155.401 143.684L174.709 136.798L179.274 135.173L190.585 131.128L195.917 129.209L216.711 121.806C225.248 118.801 235.19 121.459 244.706 129.295C263.769 144.869 275.799 177.03 271.522 200.993C269.322 213.262 263.345 221.699 254.682 224.76L233.037 232.467L227.656 234.398L193.65 246.523L194.884 239.783C199.652 235.719 202.198 228.968 203.236 222.946C204.309 217.052 204.333 210.564 203.308 203.634C201.766 192.562 197.59 181.128 191.543 171.404C191.488 171.34 191.438 171.268 191.394 171.195C184.869 160.75 173.18 148.271 160.614 147.987C160.596 147.987 160.579 147.988 160.562 147.989L160.555 147.99C160.541 147.991 160.526 147.992 160.512 147.991C160.621 148.093 160.727 148.203 160.833 148.312L155.401 143.684ZM195.393 168.439C192.57 163.94 189.489 160.028 186.228 156.635C181.066 151.262 174.752 146.448 167.578 144.323C168.403 144.084 169.08 143.816 169.728 143.56C171.659 142.796 173.326 142.137 177.877 142.668C177.928 142.679 177.98 142.693 178.032 142.701C183.765 143.454 189.062 146.548 193.421 150.138C211.297 164.736 222.597 194.954 218.615 217.505C217.031 225.934 213.203 234.582 205.018 237.423C204.613 237.562 203.672 237.92 202.982 238.182L202.981 238.183C202.73 238.278 202.512 238.361 202.365 238.416C204.725 234.933 206.902 229.825 207.974 223.627C209.136 217.249 209.168 210.247 208.069 202.834C206.435 191.087 201.985 178.942 195.542 168.647C195.498 168.575 195.448 168.503 195.393 168.439ZM196.559 146.452C192.526 143.132 187.959 140.353 182.869 138.877C183.216 138.78 183.616 138.625 184.079 138.445C185.742 137.801 188.225 136.839 192.058 137.083C197.405 137.439 203.186 140.057 208.768 144.653C226.691 159.295 238.006 189.496 233.996 211.981C232.468 220.495 228.099 229.365 220.388 231.933C220.034 232.05 219.274 232.342 218.628 232.592L218.359 232.695C218.106 232.794 217.886 232.879 217.738 232.935C220.03 229.518 222.124 224.76 223.347 218.212C227.595 194.159 215.576 161.977 196.559 146.452ZM253.176 220.299L248.498 221.958C248.695 221.666 248.872 221.349 249.05 221.031C249.149 220.855 249.248 220.678 249.35 220.506C251.878 216.239 253.342 211.379 254.075 207.185C258.347 183.243 246.323 151.063 227.283 135.452C227.238 135.416 227.193 135.388 227.149 135.352C222.465 131.553 217.531 129.04 213.656 127.893L218.217 126.267C225.078 123.853 233.372 126.232 241.561 132.975L241.568 132.981C259.484 147.617 270.798 177.817 266.786 200.301C264.912 210.769 260.076 217.856 253.176 220.299ZM211.906 140.967C207.443 137.292 202.793 134.725 198.213 133.384C198.743 133.196 199.157 133.046 199.521 132.914L199.522 132.914C200.149 132.686 200.627 132.513 201.294 132.296C208.003 130.155 216.121 132.585 224.152 139.143C242.16 153.91 253.314 184.23 249.34 206.5C246.576 222.311 238.041 225.588 236.109 226.33C235.895 226.412 235.762 226.463 235.727 226.496L235.718 226.502L233.088 227.446C235.766 223.504 237.684 218.508 238.732 212.673C243.004 188.708 230.972 156.539 211.906 140.967Z" fill="#009140"/>
<path fill-rule="evenodd" clip-rule="evenodd" d="M233.037 232.467L227.656 234.398C240.326 244.606 253.732 248.155 264.991 244.492C265.064 244.488 265.117 244.487 265.163 244.487C265.19 244.487 265.214 244.486 265.239 244.485C265.474 244.476 265.709 244.392 268.202 243.498C270.818 242.56 275.921 240.731 286.122 237.161C297.992 232.982 306.171 221.399 309.141 204.565C315.078 171.146 298.333 126.329 271.808 104.665C258.66 93.8936 245.022 90.219 233.411 94.3173C219.937 99.1027 215.309 100.695 213.717 101.242L213.716 101.243C212.927 101.514 212.886 101.528 212.882 101.548C212.881 101.562 212.878 101.589 212.65 101.706C199.982 106.28 193.463 118.272 190.585 131.128L195.917 129.209C199.276 116.98 205.92 108.783 214.883 105.867C236.231 98.9185 258.156 121.764 268.671 140.188C273.935 148.533 280.194 164.029 282.49 175.478L282.537 175.69L282.59 175.934C285.757 190.586 286.494 208.115 280.743 222.291C277.722 229.793 272.562 236.568 264.963 239.572C255.686 243.246 244.236 240.694 233.037 232.467ZM304.402 203.883C301.753 218.906 294.726 229.142 284.62 232.698L279.128 234.641C280.967 232.346 283.75 227.447 284.887 224.781C287.84 217.799 289.371 209.516 289.761 202.028C290.148 192.426 289.257 183.584 287.25 174.613C284.976 162.71 278.232 146.228 272.827 137.684C265.248 124.31 247.118 104.377 229.568 100.661L234.908 98.7823C244.859 95.2701 256.854 98.6702 268.678 108.357C294.052 129.086 310.08 171.934 304.402 203.883Z" fill="#E25319"/>
<path fill-rule="evenodd" clip-rule="evenodd" d="M76.4956 197.684C77.8161 197.492 79.0073 198.394 79.1616 199.69C82.4234 227.398 96.6043 255.165 115.292 270.431C127.164 280.151 143.521 286.124 155.647 276.416C176.479 261.089 170.918 217.294 160.664 194.282C152.963 175.599 143.371 165.591 140.201 162.283C139.695 161.756 139.353 161.399 139.208 161.204C129.486 150.976 114.584 141.799 99.943 145.89L99.9224 145.902L99.9011 145.913C90.3395 148.981 83.3429 158.189 80.2088 171.863C79.9238 173.128 78.629 173.984 77.3323 173.731C76.0355 173.477 75.2257 172.229 75.5226 170.943C78.4175 158.311 85.0382 146.452 97.3643 141.878C97.4876 141.8 97.524 141.761 97.5505 141.733L97.5652 141.717C97.6299 141.653 97.7262 141.62 99.0975 141.151C101.17 140.441 106.153 138.733 118.334 134.416C129.49 130.411 142.602 133.737 155.401 143.684L160.833 148.312C160.926 148.409 161.02 148.505 161.116 148.597C165.927 153.182 170.884 159.128 175.266 165.831C182.346 176.658 188.172 189.588 191.708 203.482C194.616 214.902 196.078 228.076 194.761 239.876C194.78 239.86 194.801 239.845 194.822 239.83C194.843 239.815 194.864 239.8 194.884 239.783L193.65 246.523C190.414 262.334 182.458 273.23 171.054 277.213L165.402 279.206C160.307 281.002 154.189 283.16 150.643 284.411C138.971 288.539 125.303 284.882 112.16 274.121C92.6056 258.148 77.7766 229.198 74.3837 200.372C74.2309 199.076 75.1798 197.869 76.4956 197.684ZM189.245 244.394C186.537 259.203 179.543 269.265 169.562 272.745L164.107 274.67C164.389 274.321 165.314 273.058 165.628 272.592C176.997 256.813 176.23 228.005 171.11 210.029C165.432 184.902 141.769 145.711 115.406 140.956C115.113 140.88 114.816 140.807 114.509 140.744C114.904 140.714 115.557 140.455 116.457 140.097C121.537 138.08 134.496 132.934 153.379 148.194C178.604 168.852 195.18 211.47 189.245 244.394Z" fill="#E25319"/>
<path d="M119.919 159.376L119.931 159.38C148.709 174.928 165.628 222.563 160.444 251.637C156.406 274.605 141.707 280.571 122.628 264.861C99.9668 246.336 85.0937 206.599 90.1451 178.096C93.4655 159.326 103.914 150.843 119.919 159.376ZM125.768 261.177C141.731 274.322 152.254 270.592 155.71 250.953C161.187 220.216 142.28 176.932 117.533 163.564C104.234 156.478 97.5441 163.706 94.8838 178.777C90.0871 205.831 104.228 243.563 125.768 261.177Z" fill="#E25319"/>
<path d="M77.1471 193.296C75.819 193.341 74.734 192.319 74.7272 191.01C74.7104 188.461 74.7964 185.948 74.9874 183.479C75.0849 182.188 76.2337 181.157 77.5699 181.222C78.8942 181.284 79.8857 182.394 79.7825 183.705C79.5986 186.045 79.5163 188.427 79.533 190.84C79.5465 192.149 78.4782 193.247 77.1471 193.296Z" fill="#E25319"/>
<path d="M127.165 200.638C133.515 205.867 137.522 216.605 136.091 224.598C134.717 231.781 129.09 233.698 123.468 229.069C117.104 223.896 113.094 213.156 114.521 205.159C115.758 197.698 121.307 195.814 127.165 200.638ZM119.264 205.819C118.133 212.144 121.557 221.282 126.602 225.381C129.749 227.972 130.738 227.179 131.36 223.88C132.484 217.605 129.054 208.463 124.021 204.318C120.842 201.701 119.821 202.465 119.264 205.819Z" fill="#E25319"/>
</svg>
