<svg width="746" height="1925" viewBox="0 0 746 1925" fill="none" xmlns="http://www.w3.org/2000/svg">
<path d="M553.312 191.443C553.874 193.429 555.17 1744.19 555.292 1893.05C555.298 1901.42 555.545 1909.09 560.459 1915.86C563.421 1919.94 567.054 1922.6 570.862 1923.62C573.246 1924.26 575.9 1924.32 578.301 1923.62C579.589 1923.25 580.33 1921.89 579.96 1920.6C579.588 1919.31 578.24 1918.58 576.955 1918.95C573.027 1920.09 568.294 1915.88 565.001 1912.15C562.382 1909.19 561.207 1905.72 561.155 1901.77C559.736 1793.75 558.799 196.378 558.725 192.778C558.301 189.5 558.725 191.664 557.984 190.11L553.312 191.443Z" fill="#009140" fill-opacity="0.2"/>
<path fill-rule="evenodd" clip-rule="evenodd" d="M437.937 198.136C439.129 197.514 439.588 196.041 438.971 194.849C425.75 169.386 421.44 137.382 427.992 113.311C432.142 98.002 442.115 83.2072 457.616 84.2406C483.471 84.8692 504.036 125.356 508.835 150.989C513.244 171.429 511.126 185.628 510.427 190.321C510.315 191.069 510.24 191.576 510.232 191.827C508.136 206.29 501.193 222.94 486.852 228.17L486.829 228.173L486.805 228.176C477.213 231.256 466.2 227.597 455.79 217.851C454.831 216.947 453.279 216.989 452.362 217.975C451.445 218.961 451.498 220.503 452.479 221.418C462.095 230.422 474.321 236.554 487.041 233.11C487.187 233.103 487.239 233.114 487.277 233.122L487.298 233.127C487.388 233.143 487.486 233.113 488.878 232.697C490.983 232.068 496.043 230.555 508.499 226.979C519.934 223.748 528.767 213.129 533.547 197.075L535.341 189.917C535.362 189.78 535.383 189.642 535.41 189.507C536.721 182.754 537.371 174.759 537.116 166.463C536.705 153.063 534.062 138.622 528.988 124.724C524.821 113.299 518.461 101.246 510.614 92.0103C510.64 92.0126 510.665 92.0129 510.69 92.0132C510.717 92.0135 510.743 92.0138 510.769 92.0163L505.893 87.028C494.172 75.5282 481.406 71.0071 469.779 74.4053L464.007 76.073C458.803 77.5766 452.553 79.382 448.931 80.4272C437.002 83.8618 427.904 95.0916 423.31 112.04C416.454 137.226 420.911 170.62 434.666 197.11C435.284 198.301 436.754 198.762 437.937 198.136ZM540.703 77.1066L546.219 75.5469C550.673 61.9045 558.589 52.9307 568.295 50.5354C576.243 48.5683 584.355 51.2529 591.133 55.8256C603.975 64.4422 613.426 79.7631 619.235 94.0853L619.332 94.3235L619.415 94.5319C624.102 105.617 627.863 122.493 628.337 132.708C630.291 154.6 625.435 187.03 603.962 193.822C594.947 196.674 584.804 193.665 575.037 185.279L569.569 186.82C579.301 196.024 591.519 202.329 604.52 198.682C604.774 198.645 604.791 198.666 604.801 198.677C604.815 198.692 604.857 198.68 605.66 198.441C607.277 197.96 611.98 196.56 625.764 192.612C637.626 189.189 646.69 177.963 651.282 161.001C660.583 126.841 648.595 78.8364 624.563 53.9936C612.474 41.4678 599.131 36.4957 587.01 40.0045C576.606 43.0375 571.377 44.518 568.696 45.277C566.142 46.0001 565.901 46.0683 565.703 46.2001C565.682 46.2139 565.662 46.2283 565.64 46.2442C565.602 46.2711 565.558 46.3022 565.496 46.3416C554.172 49.9249 545.227 60.9073 540.703 77.1066ZM588.34 44.6861C598.658 41.6972 610.285 46.2097 621.072 57.3893C644.048 81.1389 655.496 127.045 646.6 159.728C642.471 174.981 634.595 184.998 624.429 187.932L618.978 189.512C631.222 175.924 634.64 148.222 633.178 132.363C632.705 121.896 628.775 103.893 623.811 92.4358C620.309 83.627 615.968 75.5902 610.143 67.6685C605.528 61.543 599.523 55.4215 593.099 51.2491C590.639 49.6615 585.55 47.1568 582.727 46.3016L588.34 44.6861ZM471.12 79.0848C481.293 76.1063 492.792 80.491 503.505 91.4536C527.251 115.877 538.117 161.915 529.303 194.448C522.588 218.629 509.021 221.964 503.702 223.272C502.76 223.503 502.077 223.671 501.736 223.88C501.951 223.645 502.153 223.405 502.349 223.167C521.217 203.458 518.121 156.118 508.361 131.41C502.244 113.105 486.349 88.1916 467.985 81.5537C467.461 81.3442 465.979 80.8217 465.547 80.6939L471.12 79.0848Z" fill="#E25319"/>
<path fill-rule="evenodd" clip-rule="evenodd" d="M533.547 197.075L553.312 191.443L557.984 190.11L569.569 186.82L575.037 185.279L596.317 179.202C605.034 176.679 611.653 168.512 614.954 156.203C621.636 131.647 613.044 97.1913 595.797 79.3898C586.957 70.2808 577.221 66.6714 568.369 69.2228L546.219 75.5469L540.703 77.1066L505.893 87.028L510.769 92.0163C517.005 92.6326 522.963 96.8508 527.268 101.346C531.527 105.711 535.269 111.206 538.404 117.699C543.491 128.015 546.629 140.206 547.253 152.056C547.244 152.143 547.245 152.234 547.25 152.321C547.897 165.069 545.479 182.612 535.348 190.323C535.332 190.335 535.315 190.346 535.298 190.356C535.286 190.364 535.274 190.371 535.262 190.38C535.293 190.228 535.317 190.073 535.341 189.917L533.547 197.075ZM552.107 152.284C552.375 157.782 552.095 162.935 551.369 167.754C550.223 175.385 547.812 183.225 543.155 189.294C543.968 189.006 544.676 188.831 545.353 188.664C547.373 188.164 549.117 187.733 552.54 184.576C552.576 184.536 552.61 184.494 552.649 184.457C556.913 180.409 559.477 174.633 560.989 168.994C567.259 145.974 559.183 113.602 542.986 96.8229C536.854 90.6083 528.758 85.5422 520.423 87.9956C520.012 88.1186 519.035 88.3742 518.319 88.5615C518.058 88.6297 517.832 88.6889 517.681 88.7293C521.612 90.2838 526.325 93.3264 530.758 97.9507C535.368 102.675 539.411 108.601 542.762 115.548C548.162 126.492 551.482 139.449 552.109 152.019C552.115 152.107 552.115 152.198 552.107 152.284ZM565.673 170.258C564.274 175.474 562.127 180.549 558.804 184.828C559.144 184.704 559.56 184.598 560.043 184.475C561.774 184.033 564.36 183.374 567.36 180.888C571.536 177.407 574.77 171.748 576.706 164.527C582.99 141.441 574.936 109.075 558.754 92.3694C552.619 86.0488 543.953 81.1155 536.163 83.5197C535.806 83.6307 535.016 83.8349 534.344 84.0068L534.064 84.0782C533.8 84.1456 533.571 84.204 533.418 84.2442C537.255 85.7826 541.7 88.5771 546.457 93.4096C563.733 111.305 572.346 145.772 565.673 170.258ZM569.694 73.9055L564.911 75.2777C565.24 75.4088 565.567 75.5725 565.894 75.7362C566.077 75.8274 566.259 75.9185 566.442 76.0041C570.96 78.1232 574.947 81.38 577.953 84.5043C595.184 102.292 603.793 136.76 597.15 161.333C597.135 161.39 597.114 161.44 597.098 161.497C595.44 167.507 592.84 172.574 590.324 175.851L594.993 174.52C601.997 172.491 607.427 165.54 610.267 154.948L610.27 154.938C616.55 131.862 608.497 99.4962 592.314 82.7926C584.774 75.0194 576.747 71.8775 569.694 73.9055ZM581.391 165.791C579.843 171.564 577.507 176.508 574.524 180.37C575.066 180.214 575.491 180.095 575.864 179.991C576.509 179.811 577 179.674 577.671 179.461C584.395 177.291 589.651 170.402 592.468 160.059C598.75 136.818 590.496 104.445 574.467 87.9013C563.135 76.1206 554.263 78.4123 552.255 78.9309C552.033 78.9883 551.894 79.024 551.846 79.0165L551.836 79.0171L549.14 79.7796C553.595 81.534 558.031 84.636 562.237 88.9667C579.482 106.773 588.077 141.237 581.391 165.791Z" fill="#009140"/>
<path d="M495.641 207.023L495.648 207.012C510.304 176.705 496.841 126.204 475.918 104.603C459.436 87.5041 443.973 91.1768 437.356 115.856C429.419 145.056 440.027 187.633 460.514 208.83C474 222.791 487.425 223.782 495.641 207.023ZM442.041 117.118C447.578 96.4678 458.337 93.3787 472.432 107.998C494.549 130.837 503.888 178.825 491.284 204.885C484.455 218.808 474.829 216.648 464.005 205.434C444.558 185.317 434.5 144.877 442.041 117.118Z" fill="#E25319"/>
<path d="M441.148 203.651C440.034 204.403 439.732 205.915 440.477 207.031C441.925 209.205 443.437 211.287 445.01 213.27C445.83 214.308 447.363 214.501 448.42 213.651C449.469 212.811 449.645 211.279 448.808 210.228C447.315 208.35 445.882 206.377 444.511 204.318C443.771 203.199 442.267 202.902 441.148 203.651Z" fill="#E25319"/>
<path d="M477.909 167.683C480.112 159.469 477.235 147.971 471.478 142.036C466.233 136.754 460.523 138.472 458.574 145.743C456.328 153.919 459.203 165.421 464.959 171.361C470.252 176.961 475.877 175.262 477.909 167.683ZM468.465 167.982C463.911 163.285 461.475 153.491 463.257 147.012C464.348 142.941 465.613 143.027 468.014 145.458C472.534 150.117 474.969 159.917 473.223 166.428C472.12 170.541 470.845 170.499 468.465 167.982Z" fill="#E25319"/>
</svg>
