<svg width="70" height="70" viewBox="0 0 70 70" fill="none" xmlns="http://www.w3.org/2000/svg">
<path d="M22.3123 60.9874C22.2248 60.9874 22.1081 61.0457 22.0206 61.0457C16.3623 58.2457 11.754 53.6082 8.9248 47.9499C8.9248 47.8624 8.98314 47.7457 8.98314 47.6582C12.5415 48.7082 16.2165 49.4957 19.8623 50.1082C20.504 53.7832 21.2623 57.429 22.3123 60.9874Z" fill="#F8F8F8"/>
<path d="M61.0752 47.979C58.1877 53.7832 53.3752 58.479 47.5127 61.3082C48.621 57.604 49.5544 53.8707 50.1669 50.1082C53.8419 49.4957 57.4585 48.7082 61.0169 47.6582C60.9877 47.7749 61.0752 47.8915 61.0752 47.979Z" fill="#F8F8F8"/>
<path d="M61.3085 22.4872C57.6335 21.3789 53.9294 20.4747 50.1669 19.8331C49.5544 16.0706 48.6502 12.3372 47.5127 8.69141C53.5502 11.5789 58.421 16.4497 61.3085 22.4872Z" fill="#F8F8F8"/>
<path d="M22.3127 9.0123C21.2627 12.5706 20.5044 16.1873 19.8919 19.8623C16.1294 20.4456 12.3961 21.379 8.69189 22.4873C11.5211 16.6248 16.2169 11.8123 22.0211 8.9248C22.1086 8.9248 22.2252 9.0123 22.3127 9.0123Z" fill="#F8F8F8"/>
<path d="M45.1791 19.2205C38.4125 18.4622 31.5875 18.4622 24.8208 19.2205C25.55 15.2247 26.4833 11.2288 27.7958 7.37884C27.8541 7.14551 27.825 6.97051 27.8541 6.73717C30.1583 6.18301 32.5208 5.83301 35 5.83301C37.45 5.83301 39.8416 6.18301 42.1166 6.73717C42.1458 6.97051 42.1458 7.14551 42.2041 7.37884C43.5166 11.258 44.45 15.2247 45.1791 19.2205Z" fill="#F8F8F8"/>
<path d="M19.221 45.1796C15.196 44.4505 11.2293 43.5171 7.37933 42.2046C7.146 42.1463 6.971 42.1755 6.73766 42.1463C6.1835 39.8421 5.8335 37.4796 5.8335 35.0005C5.8335 32.5505 6.1835 30.1588 6.73766 27.8838C6.971 27.8546 7.146 27.8546 7.37933 27.7963C11.2585 26.513 15.196 25.5505 19.221 24.8213C18.4918 31.588 18.4918 38.413 19.221 45.1796Z" fill="#F8F8F8"/>
<path d="M64.1668 35.0005C64.1668 37.4796 63.8168 39.8421 63.2626 42.1463C63.0293 42.1755 62.8543 42.1463 62.621 42.2046C58.7418 43.488 54.7751 44.4505 50.7793 45.1796C51.5376 38.413 51.5376 31.588 50.7793 24.8213C54.7751 25.5505 58.771 26.4838 62.621 27.7963C62.8543 27.8546 63.0293 27.8838 63.2626 27.8838C63.8168 30.188 64.1668 32.5505 64.1668 35.0005Z" fill="#F8F8F8"/>
<path d="M45.1791 50.7793C44.45 54.8043 43.5166 58.771 42.2041 62.621C42.1458 62.8543 42.1458 63.0293 42.1166 63.2626C39.8416 63.8168 37.45 64.1668 35 64.1668C32.5208 64.1668 30.1583 63.8168 27.8541 63.2626C27.825 63.0293 27.8541 62.8543 27.7958 62.621C26.5125 58.7418 25.55 54.8043 24.8208 50.7793C28.2041 51.1585 31.5875 51.421 35 51.421C38.4125 51.421 41.825 51.1585 45.1791 50.7793Z" fill="#F8F8F8"/>
<path d="M45.9765 45.9761C38.6817 46.8964 31.3186 46.8964 24.0238 45.9761C23.1034 38.6812 23.1034 31.3182 24.0238 24.0233C31.3186 23.1029 38.6817 23.1029 45.9765 24.0233C46.8969 31.3182 46.8969 38.6812 45.9765 45.9761Z" fill="#F8F8F8"/>
</svg>
