<svg width="70" height="70" viewBox="0 0 70 70" fill="none" xmlns="http://www.w3.org/2000/svg">
<path d="M35 64.1666C51.1083 64.1666 64.1666 51.1082 64.1666 34.9999C64.1666 18.8916 51.1083 5.83325 35 5.83325C18.8917 5.83325 5.83331 18.8916 5.83331 34.9999C5.83331 51.1082 18.8917 64.1666 35 64.1666Z" stroke="#001D0D" stroke-width="2" stroke-linecap="round" stroke-linejoin="round"/>
<path d="M23.3333 8.75H26.25C20.5625 25.7833 20.5625 44.2167 26.25 61.25H23.3333" stroke="#001D0D" stroke-width="2" stroke-linecap="round" stroke-linejoin="round"/>
<path d="M43.75 8.75C49.4375 25.7833 49.4375 44.2167 43.75 61.25" stroke="#001D0D" stroke-width="2" stroke-linecap="round" stroke-linejoin="round"/>
<path d="M8.75 46.6667V43.75C25.7833 49.4375 44.2167 49.4375 61.25 43.75V46.6667" stroke="#001D0D" stroke-width="2" stroke-linecap="round" stroke-linejoin="round"/>
<path d="M8.75 26.25C25.7833 20.5625 44.2167 20.5625 61.25 26.25" stroke="#001D0D" stroke-width="2" stroke-linecap="round" stroke-linejoin="round"/>
</svg>
