<svg width="230" height="230" viewBox="0 0 230 230" fill="none" xmlns="http://www.w3.org/2000/svg">
<path d="M163.737 152.102C183.573 170.366 210.701 143.213 192.449 123.389L184.06 115L192.449 106.611C200.364 98.6962 200.364 85.8129 192.449 77.8982C184.535 69.9835 171.651 69.9835 163.737 77.8982L155.348 86.2873L143.713 74.6524L152.102 66.2633C160.017 58.3486 160.017 45.4653 152.102 37.5506C144.187 29.6358 131.304 29.6358 123.389 37.5506L115 45.9397L106.611 37.5506C98.6962 29.6358 85.8129 29.6358 77.8982 37.5506C69.9834 45.4653 69.9834 58.3486 77.8982 66.2633L86.2873 74.6524L74.6524 86.2873L66.2633 77.8982C58.3485 69.9835 45.4653 69.9835 37.5505 77.8982C29.6358 85.8129 29.6358 98.6962 37.5505 106.611L45.9396 115L37.5505 123.389C29.6358 131.304 29.6358 144.187 37.5505 152.102C45.4653 160.017 58.3485 160.017 66.2633 152.102L74.6524 143.713L86.2873 155.348L77.8982 163.737C69.9834 171.651 69.9834 184.535 77.8982 192.45C85.8129 200.364 98.6962 200.364 106.611 192.449L115 184.06L123.389 192.449C131.304 200.364 144.187 200.364 152.102 192.45C160.017 184.535 160.017 171.651 152.102 163.737L143.713 155.348L155.348 143.713L163.737 152.102ZM138.095 157.22L148.357 167.482C154.212 173.337 154.212 182.849 148.357 188.704C142.502 194.559 132.989 194.559 127.134 188.704L116.873 178.443C115.836 177.407 114.164 177.407 113.127 178.443L102.866 188.704C97.0109 194.559 87.4982 194.559 81.6433 188.704C75.7884 182.849 75.7884 173.337 81.6433 167.482L91.905 157.22C92.9411 156.184 92.9411 154.511 91.905 153.475L76.5249 138.095C75.4888 137.059 73.816 137.059 72.7798 138.095L62.5181 148.357C47.8996 161.827 27.7882 141.815 41.2957 127.134L51.5574 116.873C52.5935 115.836 52.5935 114.164 51.5574 113.127L41.2957 102.866C35.4408 97.0109 35.4408 87.4982 41.2957 81.6433C47.1506 75.7884 56.6632 75.7884 62.5181 81.6433L72.7798 91.905C73.816 92.9412 75.4888 92.9412 76.5249 91.905L91.905 76.525C92.9411 75.4888 92.9411 73.816 91.905 72.7798L81.6433 62.5182C68.1733 47.8996 88.1848 27.7882 102.866 41.2957L113.127 51.5574C114.164 52.5935 115.836 52.5935 116.873 51.5574L127.134 41.2957C141.765 27.8132 161.864 47.8372 148.357 62.5182L138.095 72.7798C137.059 73.816 137.059 75.4888 138.095 76.525L153.475 91.905C154.511 92.9412 156.184 92.9412 157.22 91.905L167.482 81.6433C173.337 75.7884 182.849 75.7884 188.704 81.6433C194.559 87.4982 194.559 97.0109 188.704 102.866L178.443 113.127C177.406 114.164 177.406 115.836 178.443 116.873L188.704 127.134C202.187 141.765 182.163 161.864 167.482 148.357L157.22 138.095C156.184 137.059 154.511 137.059 153.475 138.095L138.095 153.475C137.059 154.511 137.059 156.184 138.095 157.22Z" fill="#F8F8F8" fill-opacity="0.3"/>
<path d="M132.252 113.127L116.872 97.7471C115.836 96.7109 114.163 96.7109 113.127 97.7471L97.7472 113.127C96.711 114.163 96.711 115.836 97.7472 116.872L113.127 132.252C114.163 133.288 115.836 133.288 116.872 132.252L132.252 116.872C133.289 115.836 133.289 114.163 132.252 113.127ZM115 126.635L103.365 115L115 103.365L126.635 115L115 126.635Z" fill="#F8F8F8" fill-opacity="0.3"/>
</svg>
