<svg width="70" height="70" viewBox="0 0 70 70" fill="none" xmlns="http://www.w3.org/2000/svg">
<path d="M61.9794 53.8705L57.1669 55.008C56.0877 55.2705 55.2419 56.0872 55.0085 57.1663L53.9877 61.4538C53.4335 63.7872 50.4585 64.5163 48.9127 62.6788L40.1919 52.6455C39.4919 51.8288 39.871 50.5455 40.921 50.283C46.0835 49.0288 50.721 46.1413 54.1335 42.0288C54.6877 41.358 55.6794 41.2705 56.2919 41.883L62.7669 48.358C64.9835 50.5747 64.196 53.3455 61.9794 53.8705Z" fill="#F8F8F8"/>
<path d="M7.87523 53.8705L12.6877 55.008C13.7669 55.2705 14.6127 56.0872 14.8461 57.1663L15.8669 61.4538C16.4211 63.7872 19.3961 64.5163 20.9419 62.6788L29.6627 52.6455C30.3627 51.8288 29.9836 50.5455 28.9336 50.283C23.7711 49.0288 19.1336 46.1413 15.7211 42.0288C15.1669 41.358 14.1752 41.2705 13.5627 41.883L7.08773 48.358C4.87106 50.5747 5.65856 53.3455 7.87523 53.8705Z" fill="#F8F8F8"/>
<path d="M35.0002 5.83301C23.7127 5.83301 14.5835 14.9622 14.5835 26.2497C14.5835 30.4788 15.8377 34.358 17.996 37.5955C21.146 42.2622 26.1335 45.558 31.9377 46.4038C32.9293 46.5788 33.9502 46.6663 35.0002 46.6663C36.0502 46.6663 37.071 46.5788 38.0627 46.4038C43.8668 45.558 48.8543 42.2622 52.0043 37.5955C54.1627 34.358 55.4168 30.4788 55.4168 26.2497C55.4168 14.9622 46.2877 5.83301 35.0002 5.83301ZM43.9252 25.608L41.5043 28.0288C41.096 28.4372 40.8627 29.2247 41.0085 29.808L41.7085 32.8122C42.2627 35.1747 41.0085 36.108 38.9085 34.8538L35.9918 33.133C35.4668 32.8122 34.5918 32.8122 34.0668 33.133L31.1502 34.8538C29.0502 36.0788 27.796 35.1747 28.3502 32.8122L29.0502 29.808C29.1668 29.2538 28.9627 28.4372 28.5543 28.0288L26.0752 25.608C24.646 24.1788 25.1127 22.7497 27.096 22.4288L30.2168 21.9038C30.7418 21.8163 31.3543 21.3497 31.5877 20.883L33.3085 17.4413C34.2418 15.5747 35.7585 15.5747 36.6918 17.4413L38.4127 20.883C38.646 21.3497 39.2585 21.8163 39.8127 21.9038L42.9335 22.4288C44.8877 22.7497 45.3543 24.1788 43.9252 25.608Z" fill="#F8F8F8"/>
</svg>
