<svg width="750" height="72" viewBox="0 0 750 72" fill="none" xmlns="http://www.w3.org/2000/svg">
<path d="M261 6C261 2.6875 263.688 0 267 0H321C324.312 0 327 2.6875 327 6H261Z" fill="#E25319"/>
<path fill-rule="evenodd" clip-rule="evenodd" d="M317 10C318.106 10 319 10.8945 319 12C319 13.1055 318.105 14 317 14H272C270.895 14 270 13.1055 270 12C270 10.8945 270.895 10 272 10H317ZM272 18H317C318.106 18 319 18.8945 319 20C319 21.1055 318.105 22 317 22H272C270.895 22 270 21.1055 270 20C270 18.8945 270.895 18 272 18ZM272 26H317C318.106 26 319 26.8945 319 28C319 29.1055 318.105 30 317 30H272C270.895 30 270 29.1055 270 28C270 26.8945 270.895 26 272 26ZM2 34H317C318.106 34 319 34.8945 319 36C319 37.1055 318.105 38 317 38H2C0.894501 38 0 37.1055 0 36C0 34.8945 0.894531 34 2 34ZM272 42H317C318.106 42 319 42.8945 319 44C319 45.1055 318.105 46 317 46H272C270.895 46 270 45.1055 270 44C270 42.8945 270.895 42 272 42ZM317 50C318.106 50 319 50.8945 319 52C319 53.1055 318.105 54 317 54H272C270.895 54 270 53.1055 270 52C270 50.8945 270.895 50 272 50H317ZM317 58C318.106 58 319 58.8945 319 60C319 61.1055 318.105 62 317 62H272C270.895 62 270 61.1055 270 60C270 58.8945 270.895 58 272 58H317Z" fill="#009140"/>
<path d="M327 66C327 69.3125 324.312 72 321 72H267C263.688 72 261 69.3125 261 66H327Z" fill="#E25319"/>
<path fill-rule="evenodd" clip-rule="evenodd" d="M408 6C408 2.6875 405.312 0 402 0H348C344.688 0 342 2.6875 342 6H408ZM352 10C350.894 10 350 10.8945 350 12C350 13.1055 350.895 14 352 14H397C398.105 14 399 13.1055 399 12C399 10.8945 398.105 10 397 10H352ZM397 18H352C350.894 18 350 18.8945 350 20C350 21.1055 350.895 22 352 22H397C398.105 22 399 21.1055 399 20C399 18.8945 398.105 18 397 18ZM397 26H352C350.894 26 350 26.8945 350 28C350 29.1055 350.895 30 352 30H397C398.105 30 399 29.1055 399 28C399 26.8945 398.105 26 397 26ZM397 34H352C350.894 34 350 34.8945 350 36C350 37.1055 350.895 38 352 38H397C398.105 38 399 37.1055 399 36C399 34.8945 398.105 34 397 34ZM397 42H352C350.894 42 350 42.8945 350 44C350 45.1055 350.895 46 352 46H397C398.105 46 399 45.1055 399 44C399 42.8945 398.105 42 397 42ZM352 50C350.894 50 350 50.8945 350 52C350 53.1055 350.895 54 352 54H397C398.105 54 399 53.1055 399 52C399 50.8945 398.105 50 397 50H352ZM352 58C350.894 58 350 58.8945 350 60C350 61.1055 350.895 62 352 62H397C398.105 62 399 61.1055 399 60C399 58.8945 398.105 58 397 58H352ZM342 66C342 69.3125 344.688 72 348 72H402C405.312 72 408 69.3125 408 66H342Z" fill="#001D0D"/>
<path d="M489 6C489 2.6875 486.312 0 483 0H429C425.688 0 423 2.6875 423 6H489Z" fill="#E25319"/>
<path fill-rule="evenodd" clip-rule="evenodd" d="M433 10C431.894 10 431 10.8945 431 12C431 13.1055 431.895 14 433 14H478C479.105 14 480 13.1055 480 12C480 10.8945 479.105 10 478 10H433ZM478 18H433C431.894 18 431 18.8945 431 20C431 21.1055 431.895 22 433 22H478C479.105 22 480 21.1055 480 20C480 18.8945 479.105 18 478 18ZM478 26H433C431.894 26 431 26.8945 431 28C431 29.1055 431.895 30 433 30H478C479.105 30 480 29.1055 480 28C480 26.8945 479.105 26 478 26ZM748 34H433C431.894 34 431 34.8945 431 36C431 37.1055 431.895 38 433 38H748C749.105 38 750 37.1055 750 36C750 34.8945 749.105 34 748 34ZM478 42H433C431.894 42 431 42.8945 431 44C431 45.1055 431.895 46 433 46H478C479.105 46 480 45.1055 480 44C480 42.8945 479.105 42 478 42ZM433 50C431.894 50 431 50.8945 431 52C431 53.1055 431.895 54 433 54H478C479.105 54 480 53.1055 480 52C480 50.8945 479.105 50 478 50H433ZM433 58C431.894 58 431 58.8945 431 60C431 61.1055 431.895 62 433 62H478C479.105 62 480 61.1055 480 60C480 58.8945 479.105 58 478 58H433Z" fill="#009140"/>
<path d="M423 66C423 69.3125 425.688 72 429 72H483C486.312 72 489 69.3125 489 66H423Z" fill="#E25319"/>
</svg>
