<svg width="40" height="40" viewBox="0 0 40 40" fill="none" xmlns="http://www.w3.org/2000/svg">
<path d="M20 0L21.0804 2.91964L24 4L21.0804 5.08036L20 8L18.9196 5.08036L16 4L18.9196 2.91964L20 0Z" fill="#E25319"/>
<path d="M12 8L13.0804 10.9196L16 12L13.0804 13.0804L12 16L10.9196 13.0804L8 12L10.9196 10.9196L12 8Z" fill="#E25319"/>
<path d="M20 8L21.0804 10.9196L24 12L21.0804 13.0804L20 16L18.9196 13.0804L16 12L18.9196 10.9196L20 8Z" fill="#E25319"/>
<path d="M28 8L29.0804 10.9196L32 12L29.0804 13.0804L28 16L26.9196 13.0804L24 12L26.9196 10.9196L28 8Z" fill="#E25319"/>
<path d="M4 16L5.08036 18.9196L8 20L5.08036 21.0804L4 24L2.91964 21.0804L0 20L2.91964 18.9196L4 16Z" fill="#E25319"/>
<path d="M12 16L13.0804 18.9196L16 20L13.0804 21.0804L12 24L10.9196 21.0804L8 20L10.9196 18.9196L12 16Z" fill="#E25319"/>
<path d="M20 16L21.0804 18.9196L24 20L21.0804 21.0804L20 24L18.9196 21.0804L16 20L18.9196 18.9196L20 16Z" fill="#E25319"/>
<path d="M28 16L29.0804 18.9196L32 20L29.0804 21.0804L28 24L26.9196 21.0804L24 20L26.9196 18.9196L28 16Z" fill="#E25319"/>
<path d="M36 16L37.0804 18.9196L40 20L37.0804 21.0804L36 24L34.9196 21.0804L32 20L34.9196 18.9196L36 16Z" fill="#E25319"/>
<path d="M12 24L13.0804 26.9196L16 28L13.0804 29.0804L12 32L10.9196 29.0804L8 28L10.9196 26.9196L12 24Z" fill="#E25319"/>
<path d="M20 24L21.0804 26.9196L24 28L21.0804 29.0804L20 32L18.9196 29.0804L16 28L18.9196 26.9196L20 24Z" fill="#E25319"/>
<path d="M28 24L29.0804 26.9196L32 28L29.0804 29.0804L28 32L26.9196 29.0804L24 28L26.9196 26.9196L28 24Z" fill="#E25319"/>
<path d="M20 32L21.0804 34.9196L24 36L21.0804 37.0804L20 40L18.9196 37.0804L16 36L18.9196 34.9196L20 32Z" fill="#E25319"/>
</svg>
