<svg width="236" height="239" viewBox="0 0 236 239" fill="none" xmlns="http://www.w3.org/2000/svg">
<path d="M229.434 17.399C226.286 16.3986 222.98 16.7987 220.138 17.241C214.571 18.1045 209.078 19.4419 203.722 21.2111C206.51 15.3876 208.254 7.00555 203.289 2.84592C197.257 -2.19822 187.876 -0.966229 182.721 10.0173C179.319 6.24749 173.72 7.08993 170.065 10.5017C163.082 16.9463 157.748 40.6813 159.237 47.8117C153.459 52.919 147.701 58.6476 141.817 65.1765C133.556 74.338 126.595 84.3632 121.07 94.9679C114.52 94.8942 109.756 94.989 105.551 95.1575C51.0642 97.3689 8.03531 115.713 2.94573 138.838C1.85766 140.628 1.3189 142.945 1.10761 144.998C-0.688243 159.509 -0.297383 174.188 2.25907 188.627C7.19234 216.343 36.5178 226.778 58.1526 232.213C93.996 241.217 138.902 241.301 175.072 232.234C186.397 229.38 203.003 224.421 216.271 214.416C235.592 199.842 235.919 169.989 232.814 147.717C232.814 147.095 232.349 145.095 231.398 143.283C231.155 123.296 203.446 105.89 160.43 98.5276C155.254 97.643 151.694 97.1586 147.564 96.6531C154.42 83.848 163.304 72.5068 174.978 62.2923C181.411 67.7681 188.595 72.1488 196.401 75.2554C207.884 79.91 214.529 74.7078 214.275 68.6844C232.297 75.4134 239.143 56.9007 231.706 48.7187C226.846 43.3691 216.737 41.2421 209.501 40.7048C214.265 38.704 219.156 36.9665 224.142 35.5661C232.171 33.3652 236.164 29.848 235.995 25.0988C235.847 21.2025 232.603 18.4204 229.434 17.399ZM168.735 19.2734C169.865 16.704 170.953 14.6822 172.591 13.1868C173.932 11.9337 175.623 11.2176 177.133 11.2176C179.721 11.2176 181.211 13.5659 180.789 15.0718C180.715 15.3456 180.715 15.6088 180.757 15.8721L179.933 19.7789C179.69 20.9162 180.556 22.0008 181.739 22.0008C182.595 22.0008 183.356 21.4111 183.546 20.5371L184.57 15.6825C184.592 15.5877 184.57 15.4929 184.57 15.3981C185.785 11.7968 187.613 7.59511 190.983 5.23628C194.025 3.06698 198.018 3.23547 200.923 5.6575C203.712 7.99528 202.857 13.608 201.272 17.7045C200.617 19.421 199.709 21.1797 198.525 23.0646C184.697 28.4457 176.838 34.2584 166.349 41.7983C163.898 43.5569 164.131 43.5043 162.652 44.6837C162.81 38.197 164.784 28.2138 168.735 19.2734ZM160.823 102.318C200.701 109.5 226.784 125.474 227.279 143.03C227.29 143.493 227.459 143.809 227.691 144.157C226.973 165.039 190.114 183.257 139.621 187.565C138.607 187.649 137.857 188.544 137.942 189.555C138.026 190.513 138.829 191.24 139.78 191.24C139.833 191.24 139.886 191.24 139.938 191.229C186.948 187.217 221.639 171.727 229.647 152.118C231.665 170.178 231.506 198.317 214.044 211.488C201.304 221.082 185.183 225.894 174.166 228.674C138.628 237.572 94.3335 237.509 59.0526 228.653C38.4108 223.461 10.4473 213.605 5.88507 187.984C3.73002 175.79 3.17017 163.416 4.19485 151.095C7.77595 161.12 18.4665 170.344 35.2002 177.61C37.4609 178.59 38.8871 175.199 36.6792 174.241C17.2417 165.795 6.53919 154.896 6.53919 143.554C6.53919 120.092 53.3785 99.9898 110.995 98.6635C112.78 98.6214 116.91 98.6214 119.224 98.6319C116.932 103.381 114.861 108.51 113.181 113.554C71.2857 114.27 39.8476 126.18 39.8476 141.439C39.8476 157.109 73.8007 169.376 117.143 169.376C160.475 169.376 194.417 157.108 194.417 141.439C194.417 128.813 172.466 118.188 139.592 114.702C141.525 109.184 143.49 104.645 145.751 100.16C150.705 100.644 157.846 101.76 160.825 102.318L160.823 102.318ZM108.996 130.117C93.7634 131.191 82.2804 135.856 82.2804 141.437C82.2804 147.829 97.2812 153.031 115.736 153.031C134.223 153.031 149.191 147.84 149.191 141.437C149.191 137.499 143.54 134.024 134.877 131.949C135.733 127.611 136.832 123.146 138.395 118.249C168.797 121.356 190.708 131.023 190.708 141.438C190.708 153.158 161.139 165.7 117.131 165.7C73.1013 165.7 43.5211 153.158 43.5211 141.438C43.5211 129.022 74.6212 118.134 111.984 117.249C110.78 121.314 109.778 125.673 108.996 130.117ZM228.959 51.1918C233.48 56.1728 230.026 65.2922 223.518 66.3557C219.187 67.0507 214.814 65.1553 211.106 63.207C210.219 62.7437 209.12 63.0701 208.634 63.9442C208.148 64.8182 208.465 65.9239 209.331 66.4188C210.071 66.8401 210.366 67.6193 210.472 68.0511C211.423 71.7158 207.292 75.7066 197.774 71.8419C190.506 68.9566 183.798 64.9549 177.788 59.9213C185.563 53.4767 193.549 48.3692 201.577 44.3255C209.764 43.6832 223.782 45.4842 228.959 51.1918ZM223.138 32.0367C174.292 45.7158 136.461 87.3952 129.806 139.901H111.329C113.675 113.28 126.362 87.84 144.563 67.6295C165.448 44.4412 189.934 25.6449 220.696 20.8734C223.242 20.4732 225.925 20.1468 228.302 20.9049C230.235 21.5263 232.221 23.2216 232.285 25.2436C232.116 25.5385 233.332 29.2463 223.138 32.0367Z" fill="#E25319"/>
<path d="M100.596 84.7842C101.325 85.4792 102.487 85.4792 103.205 84.742C103.913 84.0154 103.892 82.8466 103.163 82.141L97.5748 76.7704C96.8459 76.0649 95.6733 76.0859 94.9655 76.8125C94.2577 77.5391 94.2789 78.708 95.0078 79.4136L100.596 84.7842Z" fill="#004820"/>
<path d="M110.199 82.4354C111.108 82.4354 111.889 81.772 112.027 80.8559L113.463 70.694C113.601 69.6936 112.903 68.7564 111.889 68.6195C110.896 68.4826 109.946 69.1776 109.808 70.1885L108.372 80.3504C108.224 81.435 109.079 82.4354 110.199 82.4354Z" fill="#004820"/>
<path d="M186.852 215.277C201.398 211.886 214.255 202.672 222.114 190.004C222.653 189.14 222.378 188.003 221.512 187.476C220.645 186.939 219.515 187.213 218.976 188.077C211.624 199.913 199.602 208.527 186.008 211.696C185.015 211.928 184.402 212.918 184.634 213.908C184.867 214.866 185.838 215.509 186.852 215.277Z" fill="#004820"/>
<path d="M174.048 219.227L177.228 218.29C178.2 218.005 178.76 216.984 178.475 216.004C178.189 215.025 177.154 214.477 176.182 214.762L173.002 215.699C172.03 215.983 171.471 217.005 171.756 217.984C172.052 218.963 173.087 219.511 174.048 219.227Z" fill="#004820"/>
</svg>
