<svg width="310" height="342" viewBox="0 0 310 342" fill="none" xmlns="http://www.w3.org/2000/svg">
<path d="M161.299 191.455C160.598 191.105 159.943 190.662 159.335 190.135C156.841 187.93 155.267 184.101 156.747 178.997C156.741 178.976 156.749 178.962 156.757 178.948L157.405 176.882L148.432 168.179C148.034 167.783 147.79 167.265 147.756 166.702C147.756 166.702 147.319 160.021 146.991 155.052C132.608 160.786 122.574 173.343 122.583 188.01C122.579 203.066 133.173 215.901 148.181 221.424L160.195 215.297L161.299 191.455Z" fill="#E25319"/>
<path d="M158.918 172.074L165.321 151.717C165.205 151.714 165.091 151.712 164.978 151.711L164.975 151.711C164.893 151.71 164.81 151.708 164.725 151.707C164.694 151.706 164.662 151.705 164.629 151.704C160.021 151.712 155.572 152.355 151.418 153.538C151.753 158.751 152.197 165.546 152.197 165.546L158.918 172.074Z" fill="#E25319"/>
<path d="M184.975 156.24L178.186 173.417L190.847 159.642C189.001 158.373 187.04 157.24 184.975 156.24Z" fill="#E25319"/>
<path d="M174.038 183.895L172.83 186.964C172.823 186.983 172.816 187 172.809 187.016C172.801 187.033 172.794 187.049 172.788 187.069C171.25 190.435 168.555 192.092 165.78 192.321L164.382 222.339C164.382 222.339 164.307 223.107 164.164 224.313C164.317 224.319 164.481 224.321 164.645 224.324C187.78 224.328 206.694 208.153 206.694 188.029C206.69 178.126 202.096 169.172 194.685 162.643C194.237 162.798 193.981 162.89 193.981 162.89L174.038 183.895Z" fill="#E25319"/>
<path fill-rule="evenodd" clip-rule="evenodd" d="M250.939 60.1034L230.078 42.146L226.463 39.0273L222.276 35.43C222.065 35.2529 221.828 35.1063 221.569 35.0121C220.691 34.6983 219.708 34.95 219.094 35.6635C218.917 35.8744 218.771 36.1122 218.688 36.368L198.089 93.2546C197.883 93.8354 197.913 94.4698 198.19 95.0262C198.468 95.5825 198.953 96.0013 199.55 96.1802L203.394 97.3696L207.721 98.7071L227.409 104.797C228.44 105.116 229.565 104.651 230.065 103.688L231.021 101.855L233.142 97.8315L251.467 62.8584C251.955 61.9336 251.73 60.7907 250.939 60.1034ZM226.945 99.9234L207.078 93.7767C207.067 93.7796 203.135 92.5659 203.135 92.5659C203.135 92.5659 217.635 52.5098 221.818 40.9827L225.887 44.4944C225.915 44.5103 225.931 44.5292 225.959 44.5452L246.64 62.3523L226.945 99.9234Z" fill="#004820"/>
<path d="M180.42 61.767L186.669 78.7687L189.75 74.0682L184.895 60.8743L195.85 17.4339L204.948 25.73L206.444 20.9837L196.099 11.5618C195.51 11.0188 194.689 10.83 193.935 11.0669C193.168 11.2958 192.585 11.9076 192.393 12.6715L180.357 60.4409C180.241 60.8806 180.271 61.3398 180.42 61.767Z" fill="#004820"/>
<path fill-rule="evenodd" clip-rule="evenodd" d="M206.898 19.5423L206.444 20.9837L204.948 25.73L189.75 74.0682L186.669 78.7687L186.81 83.3925L181.244 101.082L179.879 105.432L174.291 123.21L172.908 127.587L166.736 147.239L165.321 151.717L158.918 172.074L157.405 176.882L156.757 178.948C156.749 178.962 156.741 178.976 156.747 178.997C155.267 184.101 156.841 187.93 159.335 190.135C159.943 190.662 160.598 191.105 161.299 191.455L165.78 192.321C168.555 192.092 171.25 190.435 172.788 187.069C172.794 187.049 172.801 187.033 172.809 187.016C172.816 187 172.823 186.983 172.83 186.964L174.038 183.895L178.186 173.417L184.975 156.24L186.64 152.044L194.039 133.313L195.702 129.107L202.464 112.006L204.123 107.8L207.721 98.7071L203.394 97.3696L168.654 185.245C167.311 188.116 164.203 188.411 162.31 186.746C160.874 185.484 160.22 183.218 161.057 180.284C161.068 180.281 201.099 53.0055 209.625 25.8905C211.837 27.7855 215.311 29.5996 219.438 30.7132C223.125 31.7109 226.646 31.9588 229.395 31.6313L226.463 39.0273L230.078 42.146L235.666 28.0232C235.749 27.8139 235.823 27.6074 235.882 27.393C236.271 25.9691 235.945 24.3627 234.761 22.7761C232.947 20.319 228.685 17.6998 223.328 16.262C217.968 14.813 212.981 14.9343 210.176 16.1411C208.376 16.9154 207.29 18.1293 206.898 19.5423ZM230.553 24.8036C230.898 25.1317 231.171 25.4556 231.355 25.7918C231.367 25.8124 231.379 25.8326 231.392 25.8525L231.414 25.8876C231.486 26.0008 231.552 26.1054 231.526 26.2131C231.521 26.2378 231.516 26.2626 231.5 26.2902C231.448 26.3677 231.353 26.4144 231.251 26.4646C231.221 26.4789 231.192 26.4936 231.162 26.5093C230.84 26.7007 230.435 26.8443 229.977 26.9668C227.668 27.5386 224.254 27.3437 220.616 26.3561C216.971 25.3825 213.917 23.8297 212.212 22.1724C211.878 21.8414 211.602 21.5066 211.41 21.1841C211.389 21.1457 211.366 21.1096 211.344 21.0749C211.274 20.9627 211.213 20.8652 211.236 20.7519C211.271 20.6414 211.385 20.5822 211.506 20.5193L211.549 20.4964C211.567 20.4868 211.585 20.477 211.603 20.4667C211.936 20.2724 212.341 20.1288 212.799 20.0063C215.097 19.4374 218.522 19.6294 222.16 20.617C225.795 21.5935 228.859 23.1434 230.553 24.8036Z" fill="#004820"/>
<path fill-rule="evenodd" clip-rule="evenodd" d="M204.123 107.8C237.112 122.1 259.028 153.614 259.031 188.034C259.046 234.865 218.461 276.317 164.65 276.307C110.84 276.298 70.2548 234.823 70.2391 187.992C70.2272 141.172 110.81 99.7092 164.62 99.7197C170.317 99.7236 175.869 100.187 181.244 101.082L179.879 105.432C174.94 104.641 169.846 104.23 164.617 104.23C113.458 104.224 74.7452 143.479 74.7487 188.001C74.7598 232.51 113.495 271.782 164.657 271.799C215.815 271.805 254.528 232.55 254.525 188.028C254.517 155.421 233.7 125.608 202.464 112.006L204.123 107.8ZM164.619 122.612C167.912 122.617 171.139 122.816 174.291 123.21L172.908 127.587C170.2 127.284 167.438 127.125 164.627 127.131C126.938 127.125 97.6245 155.196 97.6368 187.999C97.634 209.198 109.882 228.423 128.716 239.38C131.429 233.911 133.888 229.153 133.888 229.153C134.112 228.766 134.434 228.446 134.836 228.245L142.926 224.115C128.131 217.252 118.078 203.606 118.064 188.004C118.063 171.104 129.851 156.512 146.683 150.332C146.666 149.963 146.646 149.758 146.646 149.758C146.646 149.758 125.557 145.539 125.741 144.31C125.925 143.081 149.118 145.569 149.118 145.569C150.163 145.721 150.957 146.595 151.03 147.65C151.03 147.65 151.065 148.131 151.117 148.934C155.389 147.802 159.93 147.192 164.634 147.194C165.334 147.193 166.038 147.204 166.736 147.239L165.321 151.717C165.205 151.714 165.091 151.712 164.978 151.711L164.975 151.711C164.893 151.71 164.81 151.708 164.725 151.707C164.694 151.706 164.662 151.705 164.629 151.704C160.021 151.712 155.572 152.355 151.418 153.538C151.753 158.751 152.197 165.546 152.197 165.546L158.918 172.074L157.405 176.882L148.432 168.179C148.034 167.783 147.79 167.265 147.756 166.702C147.756 166.702 147.319 160.021 146.991 155.052C132.608 160.786 122.574 173.343 122.583 188.01C122.579 203.066 133.173 215.901 148.181 221.424L160.195 215.297L161.299 191.455L165.78 192.321L164.382 222.339C164.382 222.339 164.307 223.107 164.164 224.313C164.317 224.319 164.481 224.321 164.645 224.324C187.78 224.328 206.694 208.153 206.694 188.029C206.69 178.126 202.096 169.172 194.685 162.643C194.237 162.798 193.981 162.89 193.981 162.89L174.038 183.895L178.186 173.417L190.847 159.642C189.001 158.373 187.04 157.24 184.975 156.24L186.64 152.044C190.086 153.667 193.271 155.664 196.127 157.959C200.552 157.182 207.143 156.164 207.359 156.97C207.54 157.646 203.217 159.458 199.426 160.906C206.766 168.131 211.206 177.64 211.21 188.023C211.212 210.459 190.425 228.84 164.64 228.834C164.29 228.834 163.951 228.832 163.598 228.821C162.959 233.536 162.069 239.1 161.346 239.06C160.627 239.031 160.232 233.332 160.034 228.631C156.032 228.29 152.179 227.5 148.535 226.316L137.49 231.961C137.49 231.961 134.903 236.205 131.822 241.083C141.459 246.035 152.626 248.895 164.648 248.898C202.34 248.914 231.65 220.833 231.638 188.029C231.631 164.485 216.502 143.355 194.039 133.313L195.702 129.107C219.919 139.858 236.142 162.68 236.156 188.031C236.157 223.139 204.997 253.422 164.657 253.414C151.713 253.413 139.719 250.296 129.391 244.899C125.772 250.517 122.2 255.784 121.689 255.489C121.184 255.215 123.791 249.483 126.724 243.441C106.36 231.693 93.135 210.873 93.1199 187.995C93.1186 152.887 124.279 122.604 164.619 122.612ZM159.949 220.479L154.518 223.254C156.266 223.638 158.068 223.915 159.89 224.092C159.868 223.14 159.861 222.547 159.861 222.547L159.949 220.479Z" fill="#E25319"/>
<path fill-rule="evenodd" clip-rule="evenodd" d="M281.909 188.038C281.902 152.172 263.152 118.524 233.142 97.8315L231.021 101.855C259.551 121.729 277.392 153.81 277.403 188.039C277.403 198.972 275.584 209.691 272.172 219.867C258.063 261.992 216.711 294.701 164.663 294.688C100.031 294.671 51.8824 244.23 51.8664 187.986C51.8624 173.774 54.9443 159.925 60.5825 147.167C77.2671 109.469 116.333 81.3323 164.609 81.3398C172.267 81.3438 179.68 82.0444 186.81 83.3925L186.669 78.7687C179.569 77.4939 172.201 76.8282 164.615 76.8285C114.398 76.815 73.8055 106.132 56.4638 145.34C55.4552 147.63 54.5129 149.95 53.6643 152.315C44.3402 173.488 41.3471 189.322 41.3483 203.699C41.3632 262.245 91.3624 314.898 158.645 314.918C211.767 314.925 254.21 284.669 273.348 229.436C274.501 226.767 275.524 224.052 276.456 221.303C280.013 210.667 281.915 199.47 281.909 188.038ZM45.8661 203.705C45.8553 197.915 46.2657 191.825 47.4003 185.214C47.3667 186.134 47.3602 187.059 47.3652 187.992C47.3688 246.541 97.3793 299.191 164.659 299.199C201.277 299.211 232.78 283.624 253.874 259.986C232.094 292.742 198.348 310.414 158.649 310.398C94.0194 310.392 45.869 259.943 45.8661 203.705Z" fill="#004820"/>
</svg>
