<svg width="126" height="126" viewBox="0 0 126 126" fill="none" xmlns="http://www.w3.org/2000/svg">
<path fill-rule="evenodd" clip-rule="evenodd" d="M61.5991 2.29482C61.6834 1.57221 61.7725 0.808107 61.8714 0C61.955 0.717275 62.0313 1.4 62.1041 2.04991C63.0917 10.8767 63.402 13.6504 71.7326 14.7205C63.4246 16.1838 63.1028 18.9354 62.0909 27.5869C62.0219 28.177 61.9496 28.7946 61.8714 29.4411C61.8535 29.2473 61.8359 29.0561 61.8186 28.8674C60.9336 19.252 60.6456 16.1229 52.0107 14.7205C60.276 13.6441 60.5917 10.9358 61.5991 2.29482ZM34.971 16.9927C35.2351 14.6317 35.5126 12.1515 35.8161 9.54561C36.1754 12.4796 36.4988 15.2538 36.8047 17.8774C40.4629 49.2555 41.6095 59.0898 71.623 62.9986C40.2672 68.091 39.2215 79.4525 36.0079 114.369C35.9449 115.054 35.881 115.748 35.8161 116.451C35.532 114.102 35.2695 111.859 35.0188 109.715C31.3447 78.3019 30.1763 68.3119 0.00913433 62.9986C30.2585 59.1129 31.3853 49.0421 34.971 16.9927ZM106.212 14.5439C106.354 13.27 106.504 11.9318 106.667 10.5258C106.861 12.1093 107.036 13.6066 107.201 15.0226C109.175 31.9552 109.794 37.262 125.99 39.3713C109.07 42.1193 108.505 48.2508 106.771 67.093C106.737 67.4628 106.703 67.8376 106.667 68.2172C106.514 66.9499 106.373 65.7393 106.237 64.5825C104.255 47.6302 103.624 42.2386 87.3441 39.3713C103.668 37.2743 104.276 31.8398 106.212 14.5439ZM16.0327 13.3244C16.0927 12.8091 16.1563 12.2641 16.2268 11.6877C16.2864 12.1988 16.3408 12.6852 16.3926 13.1483C17.0963 19.4375 17.3174 21.414 23.253 22.1765C17.3335 23.2191 17.1042 25.179 16.3832 31.3434C16.334 31.7638 16.2826 32.2038 16.2268 32.6643C16.214 32.5257 16.2015 32.3888 16.189 32.2538C15.5586 25.4041 15.3535 23.1756 9.2016 22.1765C15.0902 21.4096 15.3151 19.4799 16.0327 13.3244ZM76.1556 37.9928C76.212 37.4595 76.2715 36.8955 76.3378 36.299C76.3937 36.8288 76.4448 37.333 76.4935 37.813C77.1541 44.3282 77.3617 46.3752 82.9351 47.1652C77.3769 48.2453 77.1616 50.2763 76.4847 56.6621C76.4385 57.098 76.3901 57.5542 76.3378 58.0318C76.3258 57.8888 76.314 57.7477 76.3024 57.6084C75.7103 50.5103 75.5176 48.2004 69.7404 47.1652C75.2704 46.3705 75.4816 44.3716 76.1556 37.9928ZM88.7591 70.931C88.859 70.0382 88.9639 69.1002 89.0787 68.1148C89.2147 69.2253 89.3371 70.2754 89.4529 71.2684C90.837 83.1408 91.2707 86.8616 102.627 88.3406C90.7629 90.2674 90.3673 94.5666 89.1514 107.778C89.1275 108.037 89.1033 108.3 89.0787 108.567C88.9712 107.679 88.872 106.83 88.7772 106.019C87.3867 94.1318 86.9445 90.3512 75.5291 88.3406C86.9757 86.8702 87.4021 83.0595 88.7591 70.931ZM20.305 79.6129C20.3378 79.3031 20.3724 78.9756 20.4108 78.6291C20.4433 78.9363 20.4729 79.2288 20.5012 79.5071C20.8846 83.2884 21.0051 84.4767 24.2395 84.9352C21.0139 85.562 20.8889 86.7404 20.496 90.4467C20.4692 90.6994 20.4412 90.9639 20.4108 91.2407C20.4039 91.1575 20.397 91.0753 20.3902 90.9942C20.0467 86.8758 19.935 85.5359 16.5826 84.9352C19.7914 84.4741 19.914 83.3139 20.305 79.6129ZM62.9907 85.2729C63.0234 84.9636 63.058 84.6365 63.0964 84.2905C63.1288 84.5978 63.1585 84.8902 63.1867 85.1686C63.5702 88.9499 63.6907 90.1382 66.9251 90.5966C63.6994 91.2234 63.5745 92.4022 63.1816 96.1084C63.1548 96.3612 63.1267 96.6257 63.0964 96.9026C63.0895 96.8199 63.0827 96.7383 63.0759 96.6577C62.7323 92.538 62.6204 91.1974 59.2677 90.5966C62.4769 90.1354 62.5995 88.9751 62.9907 85.2729ZM6.83229 94.5391C6.89229 94.0245 6.95573 93.4804 7.0262 92.905C7.08571 93.416 7.14013 93.9024 7.19194 94.3654C7.89562 100.655 8.11672 102.631 14.0524 103.393C8.13286 104.436 7.90357 106.396 7.18256 112.561C7.13338 112.981 7.08191 113.421 7.0262 113.882C7.01349 113.744 7.00099 113.608 6.98865 113.474C6.35801 106.622 6.15281 104.393 0 103.393C5.88939 102.626 6.11438 100.697 6.83229 94.5391ZM118.071 102.574C118.137 101.951 118.206 101.291 118.284 100.594C118.349 101.213 118.409 101.802 118.466 102.363C119.238 109.98 119.481 112.373 125.997 113.297C119.499 114.559 119.247 116.934 118.456 124.4C118.402 124.909 118.345 125.442 118.284 126C118.27 125.833 118.256 125.667 118.243 125.504C117.55 117.207 117.325 114.507 110.572 113.297C117.036 112.368 117.283 110.031 118.071 102.574ZM53.1383 104.631C53.1848 104.232 53.2339 103.81 53.2886 103.364C53.3347 103.76 53.3768 104.137 53.417 104.496C53.9617 109.365 54.1329 110.895 58.7287 111.486C54.1454 112.293 53.9679 113.811 53.4097 118.583C53.3716 118.909 53.3317 119.25 53.2886 119.607C53.2787 119.5 53.269 119.394 53.2594 119.29C52.7711 113.985 52.6123 112.259 47.8484 111.486C52.4084 110.892 52.5825 109.398 53.1383 104.631Z" fill="#E25319"/>
<path d="M122.171 64.8464C121.673 69.3322 121.82 70.6528 118.343 71.1525C121.761 71.765 121.81 73.1467 122.171 77.4586C122.647 73.1215 122.554 71.8221 126 71.1525C122.527 70.6603 122.644 69.3269 122.171 64.8464Z" fill="#009140"/>
</svg>
