<svg width="128" height="128" viewBox="0 0 128 128" fill="none" xmlns="http://www.w3.org/2000/svg">
<path d="M62.8714 1C61.589 11.4714 61.9672 14.5541 53.0107 15.7205C61.8151 17.1504 61.9417 20.3755 62.8714 30.4411C64.0961 20.3168 63.8579 17.2836 72.7326 15.7205C63.7886 14.5716 64.0894 11.459 62.8714 1ZM36.8161 10.5456C32.3932 48.5248 33.4869 59.8266 1.00913 63.9986C33.2352 69.6745 32.3691 80.6873 36.8161 117.451C40.1921 80.9005 40.6522 69.1908 72.623 63.9986C40.0999 59.763 41.473 48.5696 36.8161 10.5456ZM107.667 11.5258C105.281 32.0212 105.871 38.1199 88.3441 40.3713C105.735 43.4343 105.268 49.3778 107.667 69.2172C109.489 49.4928 109.737 43.1733 126.99 40.3713C109.439 38.0856 110.181 32.0453 107.667 11.5258ZM17.2268 12.6877C16.3131 20.1486 16.5832 22.3454 10.2016 23.1765C16.4748 24.1953 16.5644 26.4925 17.2268 33.6643C18.0994 26.4506 17.9298 24.2902 24.253 23.1765C17.8804 22.3579 18.0947 20.1398 17.2268 12.6877ZM77.3378 37.299C76.4797 45.0289 76.7328 47.3041 70.7404 48.1652C76.631 49.2207 76.7157 51.6014 77.3378 59.0318C78.1571 51.5581 77.9975 49.319 83.9351 48.1652C77.9511 47.317 78.1527 45.0198 77.3378 37.299ZM123.171 65.8464C122.673 70.3322 122.82 71.6528 119.343 72.1525C122.761 72.765 122.81 74.1467 123.171 78.4586C123.647 74.1215 123.554 72.8221 127 72.1525C123.527 71.6603 123.644 70.3269 123.171 65.8464ZM90.0787 69.1148C88.4051 83.4857 88.8184 87.762 76.5291 89.3406C88.7231 91.4883 88.396 95.6558 90.0787 109.567C91.3561 95.7365 91.5299 91.3053 103.627 89.3406C91.3209 87.7379 91.8408 83.5027 90.0787 69.1148ZM21.4108 79.6291C20.9129 84.1148 21.06 85.4355 17.5826 85.9352C21.001 86.5477 21.0499 87.9288 21.4108 92.2407C21.8863 87.9037 21.7939 86.6048 25.2395 85.9352C21.767 85.443 21.8837 84.1095 21.4108 79.6291ZM64.0964 85.2905C63.5985 89.7762 63.7451 91.0969 60.2677 91.5966C63.686 92.2091 63.7354 93.5907 64.0964 97.9026C64.5719 93.5656 64.4794 92.2662 67.9251 91.5966C64.4525 91.1044 64.5693 89.771 64.0964 85.2905ZM8.0262 93.905C7.11243 101.366 7.38156 103.562 1 104.393C7.27319 105.412 7.36376 107.71 8.0262 114.882C8.89876 107.668 8.72911 105.507 15.0524 104.393C8.67972 103.575 8.89404 101.357 8.0262 93.905ZM119.284 101.594C118.281 110.63 118.577 113.29 111.572 114.297C118.458 115.53 118.557 118.314 119.284 127C120.242 118.263 120.055 115.645 126.997 114.297C120.001 113.305 120.237 110.619 119.284 101.594ZM54.2886 104.364C53.581 110.142 53.7898 111.842 48.8484 112.486C53.7058 113.275 53.7756 115.054 54.2886 120.607C54.9642 115.021 54.8325 113.348 59.7287 112.486C54.7942 111.852 54.9605 110.135 54.2886 104.364Z" fill="#009140" stroke="#009140" stroke-width="0.621417" stroke-linecap="square"/>
</svg>
