<svg width="100" height="30" viewBox="0 0 100 30" fill="none" xmlns="http://www.w3.org/2000/svg">
<path fill-rule="evenodd" clip-rule="evenodd" d="M34.7357 26.7736C33.9433 26.717 31.5282 27.2642 30.3206 27.3396C25.5282 27.6415 21.2451 27.3208 16.7546 25.6981C3.30174 20.8491 3.52816 9.11322 16.4338 4.3585C20.9999 2.67926 25.0753 2.28303 29.9999 2.56605L34.5848 3.16983C32.6225 2.09435 27.0942 1.28303 24.2451 1.26416C20.2074 1.2453 16.7734 1.58492 13.3772 2.71699C-3.58505 8.32077 -2.30203 22.4906 13.698 27.3585C20.0942 29.283 28.9244 29.1887 34.7357 26.7736Z" fill="#164271"/>
<path fill-rule="evenodd" clip-rule="evenodd" d="M11.7925 19.8114C16.5472 19.3775 18.9623 19.6793 23.434 22.2454C26 23.7171 29.3774 24.1322 32.3019 22.9058C33.0755 22.585 34.1887 22.0567 34.717 21.3963C33.151 21.8492 31.4529 22.9058 28.7736 22.6605C24.9057 22.3209 22.7736 19.5661 18.0378 18.9812C15.9623 18.7359 13.2076 18.9058 11.7925 19.8114Z" fill="#164271"/>
<path fill-rule="evenodd" clip-rule="evenodd" d="M12.1318 17.0755C16.3205 16.2264 19.9809 17.717 23.6035 19.6792C25.3205 20.6038 27.113 21.1132 29.5469 20.9623C31.3771 20.849 33.7922 19.8679 34.6601 18.849C33.0375 19.2453 31.8866 20.2264 28.7356 20C26.9998 19.8679 24.7733 18.849 23.5281 18.1509C20.3205 16.3396 15.1696 15.4906 12.1318 17.0755Z" fill="#FF0000"/>
<path d="M94.019 14.1698H95.7737C96.0945 14.1698 96.3398 14.151 96.4907 14.1321C96.6417 14.1132 96.7549 14.0755 96.8115 14.0189C96.8869 13.9623 96.9247 13.868 96.9624 13.7359C96.9813 13.6038 97.0002 13.4151 97.0002 13.151C97.0002 12.8868 96.9813 12.6982 96.9624 12.5661C96.9436 12.434 96.887 12.3397 96.8304 12.2642C96.7549 12.1887 96.6605 12.1321 96.5285 12.1132C96.3964 12.0944 96.1322 12.0755 95.7549 12.0755H94.0002L94.019 14.1698ZM92.7737 15.2265V11.0755H95.7737C96.302 11.0755 96.6417 11.0755 96.8115 11.0944C96.9813 11.0944 97.1511 11.1321 97.3209 11.1698C97.736 11.2642 98.0002 11.4906 98.1322 11.868C98.17 12.0189 98.2077 12.1698 98.2266 12.3397C98.2454 12.5095 98.2454 12.7548 98.2454 13.0944C98.2454 13.4717 98.2454 13.7548 98.2077 13.9434C98.1888 14.1321 98.1511 14.3019 98.0945 14.4717C97.9624 14.8302 97.7171 15.0566 97.3398 15.151C97.1511 15.1887 96.9624 15.2265 96.7549 15.2265C96.5473 15.2453 96.2077 15.2453 95.7549 15.2453H92.7737V15.2265ZM87.453 11.0755H92.4719V12.1321H90.6228V15.2265H89.302V12.1321H87.453V11.0755ZM83.9058 11.0755H85.2266V14.1698H88.17V15.2265H83.887V11.0755H83.9058ZM77.7737 11.0755H79.0945V14.1698H82.0379V15.2265H77.7549V11.0755H77.7737ZM75.3586 13.6227L74.5662 12.0566H74.3209L73.5285 13.6227H75.3586ZM76.1511 15.2265L75.7926 14.5283H73.0568L72.6983 15.2265H71.2643L73.4719 11.0755H75.4341L77.6039 15.2265H76.1511ZM69.9436 13.6227H71.2077C71.2077 13.8302 71.2266 13.9623 71.2266 14.0189C71.2266 14.3397 71.17 14.5849 71.0756 14.7736C70.9624 14.9812 70.7737 15.1132 70.453 15.1887C70.1511 15.2642 69.6228 15.3019 68.8681 15.3019C68.0756 15.3019 67.5096 15.2831 67.1888 15.2642C66.8492 15.2265 66.6039 15.1698 66.4341 15.0944C66.2832 15.0189 66.17 14.9057 66.0945 14.7736C66.019 14.6415 65.9624 14.4529 65.9436 14.2265C65.9247 14.0378 65.9247 13.6982 65.9247 13.2076C65.9247 12.7359 65.9247 12.3774 65.9436 12.1698C65.9624 11.9623 66.0002 11.7925 66.0568 11.6793C66.17 11.4151 66.4152 11.2453 66.7549 11.1698C67.1134 11.0944 67.8115 11.0566 68.887 11.0566C69.4153 11.0566 69.8115 11.0755 70.0568 11.0944C70.302 11.1132 70.4907 11.1698 70.6417 11.2265C70.8303 11.3208 70.9624 11.4529 71.0379 11.6227C71.1134 11.7925 71.1511 12.0566 71.1511 12.3963C71.1511 12.4151 71.1511 12.4906 71.1511 12.6038H69.887C69.887 12.4717 69.8681 12.3774 69.8681 12.3208C69.8492 12.2831 69.8303 12.2453 69.7926 12.2076C69.736 12.1698 69.6228 12.1321 69.4153 12.1132C69.2266 12.0944 68.9247 12.0755 68.5285 12.0755C68.1322 12.0755 67.8681 12.0755 67.6983 12.0944C67.5473 12.1132 67.4341 12.151 67.3775 12.1887C67.302 12.2453 67.2454 12.3585 67.2266 12.4906C67.1888 12.6415 67.1888 12.868 67.1888 13.1698C67.1888 13.4906 67.2077 13.6982 67.2266 13.8302C67.2454 13.9623 67.302 14.0566 67.3775 14.1132C67.453 14.1698 67.5662 14.2076 67.7171 14.2265C67.8681 14.2453 68.1511 14.2453 68.5473 14.2453C69.0379 14.2453 69.3586 14.2453 69.5096 14.2265C69.6794 14.2076 69.7737 14.1698 69.8303 14.1132C69.9058 14.0566 69.9436 13.8868 69.9436 13.6227ZM64.0945 11.0755H65.4153V15.2265H64.0945V11.0755ZM57.736 11.0755H59.9436L62.1134 14.1698H62.2454L62.2077 11.0755H63.4907V15.2265H61.3209L59.1322 12.1321H59.0002L59.019 15.2265H57.736V11.0755ZM51.6417 11.0755H52.9624V12.5661H55.8115V11.0755H57.1322V15.2265H55.8115V13.7359H52.9624V15.2265H51.6417V11.0755ZM49.9436 13.6227H51.2077C51.2077 13.8302 51.2266 13.9623 51.2266 14.0189C51.2266 14.3397 51.17 14.5849 51.0756 14.7736C50.9624 14.9812 50.7737 15.1132 50.453 15.1887C50.1511 15.2642 49.6228 15.3019 48.8681 15.3019C48.0756 15.3019 47.5096 15.2831 47.1888 15.2642C46.8492 15.2265 46.6039 15.1698 46.4341 15.0944C46.2832 15.0189 46.17 14.9057 46.0945 14.7736C46.019 14.6415 45.9624 14.4529 45.9436 14.2265C45.9247 14.0378 45.9247 13.6982 45.9247 13.2076C45.9247 12.7359 45.9247 12.3774 45.9436 12.1698C45.9624 11.9623 46.0002 11.7925 46.0568 11.6793C46.17 11.4151 46.4152 11.2453 46.7549 11.1698C47.1134 11.0944 47.8115 11.0566 48.887 11.0566C49.4153 11.0566 49.8115 11.0755 50.0568 11.0944C50.302 11.1132 50.4907 11.1698 50.6417 11.2265C50.8303 11.3208 50.9624 11.4529 51.0379 11.6227C51.1134 11.7925 51.1511 12.0566 51.1511 12.3963C51.1511 12.4151 51.1511 12.4906 51.1511 12.6038H49.887C49.887 12.4717 49.8681 12.3774 49.8681 12.3208C49.8492 12.2831 49.8303 12.2453 49.7926 12.2076C49.736 12.1698 49.6228 12.1321 49.4153 12.1132C49.2266 12.0944 48.9247 12.0755 48.5285 12.0755C48.1322 12.0755 47.8681 12.0755 47.6983 12.0944C47.5473 12.1132 47.4341 12.151 47.3775 12.1887C47.302 12.2453 47.2454 12.3585 47.2266 12.4906C47.1888 12.6415 47.1888 12.868 47.1888 13.1698C47.1888 13.4906 47.2077 13.6982 47.2266 13.8302C47.2454 13.9623 47.302 14.0566 47.3775 14.1132C47.453 14.1698 47.5662 14.2076 47.7171 14.2265C47.8681 14.2453 48.1511 14.2453 48.5473 14.2453C49.0379 14.2453 49.3586 14.2453 49.5096 14.2265C49.6794 14.2076 49.7737 14.1698 49.8303 14.1132C49.9058 14.0566 49.9436 13.8868 49.9436 13.6227ZM40.9813 11.0755H45.5662V12.0566H42.2266V12.6604H45.4152V13.5661H42.2266V14.2453H45.6039V15.2453H40.9813V11.0755ZM35.6794 11.0755H40.6983V12.1321H38.8492V15.2265H37.5285V12.1321H35.6794V11.0755ZM32.6983 13.6227H33.9624C33.9624 13.8302 33.9813 13.9623 33.9813 14.0189C33.9813 14.3397 33.9247 14.5849 33.8303 14.7736C33.7171 14.9812 33.5285 15.1132 33.2077 15.1887C32.9058 15.2642 32.3775 15.3019 31.6228 15.3019C30.8303 15.3019 30.2643 15.2831 29.9436 15.2642C29.6039 15.2265 29.3586 15.1698 29.1888 15.0944C29.0379 15.0189 28.9247 14.9057 28.8492 14.7736C28.7737 14.6415 28.7171 14.4529 28.6983 14.2265C28.6794 14.0378 28.6794 13.6982 28.6794 13.2076C28.6794 12.7359 28.6794 12.3774 28.6983 12.1698C28.7171 11.9623 28.7549 11.7925 28.8115 11.6793C28.9247 11.4151 29.17 11.2453 29.5096 11.1698C29.8681 11.0944 30.5662 11.0566 31.6417 11.0566C32.17 11.0566 32.5662 11.0755 32.8115 11.0944C33.0568 11.1132 33.2454 11.1698 33.3964 11.2265C33.5851 11.3208 33.7171 11.4529 33.7926 11.6227C33.8681 11.7925 33.9058 12.0566 33.9058 12.3963C33.9058 12.4151 33.9058 12.4906 33.9058 12.6038H32.6417C32.6417 12.4717 32.6228 12.3774 32.6228 12.3208C32.6039 12.2831 32.5851 12.2453 32.5473 12.2076C32.4907 12.1698 32.3775 12.1321 32.17 12.1132C31.9813 12.0944 31.6794 12.0755 31.2832 12.0755C30.8869 12.0755 30.6228 12.0755 30.453 12.0944C30.302 12.1132 30.1888 12.151 30.1322 12.1887C30.0568 12.2453 30.0002 12.3585 29.9813 12.4906C29.9436 12.6415 29.9436 12.868 29.9436 13.1698C29.9436 13.4906 29.9624 13.6982 29.9813 13.8302C30.0002 13.9623 30.0568 14.0566 30.1322 14.1132C30.2077 14.1698 30.3209 14.2076 30.4719 14.2265C30.6228 14.2453 30.9058 14.2453 31.302 14.2453C31.7926 14.2453 32.1134 14.2453 32.2643 14.2265C32.4341 14.2076 32.5285 14.1698 32.5851 14.1132C32.6605 14.0566 32.6983 13.8868 32.6983 13.6227ZM27.0379 13.6227H28.302C28.302 13.8302 28.3209 13.9623 28.3209 14.0189C28.3209 14.3397 28.2643 14.5849 28.17 14.7736C28.0568 14.9812 27.8681 15.1132 27.5473 15.1887C27.2454 15.2642 26.7171 15.3019 25.9624 15.3019C25.17 15.3019 24.6039 15.2831 24.2832 15.2642C23.9436 15.2265 23.6983 15.1698 23.5285 15.0944C23.3775 15.0189 23.2643 14.9057 23.1888 14.7736C23.1134 14.6415 23.0568 14.4529 23.0379 14.2265C23.019 14.0378 23.019 13.6982 23.019 13.2076C23.019 12.7359 23.019 12.3774 23.0379 12.1698C23.0568 11.9623 23.0945 11.7925 23.1511 11.6793C23.2643 11.4151 23.5096 11.2453 23.8492 11.1698C24.2077 11.0944 24.9058 11.0566 25.9813 11.0566C26.5096 11.0566 26.9058 11.0755 27.1511 11.0944C27.3964 11.1132 27.5851 11.1698 27.736 11.2265C27.9247 11.3208 28.0568 11.4529 28.1322 11.6227C28.2077 11.7925 28.2454 12.0566 28.2454 12.3963C28.2454 12.4151 28.2454 12.4906 28.2454 12.6038H26.9813C26.9813 12.4717 26.9624 12.3774 26.9624 12.3208C26.9436 12.2831 26.9247 12.2453 26.8869 12.2076C26.8303 12.1698 26.7171 12.1321 26.5096 12.1132C26.3209 12.0944 26.019 12.0755 25.6228 12.0755C25.2266 12.0755 24.9624 12.0755 24.7926 12.0944C24.6417 12.1132 24.5285 12.151 24.4719 12.1887C24.3964 12.2453 24.3398 12.3585 24.3209 12.4906C24.2832 12.6415 24.2832 12.868 24.2832 13.1698C24.2832 13.4906 24.302 13.6982 24.3209 13.8302C24.3398 13.9623 24.3964 14.0566 24.4719 14.1132C24.5473 14.1698 24.6605 14.2076 24.8115 14.2265C24.9624 14.2453 25.2454 14.2453 25.6417 14.2453C26.1322 14.2453 26.453 14.2453 26.6039 14.2265C26.7737 14.2076 26.8681 14.1698 26.9247 14.1132C27.0002 14.0566 27.0379 13.8868 27.0379 13.6227ZM20.736 13.6227L19.9436 12.0566H19.6983L18.9058 13.6227H20.736ZM21.5285 15.2265L21.17 14.5283H18.4341L18.0756 15.2265H16.6417L18.8492 11.0755H20.8115L22.9813 15.2265H21.5285ZM11.4907 11.0755H12.8869L14.3964 14.1887H14.6417L16.1322 11.0755H17.5096L15.4907 15.2265H13.5473L11.4907 11.0755Z" fill="#164271"/>
<path d="M93.8681 19.9433C93.8681 20.1886 93.9247 20.3773 94.019 20.4905C94.1134 20.6037 94.2454 20.6603 94.3964 20.6603C94.5473 20.6603 94.6605 20.6037 94.7737 20.4905C94.8681 20.3773 94.9247 20.2075 94.9247 19.9622C94.9247 19.7358 94.8681 19.566 94.7737 19.4339C94.6794 19.3207 94.5473 19.2641 94.3964 19.2641C94.2454 19.2641 94.1322 19.3207 94.0379 19.4339C93.9247 19.5471 93.8681 19.7169 93.8681 19.9433ZM93.6039 21.0754L93.9058 21.1131C93.9247 21.2075 93.9624 21.283 94.019 21.3207C94.0945 21.3773 94.2077 21.415 94.3398 21.415C94.4907 21.415 94.6039 21.3773 94.6794 21.3207C94.7549 21.2641 94.8115 21.1698 94.8492 21.0754C94.8681 21.0188 94.8681 20.8679 94.8681 20.6603C94.736 20.8301 94.5473 20.9056 94.3398 20.9056C94.0756 20.9056 93.887 20.8113 93.736 20.6226C93.5851 20.4339 93.5285 20.2075 93.5285 19.9433C93.5285 19.7547 93.5662 19.6037 93.6228 19.4528C93.6794 19.3018 93.7738 19.1886 93.9058 19.0943C94.0379 19.0188 94.17 18.9622 94.3398 18.9622C94.5662 18.9622 94.7549 19.0565 94.887 19.2264V18.9999H95.1888V20.6226C95.1888 20.9245 95.1511 21.132 95.0945 21.2452C95.0379 21.3584 94.9436 21.4716 94.8115 21.5282C94.6794 21.6037 94.5285 21.6414 94.3398 21.6414C94.1134 21.6414 93.9247 21.5848 93.7926 21.4905C93.6794 21.4339 93.6039 21.2641 93.6039 21.0754ZM91.6417 20.9056V19.0188H91.9247V19.283C92.0568 19.0754 92.2643 18.9811 92.5285 18.9811C92.6417 18.9811 92.7549 18.9999 92.8492 19.0377C92.9436 19.0754 93.019 19.132 93.0568 19.2075C93.1134 19.283 93.1322 19.3584 93.1511 19.4528C93.17 19.5094 93.17 19.6226 93.17 19.7547V20.9056H92.8492V19.7547C92.8492 19.6226 92.8303 19.5282 92.8115 19.4716C92.7926 19.415 92.736 19.3584 92.6794 19.3207C92.6228 19.283 92.5473 19.2641 92.453 19.2641C92.3209 19.2641 92.2077 19.3018 92.0945 19.3962C92.0002 19.4905 91.9436 19.6414 91.9436 19.8867V20.9245H91.6417V20.9056ZM90.8303 20.9056V19.0188H91.1511V20.9056H90.8303ZM90.8303 18.6792V18.3018H91.1511V18.6603H90.8303V18.6792ZM90.5285 20.6226L90.5662 20.9056C90.4719 20.9245 90.3964 20.9433 90.3209 20.9433C90.2077 20.9433 90.1134 20.9245 90.0568 20.8867C90.0002 20.849 89.9436 20.7924 89.9247 20.7358C89.9058 20.6792 89.887 20.5471 89.887 20.3584V19.2641H89.6417V19.0188H89.887V18.5471L90.2077 18.3584V19.0188H90.5285V19.2641H90.2077V20.3773C90.2077 20.4716 90.2077 20.5282 90.2266 20.5471C90.2454 20.566 90.2643 20.5848 90.2832 20.6037C90.302 20.6226 90.3398 20.6226 90.3964 20.6226C90.4153 20.6414 90.4719 20.6414 90.5285 20.6226ZM89.2454 20.2264L89.5662 20.2641C89.5285 20.4716 89.453 20.6414 89.302 20.7735C89.17 20.8867 88.9813 20.9622 88.7737 20.9622C88.5096 20.9622 88.3021 20.8867 88.1511 20.7169C88.0002 20.5471 87.9247 20.3018 87.9247 19.9999C87.9247 19.7924 87.9624 19.6226 88.019 19.4716C88.0945 19.3207 88.1888 19.2075 88.3209 19.132C88.453 19.0565 88.6039 19.0188 88.7737 19.0188C88.9813 19.0188 89.1511 19.0754 89.2832 19.1698C89.4153 19.283 89.4907 19.415 89.5285 19.6037L89.2266 19.6603C89.1888 19.5282 89.1511 19.4339 89.0756 19.3773C89.0002 19.3207 88.9058 19.283 88.8115 19.283C88.6417 19.283 88.5285 19.3396 88.4153 19.4528C88.3209 19.566 88.2643 19.7547 88.2643 19.9999C88.2643 20.2452 88.3209 20.4339 88.4153 20.5471C88.5096 20.6603 88.6417 20.7169 88.7926 20.7169C88.9247 20.7169 89.019 20.6792 89.1134 20.6037C89.17 20.4905 89.2266 20.3773 89.2454 20.2264ZM87.1888 19.9622C87.0756 20.0188 86.9058 20.0565 86.6605 20.0754C86.5285 20.0943 86.4341 20.1131 86.3775 20.132C86.3209 20.1509 86.2832 20.1886 86.2454 20.2264C86.2077 20.2641 86.2077 20.3207 86.2077 20.3773C86.2077 20.4528 86.2454 20.5282 86.302 20.5848C86.3587 20.6414 86.453 20.6792 86.5851 20.6792C86.7171 20.6792 86.8115 20.6603 86.9058 20.6037C87.0002 20.5471 87.0756 20.4716 87.1134 20.3773C87.1511 20.3018 87.17 20.2075 87.17 20.0565L87.1888 19.9622ZM87.2077 20.6792C87.0945 20.7735 86.9813 20.849 86.8681 20.8867C86.7549 20.9245 86.6417 20.9433 86.5096 20.9433C86.302 20.9433 86.1511 20.8867 86.0379 20.7924C85.9247 20.6981 85.8681 20.566 85.8681 20.3962C85.8681 20.3018 85.887 20.2264 85.9247 20.1509C85.9624 20.0754 86.019 20.0188 86.0945 19.9622C86.17 19.9245 86.2454 19.8867 86.3209 19.849C86.3775 19.8301 86.4719 19.8113 86.6039 19.7924C86.8681 19.7547 87.0568 19.7169 87.17 19.6792C87.17 19.6414 87.17 19.6037 87.17 19.6037C87.17 19.4716 87.1322 19.3773 87.0756 19.3207C87.0002 19.2452 86.8681 19.2075 86.7171 19.2075C86.5662 19.2075 86.453 19.2264 86.3775 19.283C86.302 19.3396 86.2454 19.4339 86.2266 19.566L85.9058 19.5282C85.9436 19.3962 85.9813 19.283 86.0379 19.2075C86.0945 19.132 86.1888 19.0565 86.3209 19.0188C86.453 18.9811 86.5851 18.9433 86.7549 18.9433C86.9247 18.9433 87.0568 18.9622 87.1511 18.9999C87.2454 19.0377 87.3209 19.0943 87.3775 19.1509C87.4341 19.2075 87.453 19.283 87.4719 19.3773C87.4907 19.4339 87.4907 19.5282 87.4907 19.6792V20.1131C87.4907 20.415 87.4907 20.6037 87.5096 20.6792C87.5285 20.7547 87.5473 20.8301 87.5851 20.9056H87.2454C87.2454 20.849 87.2266 20.7735 87.2077 20.6792ZM84.7737 20.9056V19.0188H85.0568V19.3018C85.1322 19.1698 85.1888 19.0754 85.2643 19.0377C85.3209 18.9999 85.3964 18.9811 85.4719 18.9811C85.5851 18.9811 85.6983 19.0188 85.7926 19.0754L85.6794 19.3773C85.6039 19.3396 85.5285 19.3207 85.453 19.3207C85.3775 19.3207 85.3209 19.3396 85.2643 19.3773C85.2077 19.415 85.17 19.4716 85.1511 19.5471C85.1134 19.6603 85.0945 19.7924 85.0945 19.9245V20.9056H84.7737ZM84.453 20.6226L84.4907 20.9056C84.3964 20.9245 84.3209 20.9433 84.2454 20.9433C84.1322 20.9433 84.0379 20.9245 83.9813 20.8867C83.9247 20.849 83.8681 20.7924 83.8492 20.7358C83.8303 20.6792 83.8115 20.5471 83.8115 20.3584V19.2641H83.5851V19.0188H83.8303V18.5471L84.1511 18.3584V19.0188H84.4719V19.2641H84.1511V20.3773C84.1511 20.4716 84.1511 20.5282 84.17 20.5471C84.1888 20.566 84.2077 20.5848 84.2266 20.6037C84.2454 20.6226 84.2832 20.6226 84.3398 20.6226C84.3587 20.6414 84.3964 20.6414 84.453 20.6226ZM81.736 20.9056V19.0188H82.019V19.283C82.1511 19.0754 82.3587 18.9811 82.6228 18.9811C82.736 18.9811 82.8492 18.9999 82.9436 19.0377C83.0379 19.0754 83.1134 19.132 83.1511 19.2075C83.2077 19.283 83.2266 19.3584 83.2454 19.4528C83.2643 19.5094 83.2643 19.6226 83.2643 19.7547V20.9056H82.9436V19.7547C82.9436 19.6226 82.9247 19.5282 82.9058 19.4716C82.887 19.415 82.8304 19.3584 82.7737 19.3207C82.7171 19.283 82.6417 19.2641 82.5473 19.2641C82.4153 19.2641 82.302 19.3018 82.1888 19.3962C82.0945 19.4905 82.0379 19.6414 82.0379 19.8867V20.9245H81.736V20.9056ZM79.9247 19.9622C79.9247 20.2075 79.9813 20.3773 80.0756 20.5094C80.1888 20.6226 80.3209 20.6981 80.4719 20.6981C80.6228 20.6981 80.7549 20.6414 80.8681 20.5094C80.9813 20.3962 81.019 20.2075 81.019 19.9622C81.019 19.7358 80.9624 19.5471 80.8681 19.4339C80.7549 19.3207 80.6228 19.2452 80.4719 19.2452C80.302 19.2452 80.17 19.3018 80.0756 19.415C79.9624 19.5471 79.9247 19.7358 79.9247 19.9622ZM79.5851 19.9622C79.5851 19.6226 79.6794 19.3584 79.8681 19.1886C80.0379 19.0565 80.2266 18.9811 80.453 18.9811C80.7171 18.9811 80.9247 19.0565 81.0945 19.2264C81.2643 19.3962 81.3398 19.6226 81.3398 19.9245C81.3398 20.1698 81.302 20.3584 81.2266 20.4905C81.1511 20.6226 81.0568 20.7358 80.9058 20.8113C80.7737 20.8867 80.6228 20.9245 80.453 20.9245C80.1888 20.9245 79.9813 20.849 79.8115 20.6792C79.6794 20.5282 79.5851 20.283 79.5851 19.9622ZM78.9813 19.9999L79.3209 20.0943C79.2454 20.3773 79.1134 20.5848 78.9247 20.7358C78.736 20.8867 78.5096 20.9622 78.2454 20.9622C77.9624 20.9622 77.736 20.9056 77.5662 20.7924C77.3964 20.6792 77.2643 20.5094 77.17 20.3018C77.0756 20.0754 77.0379 19.849 77.0379 19.6037C77.0379 19.3396 77.0945 19.0943 77.1888 18.8867C77.2832 18.6792 77.4341 18.5282 77.6228 18.4339C77.8115 18.3207 78.019 18.283 78.2454 18.283C78.5096 18.283 78.7171 18.3584 78.9058 18.4905C79.0756 18.6226 79.2077 18.8113 79.2832 19.0565L78.9436 19.132C78.887 18.9433 78.7926 18.8113 78.6794 18.7169C78.5662 18.6226 78.4153 18.5848 78.2454 18.5848C78.0379 18.5848 77.887 18.6414 77.736 18.7358C77.6039 18.8301 77.5096 18.9622 77.453 19.1131C77.3964 19.283 77.3775 19.4339 77.3775 19.6226C77.3775 19.849 77.4153 20.0377 77.4719 20.2075C77.5285 20.3773 77.6417 20.4905 77.7737 20.5848C77.9058 20.6603 78.0568 20.6981 78.2077 20.6981C78.3964 20.6981 78.5662 20.6414 78.6983 20.5282C78.8492 20.3773 78.9247 20.2264 78.9813 19.9999ZM75.2643 20.9056V18.3018H75.5851V20.9056H75.2643ZM74.453 19.9622C74.3398 20.0188 74.17 20.0565 73.9247 20.0754C73.7926 20.0943 73.6983 20.1131 73.6417 20.132C73.5851 20.1509 73.5473 20.1886 73.5096 20.2264C73.4719 20.2641 73.4719 20.3207 73.4719 20.3773C73.4719 20.4528 73.5096 20.5282 73.5662 20.5848C73.6228 20.6414 73.7171 20.6792 73.8492 20.6792C73.9813 20.6792 74.0756 20.6603 74.17 20.6037C74.2643 20.5471 74.3398 20.4716 74.3775 20.3773C74.4153 20.3018 74.4341 20.2075 74.4341 20.0565L74.453 19.9622ZM74.4719 20.6792C74.3587 20.7735 74.2454 20.849 74.1322 20.8867C74.019 20.9245 73.9058 20.9433 73.7737 20.9433C73.5662 20.9433 73.4153 20.8867 73.302 20.7924C73.1888 20.6981 73.1322 20.566 73.1322 20.3962C73.1322 20.3018 73.1511 20.2264 73.1888 20.1509C73.2266 20.0754 73.2832 20.0188 73.3586 19.9622C73.4341 19.9245 73.5096 19.8867 73.5851 19.849C73.6417 19.8301 73.736 19.8113 73.8681 19.7924C74.1322 19.7547 74.3209 19.7169 74.4341 19.6792C74.4341 19.6414 74.4341 19.6037 74.4341 19.6037C74.4341 19.4716 74.3964 19.3773 74.3398 19.3207C74.2643 19.2452 74.1322 19.2075 73.9813 19.2075C73.8303 19.2075 73.7171 19.2264 73.6417 19.283C73.5662 19.3396 73.5096 19.4339 73.4907 19.566L73.17 19.5282C73.2077 19.3962 73.2454 19.283 73.302 19.2075C73.3587 19.132 73.453 19.0565 73.5851 19.0188C73.7171 18.9811 73.8492 18.9433 74.019 18.9433C74.1888 18.9433 74.3209 18.9622 74.4153 18.9999C74.5096 19.0377 74.5851 19.0943 74.6417 19.1509C74.6983 19.2075 74.7171 19.283 74.736 19.3773C74.7549 19.4339 74.7549 19.5282 74.7549 19.6792V20.1131C74.7549 20.415 74.7549 20.6037 74.7737 20.6792C74.7926 20.7547 74.8115 20.8301 74.8492 20.9056H74.5285C74.5096 20.849 74.4907 20.7735 74.4719 20.6792ZM72.6605 20.2264L72.9813 20.2641C72.9436 20.4716 72.8681 20.6414 72.7171 20.7735C72.5851 20.8867 72.3964 20.9622 72.1888 20.9622C71.9247 20.9622 71.7171 20.8867 71.5662 20.7169C71.4153 20.5471 71.3398 20.3018 71.3398 19.9999C71.3398 19.7924 71.3775 19.6226 71.4341 19.4716C71.5096 19.3207 71.6039 19.2075 71.736 19.132C71.8681 19.0565 72.019 19.0188 72.1888 19.0188C72.3964 19.0188 72.5662 19.0754 72.6983 19.1698C72.8303 19.283 72.9058 19.415 72.9436 19.6037L72.6417 19.6603C72.6039 19.5282 72.5662 19.4339 72.4907 19.3773C72.4153 19.3207 72.3209 19.283 72.2266 19.283C72.0568 19.283 71.9436 19.3396 71.8303 19.4528C71.736 19.566 71.6794 19.7547 71.6794 19.9999C71.6794 20.2452 71.736 20.4339 71.8303 20.5471C71.9247 20.6603 72.0568 20.7169 72.2077 20.7169C72.3398 20.7169 72.4341 20.6792 72.5285 20.6037C72.5851 20.4905 72.6228 20.3773 72.6605 20.2264ZM70.6039 20.9056V19.0188H70.9247V20.9056H70.6039ZM70.6039 18.6792V18.3018H70.9247V18.6603H70.6039V18.6792ZM69.3964 20.9056V19.0188H69.6794V19.3018C69.7549 19.1698 69.8115 19.0754 69.887 19.0377C69.9436 18.9999 70.019 18.9811 70.0945 18.9811C70.2077 18.9811 70.3209 19.0188 70.4153 19.0754L70.302 19.3773C70.2266 19.3396 70.1511 19.3207 70.0756 19.3207C70.0002 19.3207 69.9436 19.3396 69.887 19.3773C69.8303 19.415 69.7926 19.4716 69.7737 19.5471C69.736 19.6603 69.7171 19.7924 69.7171 19.9245V20.9056H69.3964ZM69.0756 20.6226L69.1134 20.9056C69.019 20.9245 68.9436 20.9433 68.8681 20.9433C68.7549 20.9433 68.6605 20.9245 68.6039 20.8867C68.5473 20.849 68.4907 20.7924 68.4719 20.7358C68.453 20.6792 68.4341 20.5471 68.4341 20.3584V19.2641H68.1888V19.0188H68.4341V18.5471L68.7549 18.3584V19.0188H69.0756V19.2641H68.7549V20.3773C68.7549 20.4716 68.7549 20.5282 68.7737 20.5471C68.7926 20.566 68.8115 20.5848 68.8303 20.6037C68.8492 20.6226 68.887 20.6226 68.9436 20.6226C68.9813 20.6414 69.019 20.6414 69.0756 20.6226ZM67.8115 20.2264L68.1322 20.2641C68.0945 20.4716 68.019 20.6414 67.8681 20.7735C67.736 20.8867 67.5473 20.9622 67.3398 20.9622C67.0756 20.9622 66.8681 20.8867 66.7171 20.7169C66.5662 20.5471 66.4907 20.3018 66.4907 19.9999C66.4907 19.7924 66.5285 19.6226 66.5851 19.4716C66.6605 19.3207 66.7549 19.2075 66.887 19.132C67.019 19.0565 67.17 19.0188 67.3398 19.0188C67.5473 19.0188 67.7171 19.0754 67.8492 19.1698C67.9813 19.283 68.0568 19.415 68.0945 19.6037L67.7926 19.6603C67.7549 19.5282 67.7171 19.4339 67.6417 19.3773C67.5662 19.3207 67.4719 19.283 67.3775 19.283C67.2077 19.283 67.0945 19.3396 66.9813 19.4528C66.887 19.566 66.8304 19.7547 66.8304 19.9999C66.8304 20.2452 66.887 20.4339 66.9813 20.5471C67.0756 20.6603 67.2077 20.7169 67.3587 20.7169C67.4907 20.7169 67.5851 20.6792 67.6794 20.6037C67.7171 20.4905 67.7737 20.3773 67.8115 20.2264ZM64.7926 19.7924H65.8492C65.8303 19.6414 65.7926 19.5094 65.736 19.4339C65.6417 19.3018 65.5096 19.2452 65.3398 19.2452C65.1888 19.2452 65.0756 19.3018 64.9624 19.3962C64.8492 19.4905 64.7926 19.6226 64.7926 19.7924ZM65.8303 20.3018L66.17 20.3396C66.1134 20.5282 66.019 20.6792 65.887 20.7924C65.7549 20.9056 65.5662 20.9433 65.3398 20.9433C65.0568 20.9433 64.8492 20.849 64.6794 20.6792C64.5096 20.5094 64.4341 20.2641 64.4341 19.9622C64.4341 19.6414 64.5096 19.3962 64.6794 19.2264C64.8492 19.0565 65.0568 18.9622 65.3209 18.9622C65.5662 18.9622 65.7737 19.0565 65.9436 19.2264C66.0945 19.3962 66.1888 19.6414 66.1888 19.9433C66.1888 19.9622 66.1888 19.9999 66.1888 20.0188H64.7737C64.7926 20.2264 64.8492 20.3773 64.9436 20.4905C65.0568 20.6037 65.1888 20.6603 65.3398 20.6603C65.453 20.6603 65.5662 20.6226 65.6417 20.566C65.7171 20.5282 65.7926 20.4339 65.8303 20.3018ZM63.736 20.9056V18.3018H64.0568V20.9056H63.736ZM61.3587 20.9056V18.3018H63.2454V18.6037H61.6983V19.3962H63.1322V19.6981H61.6983V20.5848H63.302V20.8867L61.3587 20.9056ZM59.1511 20.3584L58.5662 19.6226C58.3964 19.7169 58.2832 19.8113 58.2077 19.9056C58.1511 19.9999 58.1134 20.0754 58.1134 20.1698C58.1134 20.283 58.1511 20.3773 58.2454 20.4905C58.3209 20.6037 58.453 20.6603 58.6039 20.6603C58.6983 20.6603 58.7926 20.6226 58.9058 20.566C59.019 20.5282 59.0945 20.4528 59.1511 20.3584ZM58.6983 19.2452C58.8303 19.1698 58.9247 19.0943 58.9624 19.0377C59.0002 18.9811 59.019 18.9056 59.019 18.8301C59.019 18.7358 58.9813 18.6603 58.9247 18.6037C58.8681 18.5471 58.7926 18.5282 58.7171 18.5282C58.6228 18.5282 58.5662 18.5471 58.4907 18.6037C58.4341 18.6603 58.3964 18.7358 58.3964 18.8113C58.3964 18.849 58.4153 18.8867 58.4341 18.9433C58.453 18.9811 58.4907 19.0377 58.5285 19.0943L58.6983 19.2452ZM59.3587 20.6037C59.2454 20.7169 59.1322 20.8113 59.019 20.8679C58.8869 20.9245 58.7549 20.9622 58.6228 20.9622C58.3587 20.9622 58.1511 20.8679 57.9813 20.6981C57.8492 20.5471 57.7926 20.3962 57.7926 20.2075C57.7926 20.0377 57.8492 19.9056 57.9436 19.7735C58.0379 19.6414 58.2077 19.5282 58.4153 19.4339C58.302 19.3018 58.2266 19.1886 58.17 19.1131C58.1322 19.0377 58.1134 18.9433 58.1134 18.8679C58.1134 18.7169 58.17 18.5848 58.302 18.4528C58.4153 18.3396 58.5851 18.283 58.7737 18.283C58.9436 18.283 59.0945 18.3396 59.2077 18.4528C59.3209 18.566 59.3775 18.6981 59.3775 18.849C59.3775 19.0943 59.2077 19.3018 58.887 19.4905L59.3587 20.0754C59.4153 19.9622 59.453 19.849 59.4907 19.7169L59.8303 19.7924C59.7737 20.0188 59.6983 20.2075 59.6039 20.3584C59.7171 20.5094 59.8681 20.6414 60.019 20.7547L59.8115 20.9999C59.6228 20.8867 59.4907 20.7547 59.3587 20.6037ZM56.0379 20.9056V18.3018H56.3587V20.9056H56.0379ZM55.2266 19.9622C55.1134 20.0188 54.9436 20.0565 54.6983 20.0754C54.5662 20.0943 54.4719 20.1131 54.4153 20.132C54.3586 20.1509 54.3209 20.1886 54.2832 20.2264C54.2454 20.2641 54.2454 20.3207 54.2454 20.3773C54.2454 20.4528 54.2832 20.5282 54.3398 20.5848C54.3964 20.6414 54.4907 20.6792 54.6228 20.6792C54.7549 20.6792 54.8492 20.6603 54.9436 20.6037C55.0379 20.5471 55.1134 20.4716 55.1511 20.3773C55.1888 20.3018 55.2077 20.2075 55.2077 20.0565L55.2266 19.9622ZM55.2643 20.6792C55.1511 20.7735 55.0379 20.849 54.9247 20.8867C54.8115 20.9245 54.6983 20.9433 54.5662 20.9433C54.3587 20.9433 54.2077 20.8867 54.0945 20.7924C53.9813 20.6981 53.9247 20.566 53.9247 20.3962C53.9247 20.3018 53.9436 20.2264 53.9813 20.1509C54.019 20.0754 54.0756 20.0188 54.1511 19.9622C54.2266 19.9245 54.302 19.8867 54.3775 19.849C54.4341 19.8301 54.5285 19.8113 54.6605 19.7924C54.9247 19.7547 55.1134 19.7169 55.2266 19.6792C55.2266 19.6414 55.2266 19.6037 55.2266 19.6037C55.2266 19.4716 55.1888 19.3773 55.1322 19.3207C55.0568 19.2452 54.9247 19.2075 54.7737 19.2075C54.6228 19.2075 54.5096 19.2264 54.4341 19.283C54.3586 19.3396 54.302 19.4339 54.2832 19.566L53.9624 19.5282C54.0002 19.3962 54.0379 19.283 54.0945 19.2075C54.1511 19.132 54.2454 19.0565 54.3775 19.0188C54.5096 18.9811 54.6417 18.9433 54.8115 18.9433C54.9813 18.9433 55.1134 18.9622 55.2077 18.9999C55.302 19.0377 55.3775 19.0943 55.4341 19.1509C55.4907 19.2075 55.5096 19.283 55.5285 19.3773C55.5473 19.4339 55.5473 19.5282 55.5473 19.6792V20.1131C55.5473 20.415 55.5473 20.6037 55.5662 20.6792C55.5851 20.7547 55.6039 20.8301 55.6417 20.9056H55.302C55.2832 20.849 55.2643 20.7735 55.2643 20.6792ZM53.4341 20.2264L53.7549 20.2641C53.7171 20.4716 53.6417 20.6414 53.4907 20.7735C53.3586 20.8867 53.17 20.9622 52.9624 20.9622C52.6983 20.9622 52.4907 20.8867 52.3398 20.7169C52.1888 20.5471 52.1134 20.3018 52.1134 19.9999C52.1134 19.7924 52.1511 19.6226 52.2077 19.4716C52.2832 19.3207 52.3775 19.2075 52.5096 19.132C52.6417 19.0565 52.7926 19.0188 52.9624 19.0188C53.17 19.0188 53.3398 19.0754 53.4719 19.1698C53.6039 19.283 53.6794 19.415 53.7171 19.6037L53.4153 19.6603C53.3775 19.5282 53.3398 19.4339 53.2643 19.3773C53.1888 19.3207 53.0945 19.283 53.0002 19.283C52.8303 19.283 52.7171 19.3396 52.6039 19.4528C52.5096 19.566 52.453 19.7547 52.453 19.9999C52.453 20.2452 52.5096 20.4339 52.6039 20.5471C52.6983 20.6603 52.8303 20.7169 52.9813 20.7169C53.1134 20.7169 53.2077 20.6792 53.302 20.6037C53.3586 20.4905 53.4153 20.3773 53.4341 20.2264ZM51.3964 20.9056V19.0188H51.7171V20.9056H51.3964ZM51.3964 18.6792V18.3018H51.7171V18.6603H51.3964V18.6792ZM49.3775 20.9056V19.0188H49.6605V19.283C49.7926 19.0754 50.0002 18.9811 50.2643 18.9811C50.3775 18.9811 50.4907 18.9999 50.5851 19.0377C50.6794 19.0754 50.7549 19.132 50.7926 19.2075C50.8492 19.283 50.8681 19.3584 50.887 19.4528C50.9058 19.5094 50.9058 19.6226 50.9058 19.7547V20.9056H50.5851V19.7547C50.5851 19.6226 50.5662 19.5282 50.5473 19.4716C50.5285 19.415 50.4719 19.3584 50.4153 19.3207C50.3587 19.283 50.2832 19.2641 50.1888 19.2641C50.0568 19.2641 49.9436 19.3018 49.8303 19.3962C49.736 19.4905 49.6794 19.6414 49.6794 19.8867V20.9245H49.3775V20.9056ZM48.5662 19.9622C48.453 20.0188 48.2832 20.0565 48.0379 20.0754C47.9058 20.0943 47.8115 20.1131 47.7549 20.132C47.6983 20.1509 47.6605 20.1886 47.6228 20.2264C47.5851 20.2641 47.5851 20.3207 47.5851 20.3773C47.5851 20.4528 47.6228 20.5282 47.6794 20.5848C47.736 20.6414 47.8303 20.6792 47.9624 20.6792C48.0945 20.6792 48.1888 20.6603 48.2832 20.6037C48.3775 20.5471 48.453 20.4716 48.4907 20.3773C48.5285 20.3018 48.5473 20.2075 48.5473 20.0565L48.5662 19.9622ZM48.5851 20.6792C48.4719 20.7735 48.3586 20.849 48.2454 20.8867C48.1322 20.9245 48.019 20.9433 47.887 20.9433C47.6794 20.9433 47.5285 20.8867 47.4153 20.7924C47.302 20.6981 47.2454 20.566 47.2454 20.3962C47.2454 20.3018 47.2643 20.2264 47.302 20.1509C47.3398 20.0754 47.3964 20.0188 47.4719 19.9622C47.5473 19.9245 47.6228 19.8867 47.6983 19.849C47.7549 19.8301 47.8492 19.8113 47.9813 19.7924C48.2454 19.7547 48.4341 19.7169 48.5473 19.6792C48.5473 19.6414 48.5473 19.6037 48.5473 19.6037C48.5473 19.4716 48.5096 19.3773 48.453 19.3207C48.3775 19.2452 48.2454 19.2075 48.0945 19.2075C47.9436 19.2075 47.8303 19.2264 47.7549 19.283C47.6794 19.3396 47.6228 19.4339 47.6039 19.566L47.2832 19.5282C47.3209 19.3962 47.3586 19.283 47.4153 19.2075C47.4719 19.132 47.5662 19.0565 47.6983 19.0188C47.8303 18.9811 47.9624 18.9433 48.1322 18.9433C48.302 18.9433 48.4341 18.9622 48.5285 18.9999C48.6228 19.0377 48.6983 19.0943 48.7549 19.1509C48.8115 19.2075 48.8303 19.283 48.8492 19.3773C48.8681 19.4339 48.8681 19.5282 48.8681 19.6792V20.1131C48.8681 20.415 48.8681 20.6037 48.887 20.6792C48.9058 20.7547 48.9247 20.8301 48.9624 20.9056H48.6228C48.6039 20.849 48.5851 20.7735 48.5851 20.6792ZM45.3209 20.9056V18.3018H45.6417V19.2452C45.7926 19.0754 45.9813 18.9811 46.2077 18.9811C46.3398 18.9811 46.4719 18.9999 46.5662 19.0565C46.6605 19.1131 46.736 19.1886 46.7926 19.283C46.8303 19.3773 46.8681 19.5282 46.8681 19.6981V20.8867H46.5473V19.6981C46.5473 19.5471 46.5096 19.415 46.453 19.3584C46.3775 19.283 46.2832 19.2452 46.17 19.2452C46.0756 19.2452 45.9813 19.2641 45.9058 19.3207C45.8303 19.3773 45.7549 19.4339 45.736 19.5282C45.6983 19.6037 45.6794 19.7358 45.6794 19.8679V20.9056H45.3209ZM44.736 20.2264L45.0568 20.2641C45.019 20.4716 44.9436 20.6414 44.7926 20.7735C44.6605 20.8867 44.4719 20.9622 44.2643 20.9622C44.0002 20.9622 43.7926 20.8867 43.6417 20.7169C43.4907 20.5471 43.4153 20.3018 43.4153 19.9999C43.4153 19.7924 43.453 19.6226 43.5096 19.4716C43.5851 19.3207 43.6794 19.2075 43.8115 19.132C43.9436 19.0565 44.0945 19.0188 44.2643 19.0188C44.4719 19.0188 44.6417 19.0754 44.7737 19.1698C44.9058 19.283 44.9813 19.415 45.019 19.6037L44.7171 19.6226C44.6794 19.4905 44.6417 19.3962 44.5662 19.3396C44.4907 19.283 44.3964 19.2452 44.302 19.2452C44.1322 19.2452 44.019 19.3018 43.9058 19.415C43.8115 19.5282 43.7549 19.7169 43.7549 19.9622C43.7549 20.2075 43.8115 20.3962 43.9058 20.5094C44.0002 20.6226 44.1322 20.6792 44.2832 20.6792C44.4153 20.6792 44.5096 20.6414 44.6039 20.566C44.6605 20.4905 44.7171 20.3773 44.736 20.2264ZM41.7171 19.7924H42.7737C42.7549 19.6414 42.7171 19.5094 42.6605 19.4339C42.5662 19.3018 42.4341 19.2452 42.2643 19.2452C42.1134 19.2452 42.0002 19.3018 41.8869 19.3962C41.7926 19.4905 41.736 19.6226 41.7171 19.7924ZM42.7737 20.3018L43.1134 20.3396C43.0568 20.5282 42.9624 20.6792 42.8303 20.7924C42.6983 20.9056 42.5096 20.9433 42.2832 20.9433C42.0002 20.9433 41.7926 20.849 41.6228 20.6792C41.453 20.5094 41.3775 20.2641 41.3775 19.9622C41.3775 19.6414 41.453 19.3962 41.6228 19.2264C41.7926 19.0565 42.0002 18.9622 42.2643 18.9622C42.5096 18.9622 42.7171 19.0565 42.887 19.2264C43.0379 19.3962 43.1322 19.6414 43.1322 19.9433C43.1322 19.9622 43.1322 19.9999 43.1322 20.0188H41.6983C41.7171 20.2264 41.7737 20.3773 41.8681 20.4905C41.9813 20.6037 42.1134 20.6603 42.2643 20.6603C42.3775 20.6603 42.4907 20.6226 42.5662 20.566C42.6605 20.5282 42.7171 20.4339 42.7737 20.3018ZM38.4907 20.9056V18.3018H39.0002L39.6228 20.1509C39.6794 20.3207 39.7171 20.4528 39.7549 20.5282C39.7926 20.4339 39.8303 20.3018 39.8869 20.1131L40.5096 18.3018H40.9624V20.9056H40.6228V18.7169L39.8681 20.9056H39.5662L38.8115 18.6792V20.9056H38.4907Z" fill="#231F20"/>
<path fill-rule="evenodd" clip-rule="evenodd" d="M36.5663 18.6038C37.0946 18.6038 37.5285 19.0377 37.5285 19.566C37.5285 20.0943 37.0946 20.5283 36.5663 20.5283C36.038 20.5283 35.604 20.0943 35.604 19.566C35.604 19.0377 36.038 18.6038 36.5663 18.6038Z" fill="#FF0000"/>
<path fill-rule="evenodd" clip-rule="evenodd" d="M97.2264 18.6038C97.7547 18.6038 98.1887 19.0377 98.1887 19.566C98.1887 20.0943 97.7547 20.5283 97.2264 20.5283C96.6981 20.5283 96.2642 20.0943 96.2642 19.566C96.2642 19.0377 96.6981 18.6038 97.2264 18.6038Z" fill="#FF0000"/>
</svg>
